<svg width="16" height="16" viewBox="0 0 16 16" fill="none" xmlns="http://www.w3.org/2000/svg" role="img" aria-label="Arrow with bend" data-icon="arrowwithbend" data-category="navigation">
  <title>Arrow with bend</title>
  <desc>navigation icon from Comcast Business Design System</desc>
<g id="Arrow with bend">
<path id="Union" fill-rule="evenodd" clip-rule="evenodd" d="M2.5 2.78809C2.5 2.37387 2.16421 2.03809 1.75 2.03809C1.33579 2.03809 1 2.37387 1 2.78809V9.99914C1 10.4134 1.33579 10.7491 1.75 10.7491H3.2154C3.22687 10.7497 3.2384 10.7499 3.25 10.7499H12.4394L11.2197 11.9696C10.9268 12.2625 10.9268 12.7374 11.2197 13.0302C11.5126 13.3231 11.9875 13.3231 12.2804 13.0302L14.7803 10.5303C14.921 10.3896 15 10.1988 15 9.99992C15 9.80101 14.921 9.61025 14.7803 9.46959L12.2804 6.96967C11.9875 6.67677 11.5126 6.67678 11.2197 6.96967C10.9268 7.26257 10.9268 7.73744 11.2197 8.03033L12.4393 9.24993L6.23485 9.24993C6.22338 9.2494 6.21184 9.24914 6.20025 9.24914H2.5V2.78809Z" fill="#F2616E"/>
</g>
</svg>
