<svg width="32" height="32" viewBox="0 0 32 32" fill="none" xmlns="http://www.w3.org/2000/svg" role="img" aria-label="Bell" data-icon="bell" data-category="communication">
  <title>Bell</title>
  <desc>communication icon from Comcast Business Design System</desc>
<g id="Bell">
<path id="shape" fill-rule="evenodd" clip-rule="evenodd" d="M9.61902 4.77065C11.3027 3.00282 13.5969 2 16 2C18.4031 2 20.6974 3.00282 22.381 4.77065C24.0631 6.53682 25 8.92228 25 11.4C25 16.1605 25.9705 19.1489 26.8874 20.914C27.3469 21.7986 27.7976 22.385 28.1175 22.7395C28.2776 22.917 28.4057 23.0372 28.4866 23.108C28.5271 23.1434 28.5558 23.1665 28.5709 23.1783L28.5825 23.1872C28.9336 23.4388 29.0839 23.8879 28.9537 24.3006C28.8225 24.7169 28.4365 25 28 25H4.00001C3.56354 25 3.17749 24.7169 3.04627 24.3006C2.91617 23.8879 3.06639 23.4388 3.41749 23.1872L3.42909 23.1783C3.44418 23.1665 3.47291 23.1434 3.51338 23.108C3.5943 23.0372 3.72237 22.917 3.88255 22.7395C4.20239 22.385 4.65309 21.7986 5.11261 20.914C6.02952 19.1489 7.00001 16.1605 7.00001 11.4C7.00001 8.92228 7.93696 6.53681 9.61902 4.77065ZM25.7986 23C25.5749 22.6657 25.343 22.2794 25.1126 21.836C24.0295 19.7511 23 16.4395 23 11.4C23 9.42208 22.2512 7.5344 20.9327 6.14996C19.6158 4.76717 17.8403 4 16 4C14.1597 4 12.3842 4.76717 11.0673 6.14996C9.74878 7.5344 9.00001 9.42208 9.00001 11.4C9.00001 16.4395 7.9705 19.7511 6.88742 21.836C6.65707 22.2794 6.42512 22.6657 6.20147 23H25.7986ZM13.4444 27.1686C13.9036 26.8617 14.5246 26.9852 14.8315 27.4444C14.9312 27.5937 15.0859 27.734 15.2932 27.8377C15.5008 27.9415 15.745 28 16 28C16.255 28 16.4992 27.9415 16.7068 27.8377C16.9142 27.734 17.0688 27.5937 17.1686 27.4444C17.4754 26.9852 18.0964 26.8617 18.5556 27.1686C19.0148 27.4754 19.1383 28.0964 18.8315 28.5556C18.5247 29.0146 18.0959 29.3792 17.6012 29.6266C17.1068 29.8738 16.5552 30 16 30C15.4449 30 14.8932 29.8738 14.3988 29.6266C13.9041 29.3792 13.4753 29.0146 13.1686 28.5556C12.8617 28.0964 12.9852 27.4754 13.4444 27.1686Z" fill="#15172B"/>
</g>
</svg>
