<svg width="48" height="48" viewBox="0 0 48 48" fill="none" xmlns="http://www.w3.org/2000/svg" role="img" aria-label="color=black, size=XL - 48x48" data-icon="colorblacksizexl48x48" data-category="general">
  <title>color=black, size=XL - 48x48</title>
  <desc>general icon from Comcast Business Design System</desc>
<g id="color=black, size=XL - 48x48">
<path id="Background" fill-rule="evenodd" clip-rule="evenodd" d="M24 44C35.0457 44 44 35.0457 44 24C44 12.9543 35.0457 4 24 4C12.9543 4 4 12.9543 4 24C4 35.0457 12.9543 44 24 44ZM24 40C32.8366 40 40 32.8366 40 24C40 15.1634 32.8366 8 24 8C15.1634 8 8 15.1634 8 24C8 32.8366 15.1634 40 24 40Z" fill="#B4B5BB"/>
<path id="Stroke" fill-rule="evenodd" clip-rule="evenodd" d="M24 6.00003C24 4.89546 23.102 3.98953 22.0028 4.09851C12.5518 5.03553 5.03553 12.5518 4.09851 22.0028C3.98953 23.102 4.89546 24 6.00003 24C7.1046 24 7.98692 23.1001 8.12333 22.004C9.02438 14.7634 14.7634 9.02438 22.004 8.12333C23.1001 7.98692 24 7.1046 24 6.00003Z" fill="#15172B"/>
</g>
</svg>
