<svg width="32" height="32" viewBox="0 0 32 32" fill="none" xmlns="http://www.w3.org/2000/svg" role="img" aria-label="Direction=Up" data-icon="directionup" data-category="navigation">
  <title>Direction=Up</title>
  <desc>navigation icon from Comcast Business Design System</desc>
<g id="Direction=Up">
<path id="shape" d="M8.29267 24.7075C7.92656 24.3414 7.90396 23.7624 8.22431 23.3696L8.29267 23.2934L15.2927 16.2934C15.6832 15.9029 16.3162 15.9029 16.7067 16.2934L23.7067 23.2934C24.0971 23.684 24.0972 24.317 23.7067 24.7075C23.3163 25.0978 22.6832 25.0978 22.2927 24.7075L15.9997 18.4145L9.70674 24.7075L9.63056 24.7759C9.23779 25.0962 8.65879 25.0736 8.29267 24.7075ZM8.29267 15.7075C7.9266 15.3414 7.90409 14.7624 8.22431 14.3696L8.29267 14.2934L15.2927 7.29345C15.6832 6.90292 16.3162 6.90292 16.7067 7.29345L23.7067 14.2934C24.097 14.684 24.0972 15.3171 23.7067 15.7075C23.3163 16.0977 22.6831 16.0977 22.2927 15.7075L15.9997 9.41454L9.70674 15.7075L9.63056 15.7759C9.23784 16.0961 8.65876 16.0735 8.29267 15.7075Z" fill="#15172B"/>
</g>
</svg>
