<svg width="32" height="32" viewBox="0 0 32 32" fill="none" xmlns="http://www.w3.org/2000/svg" role="img" aria-label="Download" data-icon="download" data-category="navigation">
  <title>Download</title>
  <desc>navigation icon from Comcast Business Design System</desc>
<g id="Download">
<path id="shape" fill-rule="evenodd" clip-rule="evenodd" d="M17 4C17 3.44772 16.5523 3 16 3C15.4477 3 15 3.44772 15 4V17.5859L9.70711 12.2929C9.31659 11.9024 8.68343 11.9024 8.2929 12.2929C7.90237 12.6834 7.90237 13.3166 8.29289 13.7071L15.2927 20.7071C15.3294 20.7437 15.3686 20.7772 15.4099 20.8074C15.5753 20.9285 15.7793 21 16 21C16.2823 21 16.5373 20.883 16.7191 20.6949L23.707 13.7071C24.0975 13.3166 24.0975 12.6834 23.707 12.2929C23.3165 11.9024 22.6833 11.9024 22.2928 12.2929L17 17.5856V4ZM4 19C4.55228 19 5 19.4477 5 20V25.3333C5 25.7754 5.17559 26.1993 5.48816 26.5118C5.80072 26.8244 6.22464 27 6.66667 27H25.3333C25.7754 27 26.1993 26.8244 26.5118 26.5118C26.8244 26.1993 27 25.7754 27 25.3333V20C27 19.4477 27.4477 19 28 19C28.5523 19 29 19.4477 29 20V25.3333C29 26.3058 28.6137 27.2384 27.9261 27.9261C27.2384 28.6137 26.3058 29 25.3333 29H6.66667C5.69421 29 4.76157 28.6137 4.07394 27.9261C3.38631 27.2384 3 26.3058 3 25.3333V20C3 19.4477 3.44772 19 4 19Z" fill="#393939"/>
</g>
</svg>
