<svg width="32" height="32" viewBox="0 0 32 32" fill="none" xmlns="http://www.w3.org/2000/svg" role="img" aria-label="Filter Alt" data-icon="filteralt" data-category="general">
  <title>Filter Alt</title>
  <desc>general icon from Comcast Business Design System</desc>
<g id="Filter Alt">
<path id="shape" fill-rule="evenodd" clip-rule="evenodd" d="M13 6C13 4.89543 13.8954 4 15 4C16.1046 4 17 4.89543 17 6C17 7.10457 16.1046 8 15 8C13.8954 8 13 7.10457 13 6ZM11.126 7H3C2.44772 7 2 6.55228 2 6C2 5.44772 2.44772 5 3 5H11.126C11.5701 3.27477 13.1362 2 15 2C16.8638 2 18.4299 3.27477 18.874 5H29C29.5523 5 30 5.44772 30 6C30 6.55228 29.5523 7 29 7H18.874C18.4299 8.72523 16.8638 10 15 10C13.1362 10 11.5701 8.72523 11.126 7ZM3 15C2.44772 15 2 15.4477 2 16C2 16.5523 2.44772 17 3 17H5.12602C5.57006 18.7252 7.13616 20 9 20C10.8638 20 12.4299 18.7252 12.874 17H29C29.5523 17 30 16.5523 30 16C30 15.4477 29.5523 15 29 15H12.874C12.4299 13.2748 10.8638 12 9 12C7.13616 12 5.57006 13.2748 5.12602 15H3ZM3 25C2.44772 25 2 25.4477 2 26C2 26.5523 2.44772 27 3 27H16.126C16.5701 28.7252 18.1362 30 20 30C21.8638 30 23.4299 28.7252 23.874 27H29C29.5523 27 30 26.5523 30 26C30 25.4477 29.5523 25 29 25H23.874C23.4299 23.2748 21.8638 22 20 22C18.1362 22 16.5701 23.2748 16.126 25H3ZM9 14C7.89543 14 7 14.8954 7 16C7 17.1046 7.89543 18 9 18C10.1046 18 11 17.1046 11 16C11 14.8954 10.1046 14 9 14ZM18 26C18 24.8954 18.8954 24 20 24C21.1046 24 22 24.8954 22 26C22 27.1046 21.1046 28 20 28C18.8954 28 18 27.1046 18 26Z" fill="#15172B"/>
</g>
</svg>
