<svg width="32" height="32" viewBox="0 0 32 32" fill="none" xmlns="http://www.w3.org/2000/svg" role="img" aria-label="Global Nav" data-icon="globalnav" data-category="general">
  <title>Global Nav</title>
  <desc>general icon from Comcast Business Design System</desc>
<g id="Global Nav">
<g id="shape">
<path d="M18.5 6.5C18.5 7.88071 17.3807 9 16 9C14.6193 9 13.5 7.88071 13.5 6.5C13.5 5.11929 14.6193 4 16 4C17.3807 4 18.5 5.11929 18.5 6.5Z" fill="#15172B"/>
<path d="M18.5 16C18.5 17.3807 17.3807 18.5 16 18.5C14.6193 18.5 13.5 17.3807 13.5 16C13.5 14.6193 14.6193 13.5 16 13.5C17.3807 13.5 18.5 14.6193 18.5 16Z" fill="#15172B"/>
<path d="M16 28C17.3807 28 18.5 26.8807 18.5 25.5C18.5 24.1193 17.3807 23 16 23C14.6193 23 13.5 24.1193 13.5 25.5C13.5 26.8807 14.6193 28 16 28Z" fill="#15172B"/>
<path d="M9 6.5C9 7.88071 7.88071 9 6.5 9C5.11929 9 4 7.88071 4 6.5C4 5.11929 5.11929 4 6.5 4C7.88071 4 9 5.11929 9 6.5Z" fill="#15172B"/>
<path d="M9 16C9 17.3807 7.88071 18.5 6.5 18.5C5.11929 18.5 4 17.3807 4 16C4 14.6193 5.11929 13.5 6.5 13.5C7.88071 13.5 9 14.6193 9 16Z" fill="#15172B"/>
<path d="M6.5 28C7.88071 28 9 26.8807 9 25.5C9 24.1193 7.88071 23 6.5 23C5.11929 23 4 24.1193 4 25.5C4 26.8807 5.11929 28 6.5 28Z" fill="#15172B"/>
<path d="M28 6.5C28 7.88071 26.8807 9 25.5 9C24.1193 9 23 7.88071 23 6.5C23 5.11929 24.1193 4 25.5 4C26.8807 4 28 5.11929 28 6.5Z" fill="#15172B"/>
<path d="M28 16C28 17.3807 26.8807 18.5 25.5 18.5C24.1193 18.5 23 17.3807 23 16C23 14.6193 24.1193 13.5 25.5 13.5C26.8807 13.5 28 14.6193 28 16Z" fill="#15172B"/>
<path d="M25.5 28C26.8807 28 28 26.8807 28 25.5C28 24.1193 26.8807 23 25.5 23C24.1193 23 23 24.1193 23 25.5C23 26.8807 24.1193 28 25.5 28Z" fill="#15172B"/>
</g>
</g>
</svg>
