<svg width="32" height="32" viewBox="0 0 32 32" fill="none" xmlns="http://www.w3.org/2000/svg" role="img" aria-label="History" data-icon="history" data-category="general">
  <title>History</title>
  <desc>general icon from Comcast Business Design System</desc>
<g id="History">
<path id="shape" fill-rule="evenodd" clip-rule="evenodd" d="M4 16C4 9.37258 9.37258 4 16 4C22.6274 4 28 9.37258 28 16C28 22.6274 22.6274 28 16 28C9.37258 28 4 22.6274 4 16ZM16 2C8.26801 2 2 8.26801 2 16C2 23.732 8.26801 30 16 30C23.732 30 30 23.732 30 16C30 8.26801 23.732 2 16 2ZM17 8C17 7.44772 16.5523 7 16 7C15.4477 7 15 7.44772 15 8V16C15 16.3513 15.1843 16.6768 15.4855 16.8575L20.4855 19.8575C20.9591 20.1416 21.5733 19.9881 21.8575 19.5145C22.1416 19.0409 21.9881 18.4267 21.5145 18.1425L17 15.4338V8Z" fill="#15172B"/>
</g>
</svg>
