<svg width="19" height="24" viewBox="0 0 19 24" fill="none" xmlns="http://www.w3.org/2000/svg" role="img" aria-label="Layer_1" data-icon="layer1" data-category="general">
  <title>Layer_1</title>
  <desc>general icon from Comcast Business Design System</desc>
<g id="Layer_1" clip-path="url(#clip0_1258_27458)">
<path id="Vector" d="M9.31217 12.0217C6.06708 12.0217 3.43641 9.33055 3.43641 6.01085C3.43641 2.69115 6.06708 0 9.31217 0C12.5573 0 15.1879 2.69115 15.1879 6.01085C15.1879 9.33055 12.5573 12.0217 9.31217 12.0217Z" fill="#15172B"/>
<path id="Vector_2" d="M13.7667 13.9747H4.90002C2.19548 13.9747 2.09808e-05 16.2207 2.09808e-05 18.9874V22.9059C2.09808e-05 23.5096 0.479416 24 1.06954 24H17.5972C18.1873 24 18.6667 23.5096 18.6667 22.9059V18.9874C18.6667 16.2207 16.4712 13.9747 13.7667 13.9747Z" fill="#15172B"/>
</g>
<defs>
<clipPath id="clip0_1258_27458">
<rect width="18.6667" height="24" fill="white" transform="matrix(-1 0 0 1 18.6667 0)"/>
</clipPath>
</defs>
</svg>
