<svg width="32" height="32" viewBox="0 0 32 32" fill="none" xmlns="http://www.w3.org/2000/svg" role="img" aria-label="Maximize" data-icon="maximize" data-category="general">
  <title>Maximize</title>
  <desc>general icon from Comcast Business Design System</desc>
<g id="Maximize">
<path id="shape" d="M11.702 18.8917C12.0947 18.5713 12.6737 18.5941 13.0399 18.9601C13.4058 19.3261 13.4293 19.9053 13.1092 20.298L13.0399 20.3742L5.41391 28.0002H10.9998L11.1024 28.0051C11.6065 28.0564 11.9998 28.4825 11.9998 29.0002C11.9998 29.5179 11.6065 29.944 11.1024 29.9953L10.9998 30.0002H2.99985C2.94318 30.0002 2.88793 29.9936 2.83383 29.9846C2.82375 29.9829 2.8136 29.9817 2.80356 29.9797C2.72021 29.9631 2.64073 29.9365 2.56625 29.9006C2.52647 29.8814 2.48752 29.8599 2.45004 29.8351C2.3124 29.7443 2.19872 29.6205 2.11996 29.4748C2.11254 29.461 2.10619 29.4468 2.09946 29.4328C2.03637 29.3017 1.99985 29.1554 1.99985 29.0002V21.0001C1.99985 20.4479 2.44756 20.0001 2.99985 20.0001C3.55213 20.0001 3.99985 20.4479 3.99985 21.0001V26.5861L11.6258 18.9601L11.702 18.8917ZM29.0204 2.00107C29.0379 2.00143 29.0555 2.00174 29.0731 2.00302L29.1024 2.00497C29.1125 2.00601 29.1226 2.00755 29.1327 2.00888C29.1353 2.00923 29.1379 2.00949 29.1405 2.00986C29.2585 2.02647 29.3695 2.06417 29.4706 2.11826C29.4788 2.12265 29.4868 2.12729 29.495 2.13193C29.5422 2.15893 29.5868 2.18965 29.6288 2.22373C29.634 2.22795 29.6392 2.23208 29.6444 2.23642C29.6622 2.25147 29.6794 2.26706 29.6961 2.2833C29.6995 2.28658 29.7035 2.28972 29.7069 2.29306C29.71 2.29616 29.7126 2.2997 29.7157 2.30283C29.7531 2.3413 29.7873 2.38277 29.8182 2.42685C29.8236 2.43456 29.8287 2.44247 29.8338 2.45029C29.8631 2.49459 29.889 2.54109 29.911 2.58994C29.914 2.59673 29.9169 2.6036 29.9198 2.61044C29.9278 2.6293 29.9344 2.64864 29.9413 2.66806C29.945 2.67877 29.9486 2.68948 29.952 2.70029C29.9579 2.71903 29.9638 2.73774 29.9686 2.75693C29.9706 2.76475 29.9727 2.77251 29.9745 2.78037C29.9793 2.80196 29.9837 2.8237 29.9872 2.8458C29.9888 2.8565 29.9897 2.86728 29.9911 2.87802C29.9959 2.91809 29.9998 2.95871 29.9998 3.00009V11.0001C29.9998 11.5524 29.5521 12.0001 28.9998 12.0001C28.4476 12.0001 27.9998 11.5524 27.9998 11.0001V5.41416L20.3739 13.0402C19.9834 13.4306 19.3504 13.4304 18.9598 13.0402C18.5694 12.6496 18.5693 12.0166 18.9598 11.6261L26.5858 4.0001H20.9998C20.4476 4.0001 19.9998 3.55238 19.9998 3.00009C19.9998 2.44781 20.4476 2.00009 20.9998 2.00009H28.9998L29.0204 2.00107Z" fill="#15172B"/>
</g>
</svg>
