<svg width="32" height="32" viewBox="0 0 32 32" fill="none" xmlns="http://www.w3.org/2000/svg" role="img" aria-label="Message" data-icon="message" data-category="communication">
  <title>Message</title>
  <desc>communication icon from Comcast Business Design System</desc>
<g id="Message">
<path id="shape" fill-rule="evenodd" clip-rule="evenodd" d="M5 8.5C5 7.67157 5.67157 7 6.5 7H25.5C26.3284 7 27 7.67157 27 8.5V19C27 19.8284 26.3284 20.5 25.5 20.5H10.2139C9.5214 20.5 8.8502 20.7396 8.31421 21.1781L5 23.8898V8.5ZM6.5 5C4.567 5 3 6.567 3 8.5V26C3 26.3864 3.2226 26.7382 3.57177 26.9037C3.92094 27.0691 4.33419 27.0186 4.63324 26.774L9.58069 22.726C9.75935 22.5799 9.98308 22.5 10.2139 22.5H25.5C27.433 22.5 29 20.933 29 19V8.5C29 6.567 27.433 5 25.5 5H6.5ZM9 13.75C9 12.7835 9.7835 12 10.75 12C11.7165 12 12.5 12.7835 12.5 13.75C12.5 14.7165 11.7165 15.5 10.75 15.5C9.7835 15.5 9 14.7165 9 13.75ZM14 13.75C14 12.7835 14.7835 12 15.75 12C16.7165 12 17.5 12.7835 17.5 13.75C17.5 14.7165 16.7165 15.5 15.75 15.5C14.7835 15.5 14 14.7165 14 13.75ZM20.75 12C19.7835 12 19 12.7835 19 13.75C19 14.7165 19.7835 15.5 20.75 15.5C21.7165 15.5 22.5 14.7165 22.5 13.75C22.5 12.7835 21.7165 12 20.75 12Z" fill="#15172B"/>
</g>
</svg>
