<svg width="32" height="32" viewBox="0 0 32 32" fill="none" xmlns="http://www.w3.org/2000/svg" role="img" aria-label="Network Health" data-icon="networkhealth" data-category="general">
  <title>Network Health</title>
  <desc>general icon from Comcast Business Design System</desc>
<g id="Network Health">
<g id="shape">
<path d="M28 6C27.4477 6 27 6.44772 27 7V25C27 25.5523 27.4477 26 28 26C28.5523 26 29 25.5523 29 25V7C29 6.44772 28.5523 6 28 6Z" fill="#15172B"/>
<path d="M21 11C21 10.4477 21.4477 10 22 10C22.5523 10 23 10.4477 23 11V25C23 25.5523 22.5523 26 22 26C21.4477 26 21 25.5523 21 25V11Z" fill="#15172B"/>
<path d="M16 13C15.4477 13 15 13.4477 15 14V25C15 25.5523 15.4477 26 16 26C16.5523 26 17 25.5523 17 25V14C17 13.4477 16.5523 13 16 13Z" fill="#15172B"/>
<path d="M9 17C9 16.4477 9.44772 16 10 16C10.5523 16 11 16.4477 11 17V25C11 25.5523 10.5523 26 10 26C9.44772 26 9 25.5523 9 25V17Z" fill="#15172B"/>
<path d="M3 20C3 19.4477 3.44772 19 4 19C4.55228 19 5 19.4477 5 20V25C5 25.5523 4.55228 26 4 26C3.44772 26 3 25.5523 3 25V20Z" fill="#15172B"/>
</g>
</g>
</svg>
