<svg width="32" height="32" viewBox="0 0 32 32" fill="none" xmlns="http://www.w3.org/2000/svg" role="img" aria-label="No Annual Contract" data-icon="noannualcontract" data-category="general">
  <title>No Annual Contract</title>
  <desc>general icon from Comcast Business Design System</desc>
<g id="No Annual Contract">
<path id="shape" fill-rule="evenodd" clip-rule="evenodd" d="M6.92947 4.019C7.53325 3.37498 8.36646 3 9.25 3H17.125C17.4014 3 17.6655 3.11441 17.8545 3.31606L25.7295 11.7161C25.9033 11.9014 26 12.1459 26 12.4V23.094L29.1432 25.7343C29.5661 26.0895 29.621 26.7203 29.2657 27.1432C28.9105 27.5661 28.2797 27.6209 27.8568 27.2657L25.9985 25.7047C25.9736 26.5493 25.6484 27.3646 25.0705 27.981C24.4668 28.625 23.6335 29 22.75 29H9.25C8.36646 29 7.53325 28.625 6.92947 27.981C6.32775 27.3392 6 26.4817 6 25.6V8.90596L2.85683 6.2657C2.43394 5.91047 2.37909 5.27969 2.73432 4.8568C3.08954 4.43391 3.72033 4.37906 4.14322 4.73429L6.00154 6.29528C6.02641 5.4507 6.3516 4.6354 6.92947 4.019ZM8 10.586V25.6C8 25.9914 8.14636 26.3548 8.38855 26.6131C8.62869 26.8693 8.94007 27 9.25 27H22.75C23.0599 27 23.3713 26.8693 23.6115 26.6131C23.8536 26.3548 24 25.9914 24 25.6V24.026L8 10.586ZM24 21.414L8 7.97399V6.4C8 6.00862 8.14636 5.64522 8.38855 5.38688C8.62869 5.13074 8.94007 5 9.25 5H16V12.5C16 13.0523 16.4477 13.5 17 13.5H24V21.414ZM18 11.5H22.7855L18 6.39545V11.5Z" fill="#393939"/>
</g>
</svg>
