<svg width="32" height="32" viewBox="0 0 32 32" fill="none" xmlns="http://www.w3.org/2000/svg" role="img" aria-label="No Extra Charge" data-icon="noextracharge" data-category="general">
  <title>No Extra Charge</title>
  <desc>general icon from Comcast Business Design System</desc>
<g id="No Extra Charge">
<path id="shape" fill-rule="evenodd" clip-rule="evenodd" d="M16 2C8.26801 2 2 8.26801 2 16C2 23.732 8.26801 30 16 30C23.732 30 30 23.732 30 16C30 8.26801 23.732 2 16 2ZM8.25116 6.83695C10.3418 5.06716 13.0463 4 16 4C22.6274 4 28 9.37258 28 16C28 18.9537 26.9328 21.6582 25.1631 23.7488L22.4462 21.032C22.7981 20.4365 23 19.7418 23 19C23 16.7909 21.2091 15 19 15H16.4142L12.482 11.0677C12.6472 11.0236 12.8208 11 13 11H20C20.5523 11 21 10.5523 21 10C21 9.44772 20.5523 9 20 9H17V7C17 6.44772 16.5523 6 16 6C15.4477 6 15 6.44772 15 7V9H13C12.2582 9 11.5635 9.20193 10.968 9.55382L8.25116 6.83695ZM6.83695 8.25116C5.06716 10.3418 4 13.0463 4 16C4 22.6274 9.37258 28 16 28C18.9537 28 21.6582 26.9328 23.7488 25.1631L21.032 22.4462C20.4365 22.7981 19.7418 23 19 23H17V25C17 25.5523 16.5523 26 16 26C15.4477 26 15 25.5523 15 25V23H11C10.4477 23 10 22.5523 10 22C10 21.4477 10.4477 21 11 21H19C19.1792 21 19.3528 20.9764 19.518 20.9323L15.5858 17H13C10.7909 17 9 15.2091 9 13C9 12.2582 9.20193 11.5635 9.55382 10.968L6.83695 8.25116ZM11 13C11 12.8208 11.0236 12.6472 11.0677 12.482L13.5858 15H13C11.8954 15 11 14.1046 11 13ZM20.9323 19.518L18.4142 17H19C20.1046 17 21 17.8954 21 19C21 19.1792 20.9764 19.3528 20.9323 19.518Z" fill="#15172B"/>
</g>
</svg>
