<svg width="20" height="20" viewBox="0 0 20 20" fill="none" xmlns="http://www.w3.org/2000/svg" role="img" aria-label="Property 1=Variant3" data-icon="property1variant3" data-category="general">
  <title>Property 1=Variant3</title>
  <desc>general icon from Comcast Business Design System</desc>
<g id="Property 1=Variant3" clip-path="url(#clip0_5135_51189)">
<path id="Vector" d="M19.4988 3.17857C17.6434 2.65994 17.3718 2.38507 16.8593 0.507242C16.77 0.180615 16.477 -0.0452881 16.1422 -0.0452881C15.8074 -0.0452881 15.5144 0.180615 15.4252 0.507242C14.9127 2.38507 14.642 2.65992 12.7856 3.17857C12.4629 3.26893 12.2397 3.56543 12.2397 3.90428C12.2397 4.24312 12.4629 4.53963 12.7856 4.62999C14.6411 5.14862 14.9127 5.42254 15.4252 7.30131C15.5144 7.62794 15.8074 7.85384 16.1422 7.85384C16.477 7.85384 16.77 7.62794 16.8593 7.30131C17.3718 5.42348 17.6434 5.14864 19.4988 4.62999C19.8216 4.53963 20.0448 4.24312 20.0448 3.90428C20.0448 3.56543 19.8216 3.26893 19.4988 3.17857ZM16.1422 5.01686C15.8604 4.53869 15.5153 4.18854 15.0428 3.90428C15.5153 3.61907 15.8613 3.26987 16.1422 2.79076C16.424 3.26893 16.769 3.61907 17.2424 3.90428C16.7699 4.18948 16.424 4.53869 16.1422 5.01686Z" fill="white"/>
<path id="Vector_2" d="M18.9862 15.7803L14.5536 11.7668C15.0419 10.9008 15.3776 9.93411 15.5115 8.89592C15.5645 8.48365 15.2771 8.10527 14.8698 8.05254C14.4605 7.99701 14.0885 8.28974 14.0364 8.70201C13.63 11.8721 10.9357 14.262 7.76883 14.262C4.28121 14.262 1.44454 11.3912 1.44454 7.86153C1.44454 4.33189 4.28121 1.46105 7.76883 1.46105C8.97233 1.46105 10.1442 1.80556 11.1562 2.45785C11.5031 2.68187 11.9635 2.57739 12.183 2.22629C12.4034 1.87521 12.3011 1.41022 11.9542 1.18714C10.7023 0.381403 9.25515 -0.0449829 7.76801 -0.0449829C3.45991 -0.0449829 -0.0443726 3.50176 -0.0443726 7.86152C-0.0443726 12.2213 3.46015 15.768 7.76801 15.768C9.1631 15.768 10.4802 15.3868 11.6249 14.7261L15.5935 19.214C16.0315 19.7101 16.6603 20.0056 17.3178 20.0235C17.3401 20.0244 17.3615 20.0244 17.3839 20.0244C18.0182 20.0244 18.6348 19.7665 19.084 19.3119C19.549 18.8413 19.8048 18.1899 19.7871 17.5244C19.7694 16.859 19.4774 16.2236 18.9873 15.7793L18.9862 15.7803ZM18.0301 18.2472C17.8506 18.4289 17.6116 18.5174 17.3577 18.5183C17.1038 18.5108 16.8703 18.4016 16.701 18.2096L12.8506 13.8544C13.151 13.5937 13.4291 13.3076 13.6876 13.0035L17.9938 16.9023C18.1835 17.0736 18.2914 17.3099 18.2979 17.5669C18.3054 17.8238 18.2096 18.0656 18.0301 18.2472Z" fill="white"/>
</g>
<defs>
<clipPath id="clip0_5135_51189">
<rect width="20" height="20" fill="white"/>
</clipPath>
</defs>
</svg>
