<svg width="32" height="32" viewBox="0 0 32 32" fill="none" xmlns="http://www.w3.org/2000/svg" role="img" aria-label="Report" data-icon="report" data-category="data">
  <title>Report</title>
  <desc>data icon from Comcast Business Design System</desc>
<g id="Report">
<path id="shape" fill-rule="evenodd" clip-rule="evenodd" d="M6.92947 4.019C7.53325 3.37498 8.36646 3 9.25 3H17.125C17.4014 3 17.6655 3.11441 17.8545 3.31606L25.7295 11.7161C25.9033 11.9014 26 12.1459 26 12.4V25.6C26 26.4817 25.6723 27.3392 25.0705 27.981C24.4668 28.625 23.6335 29 22.75 29H9.25C8.36646 29 7.53325 28.625 6.92947 27.981C6.32775 27.3392 6 26.4817 6 25.6V6.4C6 5.51834 6.32775 4.66084 6.92947 4.019ZM9.25 5H16V12.5C16 13.0523 16.4477 13.5 17 13.5H24V25.6C24 25.9914 23.8536 26.3548 23.6115 26.6131C23.3713 26.8693 23.0599 27 22.75 27H9.25C8.94007 27 8.62869 26.8693 8.38855 26.6131C8.14636 26.3548 8 25.9914 8 25.6V6.4C8 6.00862 8.14636 5.64522 8.38855 5.38688C8.62869 5.13074 8.94007 5 9.25 5ZM18 11.5H22.7855L18 6.39545V11.5ZM14.25 17C14.6642 17 15 17.3358 15 17.75V24.25C15 24.6642 14.6642 25 14.25 25C13.8358 25 13.5 24.6642 13.5 24.25V17.75C13.5 17.3358 13.8358 17 14.25 17ZM10.75 19C11.1642 19 11.5 19.3358 11.5 19.75V24.25C11.5 24.6642 11.1642 25 10.75 25C10.3358 25 10 24.6642 10 24.25V19.75C10 19.3358 10.3358 19 10.75 19ZM18.5 22.75C18.5 22.3358 18.1642 22 17.75 22C17.3358 22 17 22.3358 17 22.75V24.25C17 24.6642 17.3358 25 17.75 25C18.1642 25 18.5 24.6642 18.5 24.25V22.75ZM21.25 20C21.6642 20 22 20.3358 22 20.75V24.25C22 24.6642 21.6642 25 21.25 25C20.8358 25 20.5 24.6642 20.5 24.25V20.75C20.5 20.3358 20.8358 20 21.25 20Z" fill="#15172B"/>
</g>
</svg>
