<svg width="32" height="32" viewBox="0 0 32 32" fill="none" xmlns="http://www.w3.org/2000/svg" role="img" aria-label="Search" data-icon="search" data-category="general">
  <title>Search</title>
  <desc>general icon from Comcast Business Design System</desc>
<g id="Search">
<path id="shape" fill-rule="evenodd" clip-rule="evenodd" d="M5 14.6667C5 9.32791 9.32791 5 14.6667 5C20.0054 5 24.3333 9.32791 24.3333 14.6667C24.3333 17.281 23.2955 19.6529 21.6094 21.3929C21.5688 21.4228 21.5299 21.4561 21.4931 21.4928C21.4563 21.5296 21.423 21.5685 21.3932 21.6092C19.6531 23.2954 17.2811 24.3333 14.6667 24.3333C9.32791 24.3333 5 20.0054 5 14.6667ZM22.1791 23.5931C20.1494 25.303 17.5284 26.3333 14.6667 26.3333C8.22334 26.3333 3 21.11 3 14.6667C3 8.22334 8.22334 3 14.6667 3C21.11 3 26.3333 8.22334 26.3333 14.6667C26.3333 17.5282 25.3031 20.1492 23.5933 22.1788L28.7073 27.2928C29.0978 27.6834 29.0978 28.3165 28.7073 28.7071C28.3168 29.0976 27.6836 29.0976 27.2931 28.7071L22.1791 23.5931Z" fill="#15172B"/>
</g>
</svg>
