<svg width="32" height="32" viewBox="0 0 32 32" fill="none" xmlns="http://www.w3.org/2000/svg" role="img" aria-label="Shared Data" data-icon="shareddata" data-category="social">
  <title>Shared Data</title>
  <desc>social icon from Comcast Business Design System</desc>
<g id="Shared Data">
<g id="shape">
<path fill-rule="evenodd" clip-rule="evenodd" d="M10.6539 24.741C12.149 25.8469 13.9974 26.5 15.9999 26.5C16.7784 26.5 17.5324 26.4014 18.2507 26.2165C18.7855 26.0789 19.3307 26.4008 19.4684 26.9357C19.606 27.4706 19.284 28.0157 18.7492 28.1534C17.8694 28.3798 16.948 28.5 15.9999 28.5C13.3965 28.5 11.0027 27.5945 9.11898 26.0826C7.24218 27.017 4.93798 26.3404 3.87543 24.5C2.77086 22.5868 3.42636 20.1405 5.33953 19.0359C7.2527 17.9313 9.69907 18.5868 10.8036 20.5C11.5944 21.8697 11.4831 23.5128 10.6539 24.741ZM8.33954 24.2321C7.38295 24.7843 6.15977 24.4566 5.60748 23.5C5.0552 22.5434 5.38295 21.3202 6.33953 20.768C7.29612 20.2157 8.5193 20.5434 9.07159 21.5C9.62387 22.4566 9.29612 23.6798 8.33954 24.2321Z" fill="#15172B"/>
<path fill-rule="evenodd" clip-rule="evenodd" d="M12.0078 7.24709C12.1383 5.15578 13.8758 3.5 15.9999 3.5C18.2091 3.5 19.9999 5.29086 19.9999 7.5C19.9999 9.70914 18.2091 11.5 15.9999 11.5C14.4176 11.5 13.0499 10.5812 12.4011 9.24809C10.0326 10.2827 8.19422 12.3085 7.41178 14.7997C7.24629 15.3266 6.68499 15.6195 6.15808 15.4541C5.63118 15.2886 5.33819 14.7273 5.50368 14.2004C6.50491 11.0126 8.91613 8.45164 12.0078 7.24709ZM13.9999 7.5C13.9999 6.39543 14.8954 5.5 15.9999 5.5C17.1045 5.5 17.9999 6.39543 17.9999 7.5C17.9999 8.60457 17.1045 9.5 15.9999 9.5C14.8954 9.5 13.9999 8.60457 13.9999 7.5Z" fill="#15172B"/>
<path fill-rule="evenodd" clip-rule="evenodd" d="M24.3592 10.3497C24 9.93012 23.3687 9.88119 22.9492 10.2404C22.5296 10.5995 22.4807 11.2308 22.8399 11.6503C24.1871 13.224 24.9999 15.2658 24.9999 17.5C24.9999 17.8414 24.981 18.1781 24.9441 18.5092C23.4657 18.4052 21.9871 19.1302 21.1963 20.5C20.0917 22.4132 20.7472 24.8595 22.6604 25.9641C24.5735 27.0687 27.0199 26.4132 28.1245 24.5C29.1868 22.6599 28.621 20.3266 26.8741 19.1683C26.957 18.6238 26.9999 18.0666 26.9999 17.5C26.9999 14.7711 26.0049 12.272 24.3592 10.3497ZM26.3924 23.5C26.9447 22.5434 26.6169 21.3202 25.6604 20.7679C24.7038 20.2157 23.4806 20.5434 22.9283 21.5C22.376 22.4566 22.7038 23.6798 23.6604 24.232C24.6169 24.7843 25.8401 24.4566 26.3924 23.5Z" fill="#15172B"/>
</g>
</g>
</svg>
