<svg width="20" height="20" viewBox="0 0 20 20" fill="none" xmlns="http://www.w3.org/2000/svg" role="img" aria-label="size=20x20" data-icon="size20x20" data-category="general">
  <title>size=20x20</title>
  <desc>general icon from Comcast Business Design System</desc>
<g id="size=20x20">
<path id="shape" fill-rule="evenodd" clip-rule="evenodd" d="M10.625 2.5C10.625 2.15482 10.3452 1.875 10 1.875C9.65482 1.875 9.375 2.15482 9.375 2.5V10.9912L6.06695 7.68306C5.82287 7.43898 5.42714 7.43898 5.18306 7.68305C4.93898 7.92713 4.93898 8.32286 5.18305 8.56694L9.55795 12.9419C9.58086 12.9648 9.60536 12.9858 9.63119 13.0046C9.73457 13.0803 9.86207 13.125 10 13.125C10.1764 13.125 10.3358 13.0519 10.4495 12.9343L14.8169 8.56694C15.0609 8.32287 15.0609 7.92714 14.8169 7.68306C14.5728 7.43898 14.1771 7.43898 13.933 7.68306L10.625 10.991V2.5ZM2.5 11.875C2.84518 11.875 3.125 12.1548 3.125 12.5V15.8333C3.125 16.1096 3.23475 16.3746 3.4301 16.5699C3.62545 16.7653 3.8904 16.875 4.16667 16.875H15.8333C16.1096 16.875 16.3746 16.7653 16.5699 16.5699C16.7653 16.3746 16.875 16.1096 16.875 15.8333V12.5C16.875 12.1548 17.1548 11.875 17.5 11.875C17.8452 11.875 18.125 12.1548 18.125 12.5V15.8333C18.125 16.4411 17.8836 17.024 17.4538 17.4538C17.024 17.8836 16.4411 18.125 15.8333 18.125H4.16667C3.55888 18.125 2.97598 17.8836 2.54621 17.4538C2.11644 17.024 1.875 16.4411 1.875 15.8333V12.5C1.875 12.1548 2.15482 11.875 2.5 11.875Z" fill="#15172B"/>
</g>
</svg>
