<svg width="16" height="16" viewBox="0 0 16 16" fill="none" xmlns="http://www.w3.org/2000/svg" role="img" aria-label="Size=XS - 16" data-icon="sizexs16" data-category="general">
  <title>Size=XS - 16</title>
  <desc>general icon from Comcast Business Design System</desc>
<g id="Size=XS - 16">
<g id="Icon">
<path id="shape" fill-rule="evenodd" clip-rule="evenodd" d="M12.3536 2.26777C12.525 2.09632 12.7575 2 13 2C13.2425 2 13.475 2.09632 13.6464 2.26777C13.8179 2.43922 13.9142 2.67175 13.9142 2.91421C13.9142 3.15668 13.8179 3.38921 13.6464 3.56066L7.41104 9.79607L5.68718 10.227L6.11815 8.50317L12.3536 2.26777ZM13 1C12.4923 1 12.0054 1.20168 11.6464 1.56066L5.31311 7.89399C5.24903 7.95807 5.20357 8.03836 5.1816 8.12628L4.51493 10.7929C4.47233 10.9633 4.52226 11.1436 4.64645 11.2678C4.77064 11.392 4.95088 11.4419 5.12127 11.3993L7.78793 10.7326C7.87585 10.7106 7.95614 10.6652 8.02022 10.6011L14.3536 4.26777C14.7125 3.90878 14.9142 3.4219 14.9142 2.91421C14.9142 2.40653 14.7125 1.91964 14.3536 1.56066C13.9946 1.20168 13.5077 1 13 1ZM2.83333 2C2.3471 2 1.88079 2.19315 1.53697 2.53697C1.19315 2.88079 1 3.3471 1 3.83333V3.83335L1.00022 13.1666C1.00022 13.6529 1.19338 14.1192 1.53719 14.463C1.88101 14.8068 2.34733 15 2.83356 15H12.1669C12.6531 15 13.1194 14.8068 13.4633 14.463C13.8071 14.1192 14.0002 13.6529 14.0002 13.1666V8.66665C14.0002 8.39051 13.7764 8.16665 13.5002 8.16665C13.2241 8.16665 13.0002 8.39051 13.0002 8.66665V13.1666C13.0002 13.3876 12.9124 13.5996 12.7561 13.7559C12.5999 13.9122 12.3879 14 12.1669 14H2.83356C2.61254 14 2.40058 13.9122 2.2443 13.7559C2.08802 13.5996 2.00022 13.3876 2.00022 13.1666L2 3.83333V3.83332C2 3.61231 2.0878 3.40036 2.24408 3.24408C2.40036 3.0878 2.61232 3 2.83333 3H7.33323C7.60937 3 7.83323 2.77614 7.83323 2.5C7.83323 2.22386 7.60937 2 7.33323 2H2.83333Z" fill="#15172B"/>
</g>
</g>
</svg>
