<svg width="32" height="32" viewBox="0 0 32 32" fill="none" xmlns="http://www.w3.org/2000/svg" role="img" aria-label="State=Ascending" data-icon="stateascending" data-category="general">
  <title>State=Ascending</title>
  <desc>general icon from Comcast Business Design System</desc>
<g id="State=Ascending">
<path id="Union" d="M2.29273 9.70704C1.92662 9.34092 1.90402 8.76192 2.22437 8.36915L2.29273 8.29298L7.29273 3.29298L7.36793 3.22462C7.55147 3.07505 7.78334 2.99464 8.02223 3.00001C8.26101 3.00548 8.48926 3.09632 8.66578 3.25391L8.73805 3.32618C8.73844 3.32661 8.74012 3.3272 8.74098 3.32813C8.74309 3.33044 8.74686 3.33458 8.75172 3.33985C8.76144 3.3504 8.77673 3.36721 8.79762 3.38966C8.83965 3.43484 8.90411 3.50486 8.99391 3.59962C9.17384 3.78949 9.45393 4.08087 9.84742 4.48243C10.6345 5.28564 11.8779 6.52896 13.6941 8.28028C14.0915 8.66366 14.1028 9.29684 13.7195 9.69434C13.3361 10.0917 12.7029 10.103 12.3054 9.71973C10.87 8.33554 9.78692 7.26346 8.99976 6.47071L8.99977 28C8.99977 28.5523 8.55205 29 7.99977 29C7.44748 29 6.99977 28.5523 6.99977 28L6.99976 6.41407L3.7068 9.70704L3.63062 9.7754C3.23785 10.0957 2.65885 10.0732 2.29273 9.70704Z" fill="#15172B"/>
<path id="Union_2" opacity="0.25" d="M18.2927 22.293C17.9266 22.6591 17.904 23.2381 18.2244 23.6309L18.2927 23.707L23.2927 28.707C23.4858 28.9001 23.7493 29.0061 24.0222 29C24.261 28.9945 24.4893 28.9037 24.6658 28.7461L24.738 28.6738C24.7384 28.6734 24.7401 28.6728 24.741 28.6719C24.7431 28.6696 24.7469 28.6654 24.7517 28.6602C24.7614 28.6496 24.7767 28.6328 24.7976 28.6104C24.8397 28.5652 24.9041 28.4951 24.9939 28.4004C25.1738 28.2105 25.4539 27.9191 25.8474 27.5176C26.6345 26.7144 27.8779 25.4711 29.6941 23.7197C30.0915 23.3364 30.1028 22.7032 29.7195 22.3057C29.3361 21.9083 28.7029 21.897 28.3054 22.2803C26.87 23.6645 25.7869 24.7366 24.9998 25.5293L24.9998 4C24.9998 3.44772 24.5521 3 23.9998 3C23.4475 3 22.9998 3.44772 22.9998 4L22.9998 25.5859L19.7068 22.293L19.6306 22.2246C19.2379 21.9043 18.6588 21.9269 18.2927 22.293Z" fill="#15172B"/>
</g>
</svg>
