<svg width="32" height="32" viewBox="0 0 32 32" fill="none" xmlns="http://www.w3.org/2000/svg" role="img" aria-label="Type=toast timer, color=true" data-icon="typetoasttimercolortrue" data-category="time">
  <title>Type=toast timer, color=true</title>
  <desc>time icon from Comcast Business Design System</desc>
<g id="Type=toast timer, color=true">
<path id="Union" d="M15.5333 0.00681358C19.1334 -0.0982632 22.6635 1.01461 25.5528 3.16499L24.0313 5.20795C27.3882 7.62921 29.5858 11.5563 29.6348 15.9999H32C32 19.6016 30.7847 23.0983 28.5508 25.9236C26.3169 28.7488 23.195 30.7374 19.6905 31.5681C16.1859 32.3988 12.5028 32.0228 9.23845 30.5007C5.97427 28.9787 3.31895 26.3999 1.70237 23.1815C0.085724 19.9629 -0.397774 16.2929 0.330306 12.7655C1.0584 9.23809 2.95611 6.0595 5.71503 3.74409C8.47391 1.42883 11.9332 0.111922 15.5333 0.00681358Z" fill="white"/>
<g id="Icon">
<path id="pending" fill-rule="evenodd" clip-rule="evenodd" d="M29.9998 15.9999C29.9998 23.7318 23.7318 29.9998 15.9999 29.9998C8.26795 29.9998 1.99999 23.7318 1.99999 15.9999C1.99999 8.26795 8.26795 1.99999 15.9999 1.99999C23.7318 1.99999 29.9998 8.26795 29.9998 15.9999ZM9.99993 17.9999C11.1045 17.9999 11.9999 17.1044 11.9999 15.9999C11.9999 14.8953 11.1045 13.9999 9.99993 13.9999C8.89537 13.9999 7.99994 14.8953 7.99994 15.9999C7.99994 17.1044 8.89537 17.9999 9.99993 17.9999ZM15.9999 17.9999C17.1044 17.9999 17.9999 17.1044 17.9999 15.9999C17.9999 14.8953 17.1044 13.9999 15.9999 13.9999C14.8953 13.9999 13.9999 14.8953 13.9999 15.9999C13.9999 17.1044 14.8953 17.9999 15.9999 17.9999ZM23.9998 15.9999C23.9998 17.1044 23.1044 17.9999 21.9998 17.9999C20.8953 17.9999 19.9999 17.1044 19.9999 15.9999C19.9999 14.8953 20.8953 13.9999 21.9998 13.9999C23.1044 13.9999 23.9998 14.8953 23.9998 15.9999Z" fill="#FFA701"/>
</g>
</g>
</svg>
