<svg width="32" height="32" viewBox="0 0 32 32" fill="none" xmlns="http://www.w3.org/2000/svg" role="img" aria-label="Type=Filled, toast timer=false" data-icon="typefilledtoasttimerfalse" data-category="time">
  <title>Type=Filled, toast timer=false</title>
  <desc>time icon from Comcast Business Design System</desc>
<g id="Type=Filled, toast timer=false">
<path id="shape" fill-rule="evenodd" clip-rule="evenodd" d="M16 2C23.732 2 30 8.26801 30 16C30 23.732 23.732 30 16 30C8.26801 30 2 23.732 2 16C2 8.26801 8.26801 2 16 2ZM14.5 10C14.5 9.17157 15.1716 8.5 16 8.5C16.8284 8.5 17.5 9.17157 17.5 10C17.5 10.8284 16.8284 11.5 16 11.5C15.1716 11.5 14.5 10.8284 14.5 10ZM14.5 22C14.5 22.8284 15.1716 23.5 16 23.5C16.8284 23.5 17.5 22.8284 17.5 22L17.5 15.5C17.5 14.6716 16.8284 14 16 14C15.1716 14 14.5 14.6716 14.5 15.5L14.5 22Z" fill="#15172B"/>
</g>
</svg>
