<svg width="32" height="32" viewBox="0 0 32 32" fill="none" xmlns="http://www.w3.org/2000/svg" role="img" aria-label="Variant=Call Complete, Type=Filled" data-icon="variantcallcompletetypefilled" data-category="communication">
  <title>Variant=Call Complete, Type=Filled</title>
  <desc>communication icon from Comcast Business Design System</desc>
<g id="Variant=Call Complete, Type=Filled">
<path id="shape" fill-rule="evenodd" clip-rule="evenodd" d="M24.5 3C22.0147 3 20 5.01472 20 7.5C20 9.98528 22.0147 12 24.5 12C26.9853 12 29 9.98528 29 7.5C29 5.01472 26.9853 3 24.5 3ZM18 7.5C18 3.91015 20.9101 1 24.5 1C28.0899 1 31 3.91015 31 7.5C31 11.0899 28.0899 14 24.5 14C20.9101 14 18 11.0899 18 7.5ZM1.97128 6.5054C1.70435 3.81193 4.01598 2 6.41784 2H9.96338C11.3225 2 12.5119 2.91375 12.8621 4.22701L14.1691 9.12817C14.4449 10.1625 14.1486 11.2655 13.3917 12.0225L12.2035 13.2106C12.3198 13.4377 12.4743 13.7219 12.6699 14.048C13.1998 14.9312 14.0266 16.1124 15.207 17.2929C16.3852 18.4711 17.4309 19.1636 18.1615 19.557C18.3869 19.6784 18.5828 19.7716 18.7438 19.8418L19.9775 18.6082C20.7344 17.8513 21.8374 17.555 22.8717 17.8309L27.7729 19.1378C29.0862 19.4881 29.9999 20.6774 29.9999 22.0366L29.9999 25.5821C29.9999 27.9839 28.1879 30.2955 25.4945 30.0286C21.3365 29.6165 15.2899 27.7043 9.79275 22.2071C4.29558 16.7099 2.38334 10.6634 1.97128 6.5054ZM27.7071 6.70711C28.0976 6.31658 28.0976 5.68342 27.7071 5.29289C27.3166 4.90237 26.6834 4.90237 26.2929 5.29289L24 7.58579L23.2071 6.79289C22.8166 6.40237 22.1834 6.40237 21.7929 6.79289C21.4024 7.18342 21.4024 7.81658 21.7929 8.20711L23.2929 9.70711C23.4804 9.89464 23.7348 10 24 10C24.2652 10 24.5196 9.89464 24.7071 9.70711L27.7071 6.70711Z" fill="#15172B"/>
</g>
</svg>
