<svg width="32" height="32" viewBox="0 0 32 32" fill="none" xmlns="http://www.w3.org/2000/svg" role="img" aria-label="Variant=Operating, Type=Filled" data-icon="variantoperatingtypefilled" data-category="general">
  <title>Variant=Operating, Type=Filled</title>
  <desc>general icon from Comcast Business Design System</desc>
<g id="Variant=Operating, Type=Filled">
<path id="shape" fill-rule="evenodd" clip-rule="evenodd" d="M18.4142 1.88958C18.4752 1.34068 18.9696 0.945131 19.5185 1.00611C22.3071 1.3159 25.5497 2.21674 27.7148 4.37911C29.8873 6.54886 30.6906 9.70498 31.0019 12.475C31.0635 13.0238 30.6686 13.5187 30.1198 13.5804C29.571 13.6421 29.0761 13.2472 29.0144 12.6983C28.7177 10.0577 27.9814 7.47202 26.3015 5.79421C24.6142 4.10903 21.9205 3.28526 19.2977 2.99388C18.7488 2.9329 18.3533 2.43849 18.4142 1.88958ZM1.97128 6.50539C1.70435 3.81193 4.01598 2 6.41784 2H9.96338C11.3225 2 12.5119 2.91375 12.8621 4.22701L14.1691 9.12816C14.4449 10.1625 14.1486 11.2655 13.3917 12.0225L12.2035 13.2106C12.3198 13.4376 12.4743 13.7219 12.6699 14.048C13.1998 14.9312 14.0266 16.1124 15.207 17.2929C16.3852 18.4711 17.4309 19.1636 18.1615 19.557C18.3869 19.6784 18.5828 19.7715 18.7438 19.8418L19.9775 18.6082C20.7344 17.8513 21.8374 17.555 22.8717 17.8309L27.7729 19.1378C29.0862 19.4881 29.9999 20.6774 29.9999 22.0366L29.9999 25.5821C29.9999 27.9839 28.1879 30.2955 25.4945 30.0286C21.3365 29.6165 15.2899 27.7043 9.79275 22.2071C4.29558 16.7099 2.38334 10.6634 1.97128 6.50539ZM19.0935 6.89517C19.1992 6.35311 19.7244 5.99941 20.2665 6.10517C21.7588 6.39633 22.926 7.0035 24.0087 8.08625C25.1037 9.1812 25.702 10.4209 25.9896 11.8952C26.0954 12.4372 25.7417 12.9624 25.1996 13.0682C24.6576 13.1739 24.1324 12.8202 24.0266 12.2782C23.8061 11.1478 23.3761 10.282 22.5945 9.50046C21.8008 8.70674 20.9958 8.28517 19.8835 8.06816C19.3414 7.9624 18.9877 7.43723 19.0935 6.89517Z" fill="#15172B"/>
</g>
</svg>
