<svg width="32" height="32" viewBox="0 0 32 32" fill="none" xmlns="http://www.w3.org/2000/svg" role="img" aria-label="Variant=Enabled" data-icon="variantenabled" data-category="general">
  <title>Variant=Enabled</title>
  <desc>general icon from Comcast Business Design System</desc>
<g id="Variant=Enabled">
<path id="shape" fill-rule="evenodd" clip-rule="evenodd" d="M18.38 1.07501C18.7859 1.24174 19.0356 1.65356 18.9959 2.09053L18.095 12H28C28.387 12 28.7392 12.2233 28.9044 12.5732C29.0695 12.9232 29.0179 13.337 28.7719 13.6357L14.7719 30.6357C14.493 30.9744 14.0259 31.0917 13.62 30.925C13.2142 30.7583 12.9644 30.3464 13.0041 29.9095L13.905 20H4.00001C3.61304 20 3.26081 19.7767 3.09566 19.4268C2.93051 19.0768 2.98208 18.663 3.22808 18.3643L17.2281 1.36429C17.507 1.02559 17.9741 0.908277 18.38 1.07501ZM6.11899 18H15C15.281 18 15.549 18.1182 15.7384 18.3257C15.9279 18.5331 16.0213 18.8107 15.9959 19.0905L15.2895 26.8612L25.881 14H17C16.7191 14 16.4511 13.8818 16.2616 13.6743C16.0721 13.4669 15.9787 13.1893 16.0041 12.9095L16.7105 5.13884L6.11899 18Z" fill="#15172B"/>
</g>
</svg>
