<svg width="32" height="32" viewBox="0 0 32 32" fill="none" xmlns="http://www.w3.org/2000/svg" role="img" aria-label="Variant=Mic On" data-icon="variantmicon" data-category="general">
  <title>Variant=Mic On</title>
  <desc>general icon from Comcast Business Design System</desc>
<g id="Variant=Mic On">
<path id="shape" fill-rule="evenodd" clip-rule="evenodd" d="M16 2C14.7025 2 13.4416 2.46854 12.4982 3.32763C11.5518 4.18955 11 5.37971 11 6.64286V16.3571C11 17.6203 11.5518 18.8104 12.4982 19.6724C13.4416 20.5315 14.7025 21 16 21C17.2975 21 18.5584 20.5315 19.5018 19.6724C20.4482 18.8104 21 17.6203 21 16.3571V6.64286C21 5.37971 20.4482 4.18955 19.5018 3.32763C18.5584 2.46854 17.2975 2 16 2ZM13.8449 4.80631C14.4019 4.29906 15.1757 4 16 4C16.8243 4 17.5981 4.29906 18.1551 4.80631C18.709 5.31072 19 5.97371 19 6.64286V16.3571C19 17.0263 18.709 17.6893 18.1551 18.1937C17.5981 18.7009 16.8243 19 16 19C15.1757 19 14.4019 18.7009 13.8449 18.1937C13.291 17.6893 13 17.0263 13 16.3571V6.64286C13 5.97371 13.291 5.31072 13.8449 4.80631ZM8 13C8 12.4477 7.55228 12 7 12C6.44772 12 6 12.4477 6 13V15.6667C6 18.3957 7.04506 21.02 8.91619 22.9605C10.5527 24.6576 12.7049 25.7101 15 25.9483V28H10C9.44772 28 9 28.4477 9 29C9 29.5523 9.44772 30 10 30H16H22C22.5523 30 23 29.5523 23 29C23 28.4477 22.5523 28 22 28H17V25.9483C19.2951 25.7101 21.4473 24.6576 23.0838 22.9605C24.9549 21.02 26 18.3957 26 15.6667V13C26 12.4477 25.5523 12 25 12C24.4477 12 24 12.4477 24 13V15.6667C24 17.8883 23.1486 20.012 21.6441 21.5722C20.1408 23.1312 18.1098 24 16 24C13.8902 24 11.8592 23.1312 10.3559 21.5722C8.85136 20.012 8 17.8883 8 15.6667V13Z" fill="#15172B"/>
</g>
</svg>
