<svg width="32" height="32" viewBox="0 0 32 32" fill="none" xmlns="http://www.w3.org/2000/svg" role="img" aria-label="Variant=Low Volume" data-icon="variantlowvolume" data-category="media">
  <title>Variant=Low Volume</title>
  <desc>media icon from Comcast Business Design System</desc>
<g id="Variant=Low Volume">
<path id="shape" fill-rule="evenodd" clip-rule="evenodd" d="M15.4472 6.10557C15.786 6.27496 16 6.62123 16 7V25C16 25.3788 15.786 25.725 15.4472 25.8944C15.1084 26.0638 14.703 26.0273 14.4 25.8L8 21H3C2.44772 21 2 20.5523 2 20V12C2 11.4477 2.44772 11 3 11H8L14.4 6.2C14.703 5.97274 15.1084 5.93618 15.4472 6.10557ZM21.4274 10.293C21.037 9.90241 20.4038 9.90232 20.0132 10.2928C19.6226 10.6832 19.6225 11.3164 20.013 11.707C21.047 12.7414 21.6721 14.4478 21.6721 15.9933C21.6721 17.5408 21.0458 19.2599 20.013 20.293C19.6225 20.6836 19.6226 21.3167 20.0132 21.7072C20.4038 22.0977 21.037 22.0976 21.4274 21.707C22.8942 20.2398 23.6721 17.9814 23.6721 15.9933C23.6721 14.0033 22.893 11.759 21.4274 10.293Z" fill="#15172B"/>
</g>
</svg>
