<svg width="32" height="32" viewBox="0 0 32 32" fill="none" xmlns="http://www.w3.org/2000/svg" role="img" aria-label="Variant=Twitter" data-icon="varianttwitter" data-category="social">
  <title>Variant=Twitter</title>
  <desc>social icon from Comcast Business Design System</desc>
<g id="Variant=Twitter">
<path id="shape" fill-rule="evenodd" clip-rule="evenodd" d="M29 16C29 23.1797 23.1797 29 16 29C8.8203 29 3 23.1797 3 16C3 8.8203 8.8203 3 16 3C23.1797 3 29 8.8203 29 16ZM22.5388 13.9395C22.5388 18.08 19.3863 22.8575 13.6208 22.8575C11.8528 22.8575 10.2018 22.3375 8.83032 21.4405C9.07732 21.473 9.32432 21.486 9.57782 21.486C11.0468 21.486 12.3988 20.9855 13.4713 20.147C12.0998 20.121 10.9428 19.2175 10.5463 17.9695C10.7413 18.0085 10.9363 18.028 11.1378 18.028C11.4238 18.028 11.7033 17.989 11.9633 17.9175C10.5268 17.625 9.44782 16.364 9.44782 14.843V14.804C9.87032 15.038 10.3513 15.181 10.8648 15.194C10.0198 14.635 9.46732 13.673 9.46732 12.5875C9.46732 12.0155 9.62332 11.476 9.88982 11.0145C11.4368 12.9125 13.7443 14.1605 16.3508 14.2905C16.2923 14.063 16.2663 13.8225 16.2663 13.5755C16.2663 11.8465 17.6703 10.4425 19.3993 10.4425C20.3028 10.4425 21.1153 10.8195 21.6873 11.4305C22.4023 11.2875 23.0718 11.0275 23.6763 10.67C23.4423 11.4045 22.9483 12.0155 22.2983 12.4055C22.9353 12.3275 23.5398 12.1585 24.0988 11.9115C23.6763 12.542 23.1433 13.0945 22.5323 13.5365C22.5388 13.6665 22.5388 13.803 22.5388 13.9395Z" fill="#15172B"/>
</g>
</svg>
