<svg width="32" height="32" viewBox="0 0 32 32" fill="none" xmlns="http://www.w3.org/2000/svg" role="img" aria-label="Variant=Shown" data-icon="variantshown" data-category="general">
  <title>Variant=Shown</title>
  <desc>general icon from Comcast Business Design System</desc>
<g id="Variant=Shown">
<path id="shape" fill-rule="evenodd" clip-rule="evenodd" d="M3.15288 17.1242C2.85404 16.6615 2.62582 16.2746 2.47065 16C2.62582 15.7255 2.85404 15.3386 3.15288 14.8759C3.77536 13.9121 4.69768 12.6294 5.89655 11.3506C8.31253 8.7736 11.7332 6.33337 16.0003 6.33337C20.2675 6.33337 23.6882 8.7736 26.1041 11.3506C27.303 12.6294 28.2253 13.9121 28.8478 14.8759C29.1466 15.3386 29.3749 15.7255 29.53 16C29.3749 16.2746 29.1466 16.6615 28.8478 17.1242C28.2253 18.088 27.303 19.3706 26.1041 20.6494C23.6882 23.2265 20.2675 25.6667 16.0003 25.6667C11.7332 25.6667 8.31253 23.2265 5.89655 20.6494C4.69768 19.3706 3.77536 18.088 3.15288 17.1242ZM31.5611 15.5521C31.6626 15.7547 31.713 16.1449 31.5611 16.448L31.5606 16.449L31.5592 16.4517L31.555 16.4599L31.5408 16.4879C31.5286 16.5115 31.5113 16.5449 31.4887 16.5876C31.4436 16.6728 31.3776 16.7949 31.2912 16.9486C31.1184 17.2559 30.8631 17.6902 30.5279 18.2092C29.8587 19.2454 28.8643 20.6294 27.5632 22.0173C24.9792 24.7736 21.0665 27.6667 16.0003 27.6667C10.9342 27.6667 7.02149 24.7736 4.43747 22.0173C3.13634 20.6294 2.14199 19.2454 1.4728 18.2092C1.13759 17.6902 0.882334 17.2559 0.709498 16.9486C0.623042 16.7949 0.557096 16.6728 0.511974 16.5876C0.48941 16.5449 0.472043 16.5115 0.459911 16.4879L0.445643 16.4599L0.44146 16.4517L0.440109 16.449L0.439618 16.448C0.295091 16.1591 0.302505 15.8261 0.439618 15.5521L0.440109 15.5511L0.44146 15.5484L0.445643 15.5401L0.459911 15.5122C0.472043 15.4886 0.48941 15.4552 0.511974 15.4125C0.557096 15.3273 0.623042 15.2051 0.709498 15.0514C0.882334 14.7442 1.13759 14.3099 1.4728 13.7908C2.14199 12.7547 3.13634 11.3706 4.43747 9.98277C7.02149 7.22648 10.9342 4.33337 16.0003 4.33337C21.0665 4.33337 24.9792 7.22648 27.5632 9.98277C28.8643 11.3706 29.8587 12.7547 30.5279 13.7908C30.8631 14.3099 31.1184 14.7442 31.2912 15.0514C31.3776 15.2051 31.4436 15.3273 31.4887 15.4125C31.5113 15.4552 31.5286 15.4886 31.5408 15.5122L31.555 15.5401L31.5592 15.5484L31.5606 15.5511L31.5611 15.5521ZM0.439618 16.448C0.298854 16.1665 0.298854 15.8336 0.439618 15.5521C0.302505 15.8261 0.295091 16.1591 0.439618 16.448ZM31.5611 15.5521C31.7018 15.8336 31.7018 16.1665 31.5611 16.448C31.713 16.1449 31.6626 15.7547 31.5611 15.5521ZM13.0002 16C13.0002 14.3431 14.3433 13 16.0002 13C17.657 13 19.0002 14.3431 19.0002 16C19.0002 17.6569 17.657 19 16.0002 19C14.3433 19 13.0002 17.6569 13.0002 16ZM16.0002 11C13.2388 11 11.0002 13.2386 11.0002 16C11.0002 18.7614 13.2388 21 16.0002 21C18.7616 21 21.0002 18.7614 21.0002 16C21.0002 13.2386 18.7616 11 16.0002 11Z" fill="#15172B"/>
</g>
</svg>
