<svg width="32" height="32" viewBox="0 0 32 32" fill="none" xmlns="http://www.w3.org/2000/svg" role="img" aria-label="Variant=Mic Off" data-icon="variantmicoff" data-category="general">
  <title>Variant=Mic Off</title>
  <desc>general icon from Comcast Business Design System</desc>
<g id="Variant=Mic Off">
<path id="shape" fill-rule="evenodd" clip-rule="evenodd" d="M13.0705 2.87941C14.0662 2.21144 15.2854 1.91151 16.4936 2.02264C17.7019 2.1338 18.8395 2.65094 19.6785 3.49699C20.5198 4.34526 21.001 5.46629 21 6.64641C21 6.64637 21 6.64646 21 6.64641C21 6.64673 21 6.6472 21 6.64752L21 13.1305C21 13.6828 20.5523 14.1305 20 14.1305C19.4477 14.1305 19 13.6828 19 13.1305L19 6.64531C19.0007 6.0191 18.7467 5.39761 18.2584 4.90532C17.7678 4.41054 17.0759 4.08466 16.3104 4.01423C15.5447 3.9438 14.7863 4.1367 14.1847 4.54029C13.585 4.94261 13.194 5.51679 13.056 6.13549C12.9358 6.67454 12.4014 7.01409 11.8624 6.8939C11.3233 6.7737 10.9838 6.23929 11.1039 5.70024C11.3608 4.54833 12.0729 3.54866 13.0705 2.87941ZM4.29289 4.2929C4.68342 3.90238 5.31658 3.90238 5.70711 4.2929L27.7071 26.2929C28.0976 26.6834 28.0976 27.3166 27.7071 27.7071C27.3166 28.0976 26.6834 28.0976 26.2929 27.7071L22.294 23.7082C21.0559 24.7392 19.5897 25.4562 18.0141 25.7893C17.6778 25.8604 17.3393 25.9134 17 25.9485V28H22C22.5523 28 23 28.4477 23 29C23 29.5523 22.5523 30 22 30H9.99998C9.4477 30 8.99998 29.5523 8.99998 29C8.99998 28.4477 9.4477 28 9.99998 28H15V25.9485C14.0344 25.8487 13.0829 25.6045 12.1765 25.2189C10.3309 24.4339 8.75986 23.1003 7.66134 21.3942C6.56369 19.6894 5.98644 17.6887 6.00022 15.6481V13C6.00022 12.4477 6.44794 12 7.00022 12C7.55251 12 8.00022 12.4477 8.00022 13V15.6587C7.98847 17.3155 8.45717 18.9358 9.34292 20.3115C10.2285 21.6868 11.4891 22.7531 12.9594 23.3785C14.4292 24.0038 16.0449 24.1614 17.6005 23.8325C18.7932 23.5804 19.9117 23.0504 20.8724 22.2867L18.7941 20.2083C18.2385 20.5557 17.6136 20.7955 16.9574 20.9142C16.0056 21.0864 15.0184 20.9985 14.1169 20.6586C13.2151 20.3185 12.4295 19.7372 11.8693 18.9745C11.308 18.2105 11.0009 17.301 11 16.3614L11 12.4142L4.29289 5.70711C3.90237 5.31659 3.90237 4.68343 4.29289 4.2929ZM13 14.4142V16.3595C13 16.3593 13 16.3596 13 16.3595C13.0006 16.8597 13.1633 17.3579 13.4812 17.7906C13.8001 18.2248 14.2634 18.5764 14.8226 18.7872C15.382 18.9982 16.0022 19.0545 16.6013 18.9461C16.8519 18.9008 17.0919 18.8279 17.3167 18.7309L13 14.4142ZM25 12C25.5523 12 26 12.4477 26 13V15.6516C25.9995 16.2555 25.9472 16.8591 25.8438 17.4537C25.7491 17.9978 25.2313 18.3622 24.6871 18.2675C24.143 18.1728 23.7787 17.655 23.8734 17.1109C23.9572 16.629 23.9996 16.1404 24 15.6507V13C24 12.4477 24.4477 12 25 12Z" fill="#15172B"/>
</g>
</svg>
