<svg width="32" height="32" viewBox="0 0 32 32" fill="none" xmlns="http://www.w3.org/2000/svg" role="img" aria-label="Virtual Assistant" data-icon="virtualassistant" data-category="general">
  <title>Virtual Assistant</title>
  <desc>general icon from Comcast Business Design System</desc>
<g id="Virtual Assistant">
<path id="shape" fill-rule="evenodd" clip-rule="evenodd" d="M5.79289 23.3929L5 24.1858V24.1716L4 25.1716V14C4 10.134 7.13401 7 11 7H21C24.866 7 28 10.134 28 14C28 17.866 24.866 21 21 21H11.0018C11.0012 21 11.0005 21 10.9999 21C9.72321 21 8.52919 20.6591 7.5006 20.0641C7.33567 19.9687 7.17495 19.8668 7.01881 19.7586C6.56483 19.4441 5.94184 19.5571 5.62732 20.0111C5.31279 20.4651 5.42584 21.088 5.87981 21.4026C6.08044 21.5416 6.28704 21.6726 6.49915 21.7953C7.82395 22.5617 9.36224 23 10.9999 23C10.9999 23 11 23 11 23H21C25.9706 23 30 18.9706 30 14C30 9.02944 25.9706 5 21 5H11C6.02944 5 2 9.02944 2 14V30L4.09937 27.9006C4.13692 27.8724 4.17294 27.8413 4.20711 27.8071L7.20711 24.8071C7.59763 24.4166 7.59763 23.7834 7.20711 23.3929C6.81658 23.0024 6.18342 23.0024 5.79289 23.3929ZM11.069 16.1818C12.2116 16.1818 13.1379 15.2457 13.1379 14.0909C13.1379 12.9361 12.2116 12 11.069 12C9.92631 12 9 12.9361 9 14.0909C9 15.2457 9.92631 16.1818 11.069 16.1818ZM22.4485 14.0909C22.4485 15.2457 21.5222 16.1818 20.3795 16.1818C19.2369 16.1818 18.3105 15.2457 18.3105 14.0909C18.3105 12.9361 19.2369 12 20.3795 12C21.5222 12 22.4485 12.9361 22.4485 14.0909Z" fill="#15172B"/>
</g>
</svg>
