<svg width="32" height="32" viewBox="0 0 32 32" fill="none" xmlns="http://www.w3.org/2000/svg" role="img" aria-label="Wallet" data-icon="wallet" data-category="general">
  <title>Wallet</title>
  <desc>general icon from Comcast Business Design System</desc>
<g id="Wallet">
<g id="shape">
<path fill-rule="evenodd" clip-rule="evenodd" d="M6.75789 5H25.2421C26.7652 5 28 6.23475 28 7.75789V15C28 21.6274 22.6274 27 16 27C9.37258 27 4 21.6274 4 15V7.75789C4 6.23475 5.23475 5 6.75789 5ZM6.75789 7C6.33932 7 6 7.33932 6 7.75789V15C6 20.5228 10.4772 25 16 25C21.5228 25 26 20.5228 26 15V7.75789C26 7.33932 25.6607 7 25.2421 7H6.75789Z" fill="#15172B"/>
<path fill-rule="evenodd" clip-rule="evenodd" d="M15.2929 11.2929C15.6834 10.9024 16.3166 10.9024 16.7071 11.2929L21.7071 16.2929C22.0976 16.6834 22.0976 17.3166 21.7071 17.7071C21.3166 18.0976 20.6834 18.0976 20.2929 17.7071L16 13.4142L11.7071 17.7071C11.3166 18.0976 10.6834 18.0976 10.2929 17.7071C9.90237 17.3166 9.90237 16.6834 10.2929 16.2929L15.2929 11.2929Z" fill="#15172B"/>
</g>
</g>
</svg>
