<svg width="32" height="32" viewBox="0 0 32 32" fill="none" xmlns="http://www.w3.org/2000/svg" role="img" aria-label="5G" data-icon="5g" data-category="general">
  <title>5G</title>
  <desc>general icon from Comcast Business Design System</desc>
<g id="5G">
<g id="shape">
<path d="M23.7147 15.6681H20.75V16.8981H21.9387V18.1281C21.4907 18.3681 20.9867 18.4881 20.4267 18.4881C19.8987 18.4881 19.4267 18.3761 19.0107 18.1521C18.6027 17.9201 18.2827 17.6001 18.0507 17.1921C17.8187 16.7841 17.7027 16.3201 17.7027 15.8001C17.7027 15.2721 17.8187 14.8041 18.0507 14.3961C18.2827 13.9881 18.6067 13.6721 19.0227 13.4481C19.4387 13.2241 19.9147 13.1121 20.4507 13.1121C21.2987 13.1121 22.0227 13.4281 22.6227 14.0601L23.8707 12.9081C23.4627 12.4361 22.9587 12.0761 22.3587 11.8281C21.7587 11.5801 21.0907 11.4561 20.3547 11.4561C19.4747 11.4561 18.6827 11.6441 17.9787 12.0201C17.2747 12.3881 16.7227 12.9041 16.3227 13.5681C15.9307 14.2241 15.7347 14.9681 15.7347 15.8001C15.7347 16.6321 15.9307 17.3801 16.3227 18.0441C16.7227 18.7001 17.2707 19.2161 17.9667 19.5921C18.6627 19.9601 19.4467 20.1441 20.3187 20.1441C20.9267 20.1441 21.5307 20.0521 22.1307 19.8681C22.7307 19.6841 23.2587 19.4201 23.7147 19.0761V15.6681Z" fill="#15172B"/>
<path d="M13.594 15.4641C13.034 14.9921 12.162 14.7561 10.978 14.7561H10.294L10.426 13.1601H13.93V11.6001H8.806L8.374 16.3281H10.522C11.242 16.3281 11.746 16.4201 12.034 16.6041C12.33 16.7881 12.478 17.0601 12.478 17.4201C12.478 17.7641 12.338 18.0321 12.058 18.2241C11.778 18.4161 11.394 18.5121 10.906 18.5121C10.466 18.5121 10.038 18.4481 9.622 18.3201C9.206 18.1841 8.838 17.9961 8.518 17.7561L7.75 19.2441C8.15 19.5321 8.634 19.7561 9.202 19.9161C9.778 20.0681 10.362 20.1441 10.954 20.1441C11.722 20.1441 12.366 20.0201 12.886 19.7721C13.414 19.5161 13.806 19.1801 14.062 18.7641C14.318 18.3401 14.446 17.8721 14.446 17.3601C14.446 16.5681 14.162 15.9361 13.594 15.4641Z" fill="#15172B"/>
<path fill-rule="evenodd" clip-rule="evenodd" d="M16 2C8.26801 2 2 8.26801 2 16C2 23.732 8.26801 30 16 30C23.732 30 30 23.732 30 16C30 8.26801 23.732 2 16 2ZM4 16C4 9.37258 9.37258 4 16 4C22.6274 4 28 9.37258 28 16C28 22.6274 22.6274 28 16 28C9.37258 28 4 22.6274 4 16Z" fill="#15172B"/>
</g>
</g>
</svg>
