<svg width="32" height="32" viewBox="0 0 32 32" fill="none" xmlns="http://www.w3.org/2000/svg" role="img" aria-label="Active Core" data-icon="activecore" data-category="general">
  <title>Active Core</title>
  <desc>general icon from Comcast Business Design System</desc>
<g id="Active Core">
<path id="shape" fill-rule="evenodd" clip-rule="evenodd" d="M7.5 4.5C7.5 5.05228 7.05228 5.5 6.5 5.5C5.94772 5.5 5.5 5.05228 5.5 4.5C5.5 3.94772 5.94772 3.5 6.5 3.5C7.05228 3.5 7.5 3.94772 7.5 4.5ZM9 4.5C9 5.09392 8.7929 5.63946 8.44697 6.06835L12.6622 12.3912C13.2233 12.1398 13.8453 12 14.5 12C14.6802 12 14.8579 12.0106 15.0326 12.0312L15.7573 9.56718C15.2959 9.2008 15 8.63496 15 8C15 6.89543 15.8954 6 17 6C18.1046 6 19 6.89543 19 8C19 9.03832 18.2088 9.89184 17.1963 9.99048L16.4718 12.4539C17.2635 12.8404 17.925 13.4525 18.3725 14.2065L24.0384 12.0205C24.0131 11.8507 24 11.6769 24 11.5C24 9.567 25.567 8 27.5 8C29.433 8 31 9.567 31 11.5C31 13.433 29.433 15 27.5 15C26.2767 15 25.1999 14.3724 24.5742 13.4216L18.9113 15.6064C18.9695 15.8952 19 16.194 19 16.5C19 17.2435 18.8197 17.9449 18.5004 18.5628L25.042 23.469C25.4524 23.1738 25.9559 23 26.5 23C27.8807 23 29 24.1193 29 25.5C29 26.8807 27.8807 28 26.5 28C25.1193 28 24 26.8807 24 25.5C24 25.2085 24.0499 24.9287 24.1416 24.6687L17.5997 19.7622C17.0805 20.2557 16.4436 20.6265 15.7355 20.8283L16.1019 24.1257C16.6307 24.3576 17 24.8856 17 25.5C17 26.3284 16.3284 27 15.5 27C14.6716 27 14 26.3284 14 25.5C14 25.0043 14.2405 24.5647 14.6111 24.2916L14.2446 20.9929C13.4501 20.9484 12.7107 20.6979 12.0789 20.2938L7.50522 25.349C7.81795 25.8225 8 26.39 8 27C8 28.6569 6.65685 30 5 30C3.34315 30 2 28.6569 2 27C2 25.3431 3.34315 24 5 24C5.50286 24 5.97682 24.1237 6.39311 24.3424L10.9668 19.2872C10.4698 18.658 10.1372 17.8928 10.0341 17.0565L4.82025 16.8299C4.50499 17.5202 3.80852 18 3 18C1.89543 18 1 17.1046 1 16C1 14.8954 1.89543 14 3 14C3.87004 14 4.61033 14.5556 4.88547 15.3313L10.0988 15.5579C10.2926 14.6477 10.7617 13.8394 11.4147 13.2242L7.19923 6.9009C6.97734 6.96541 6.74271 7 6.5 7C5.11929 7 4 5.88071 4 4.5C4 3.11929 5.11929 2 6.5 2C7.88071 2 9 3.11929 9 4.5ZM27.5 25.5C27.5 26.0523 27.0523 26.5 26.5 26.5C25.9477 26.5 25.5 26.0523 25.5 25.5C25.5 24.9477 25.9477 24.5 26.5 24.5C27.0523 24.5 27.5 24.9477 27.5 25.5ZM6.5 27C6.5 27.8284 5.82843 28.5 5 28.5C4.17157 28.5 3.5 27.8284 3.5 27C3.5 26.1716 4.17157 25.5 5 25.5C5.82843 25.5 6.5 26.1716 6.5 27ZM27.5 13.5C28.6046 13.5 29.5 12.6046 29.5 11.5C29.5 10.3954 28.6046 9.5 27.5 9.5C26.3954 9.5 25.5 10.3954 25.5 11.5C25.5 12.6046 26.3954 13.5 27.5 13.5ZM17.5 16.5C17.5 18.1569 16.1569 19.5 14.5 19.5C12.8431 19.5 11.5 18.1569 11.5 16.5C11.5 14.8431 12.8431 13.5 14.5 13.5C16.1569 13.5 17.5 14.8431 17.5 16.5ZM16 16.5C16 17.3284 15.3284 18 14.5 18C13.6716 18 13 17.3284 13 16.5C13 15.6716 13.6716 15 14.5 15C15.3284 15 16 15.6716 16 16.5Z" fill="#15172B"/>
</g>
</svg>
