<svg width="32" height="32" viewBox="0 0 32 32" fill="none" xmlns="http://www.w3.org/2000/svg" role="img" aria-label="Add Channels" data-icon="addchannels" data-category="action">
  <title>Add Channels</title>
  <desc>action icon from Comcast Business Design System</desc>
<g id="Add Channels">
<path id="shape" fill-rule="evenodd" clip-rule="evenodd" d="M8.29289 2.29289C8.68342 1.90237 9.31658 1.90237 9.70711 2.29289L16 8.58579L22.2929 2.29289C22.6834 1.90237 23.3166 1.90237 23.7071 2.29289C24.0976 2.68342 24.0976 3.31658 23.7071 3.70711L18.4142 9H27C28.6569 9 30 10.3431 30 12V27C30 28.6569 28.6569 30 27 30H5C3.34315 30 2 28.6569 2 27V12C2 10.3431 3.34315 9 5 9H13.5858L8.29289 3.70711C7.90237 3.31658 7.90237 2.68342 8.29289 2.29289ZM5 11C4.44772 11 4 11.4477 4 12V27C4 27.5523 4.44772 28 5 28H27C27.5523 28 28 27.5523 28 27V12C28 11.4477 27.5523 11 27 11H5ZM15 21V24C15 24.5523 15.4477 25 16 25C16.5523 25 17 24.5523 17 24V21H20C20.5523 21 21 20.5523 21 20C21 19.4477 20.5523 19 20 19H17V16C17 15.4477 16.5523 15 16 15C15.4477 15 15 15.4477 15 16V19H12C11.4477 19 11 19.4477 11 20C11 20.5523 11.4477 21 12 21H15Z" fill="#15172B"/>
</g>
</svg>
