<svg width="32" height="32" viewBox="0 0 32 32" fill="none" xmlns="http://www.w3.org/2000/svg" role="img" aria-label="Add New Services" data-icon="addnewservices" data-category="action">
  <title>Add New Services</title>
  <desc>action icon from Comcast Business Design System</desc>
<g id="Add New Services">
<path id="shape" fill-rule="evenodd" clip-rule="evenodd" d="M2 7C2 4.23858 4.23858 2 7 2H25C27.7614 2 30 4.23858 30 7V25C30 27.7614 27.7614 30 25 30H7C4.23858 30 2 27.7614 2 25V7ZM7 4C5.34315 4 4 5.34315 4 7V25C4 26.6569 5.34315 28 7 28H25C26.6569 28 28 26.6569 28 25V7C28 5.34315 26.6569 4 25 4H7ZM16 8C16.5523 8 17 8.44772 17 9V15H23C23.5523 15 24 15.4477 24 16C24 16.5523 23.5523 17 23 17H17V23C17 23.5523 16.5523 24 16 24C15.4477 24 15 23.5523 15 23V17H9C8.44772 17 8 16.5523 8 16C8 15.4477 8.44772 15 9 15H15V9C15 8.44772 15.4477 8 16 8Z" fill="#15172B"/>
</g>
</svg>
