<svg width="32" height="32" viewBox="0 0 32 32" fill="none" xmlns="http://www.w3.org/2000/svg" role="img" aria-label="AR" data-icon="ar" data-category="general">
  <title>AR</title>
  <desc>general icon from Comcast Business Design System</desc>
<g id="AR">
<g id="shape">
<path fill-rule="evenodd" clip-rule="evenodd" d="M16.0167 2L24 6.5619V15.1422C24 15.4825 23.827 15.7994 23.5408 15.9834L16.5408 20.4834C16.2207 20.6891 15.8117 20.6954 15.4855 20.4997L7.9855 15.9997C7.6843 15.819 7.5 15.4935 7.5 15.1422V6.54222L16.0167 2ZM9.5 8.80889V14.576L15 17.876V11.7422L9.5 8.80889ZM17 11.7225V17.8106L22 14.5963V8.8654L17 11.7225ZM20.9844 7.14222L15.9833 10L10.625 7.14222L15.9833 4.28445L20.9844 7.14222Z" fill="#15172B"/>
<path fill-rule="evenodd" clip-rule="evenodd" d="M5.47113 14.9609C5.84743 15.3651 5.82476 15.9979 5.42051 16.3742C4.45276 17.275 4 18.2226 4 19.1422C4 20.3314 4.76853 21.5849 6.40769 22.6863C7.80523 23.6254 9.73452 24.375 12 24.7889V23.5564C12 21.7746 14.1543 20.8823 15.4142 22.1422L18 24.728C18.781 25.5091 18.781 26.7754 18 27.5564L15.4142 30.1422C14.1543 31.4022 12 30.5098 12 28.728V26.8189C9.3749 26.383 7.04307 25.5228 5.29226 24.3464C3.36477 23.0513 2 21.2631 2 19.1422C2 17.5119 2.81337 16.0687 4.05783 14.9103C4.46208 14.534 5.09484 14.5566 5.47113 14.9609ZM14 25.9683V28.728L16.5858 26.1422L14 23.5564V25.939C14.0001 25.9487 14.0001 25.9585 14 25.9683Z" fill="#15172B"/>
<path d="M26.5289 14.9609C26.9052 14.5566 27.5379 14.534 27.9422 14.9103C29.1866 16.0687 30 17.5119 30 19.1422C30 21.8525 27.7959 24.0069 24.9222 25.3453C24.4215 25.5784 23.8266 25.3616 23.5935 24.861C23.3603 24.3603 23.5772 23.7654 24.0778 23.5323C26.7164 22.3035 28 20.6643 28 19.1422C28 18.2226 27.5472 17.275 26.5795 16.3742C26.1752 15.9979 26.1526 15.3651 26.5289 14.9609Z" fill="#15172B"/>
</g>
</g>
</svg>
