<svg width="32" height="32" viewBox="0 0 32 32" fill="none" xmlns="http://www.w3.org/2000/svg" role="img" aria-label=".Arrow" data-icon="arrow" data-category="navigation">
  <title>.Arrow</title>
  <desc>navigation icon from Comcast Business Design System</desc>
<g id=".Arrow">
<path id="Union" d="M15.293 6.29298C15.6591 5.92686 16.2381 5.90427 16.6309 6.22462L16.707 6.29298L25.707 15.293C25.7101 15.2961 25.7128 15.2996 25.7158 15.3027C25.7322 15.3196 25.7485 15.3365 25.7637 15.3545C25.7698 15.3618 25.7753 15.3695 25.7812 15.377C25.7942 15.3932 25.8064 15.4098 25.8184 15.4268C25.8254 15.4368 25.8322 15.4468 25.8389 15.457C25.9166 15.577 25.9689 15.7143 25.9893 15.8623C25.9946 15.901 25.9972 15.9401 25.998 15.9795C25.9981 15.9837 25.999 15.988 25.999 15.9922C25.9991 15.9967 26 16.0014 26 16.0059C25.9997 16.051 25.9945 16.0955 25.9883 16.1397C25.9788 16.2076 25.9629 16.2731 25.9404 16.3359C25.9389 16.3402 25.9371 16.3444 25.9355 16.3486C25.9173 16.3975 25.8954 16.4443 25.8701 16.4893C25.865 16.4984 25.8599 16.5076 25.8545 16.5166C25.8491 16.5255 25.8436 16.5343 25.8379 16.543C25.8272 16.5595 25.8164 16.5759 25.8047 16.5918C25.7993 16.5991 25.7937 16.6061 25.7881 16.6133C25.7807 16.6228 25.7744 16.6333 25.7666 16.6426L25.748 16.6621C25.7393 16.672 25.7298 16.681 25.7207 16.6904L25.6982 16.7158L25.6943 16.7197C25.6917 16.7223 25.6875 16.7257 25.6826 16.7305C25.6722 16.7406 25.6571 16.7565 25.6367 16.7764C25.5958 16.8163 25.5352 16.8756 25.457 16.9522C25.3005 17.1053 25.0731 17.3285 24.7891 17.6074C24.2207 18.1656 23.4255 18.9479 22.5215 19.8438C20.7121 21.6369 18.4687 23.8805 16.7197 25.6943C16.3364 26.0916 15.7031 26.1029 15.3057 25.7197C14.9083 25.3364 14.8971 24.7032 15.2803 24.3057C17.0458 22.4748 19.3025 20.2183 21.1143 18.4229C21.639 17.9028 22.1281 17.4221 22.5566 17H7C6.44781 17 6.00015 16.5522 6 16C6 15.4477 6.44772 15 7 15H22.5859L15.293 7.70704L15.2246 7.63087C14.9043 7.23813 14.9269 6.6591 15.293 6.29298Z" fill="currentColor"/>
</g>
</svg>
