<svg width="32" height="32" viewBox="0 0 32 32" fill="none" xmlns="http://www.w3.org/2000/svg" role="img" aria-label="Attachment" data-icon="attachment" data-category="file">
  <title>Attachment</title>
  <desc>file icon from Comcast Business Design System</desc>
<g id="Attachment">
<path id="shape" fill-rule="evenodd" clip-rule="evenodd" d="M25.556 4.53542C24.3899 3.36929 22.5026 3.36387 21.3298 4.51916L21.3137 4.5356L6.46447 19.3848C4.51185 21.3375 4.51184 24.5033 6.46447 26.4559C8.41709 28.4085 11.5829 28.4085 13.5355 26.4559L26.6777 13.3138C27.0682 12.9233 27.7014 12.9233 28.0919 13.3138C28.4824 13.7043 28.4824 14.3375 28.0919 14.728L14.9497 27.8701C12.2161 30.6038 7.78392 30.6038 5.05025 27.8701C2.31658 25.1365 2.31658 20.7043 5.05025 17.9706L19.8994 3.12145L19.8992 3.1212C21.8518 1.16858 25.0176 1.16858 26.9703 3.1212C28.9229 5.07383 28.9229 8.23965 26.9703 10.1923L12.1375 25.0251C12.1321 25.0306 12.1267 25.0362 12.1212 25.0417C10.9497 26.2132 9.05018 26.2132 7.8786 25.0417C6.70703 23.8701 6.70703 21.9706 7.8786 20.799L20.6065 8.0711C20.9971 7.68057 21.6302 7.68057 22.0207 8.0711C22.4113 8.46162 22.4113 9.09479 22.0207 9.48531L9.29282 22.2132C8.90229 22.6038 8.90229 23.2369 9.29282 23.6274C9.68333 24.018 10.3165 24.018 10.707 23.6275L10.7068 23.6273L25.556 8.77806C26.7276 7.60649 26.7276 5.70699 25.556 4.53542Z" fill="#15172B"/>
</g>
</svg>
