<svg width="32" height="32" viewBox="0 0 32 32" fill="none" xmlns="http://www.w3.org/2000/svg" role="img" aria-label="AV - Pause" data-icon="avpause" data-category="media">
  <title>AV - Pause</title>
  <desc>media icon from Comcast Business Design System</desc>
<g id="AV - Pause">
<path id="shape" fill-rule="evenodd" clip-rule="evenodd" d="M8 4C7.44772 4 7 4.44772 7 5V27C7 27.5523 7.44772 28 8 28H13C13.5523 28 14 27.5523 14 27V5C14 4.44772 13.5523 4 13 4H8ZM19 4C18.4477 4 18 4.44772 18 5V27C18 27.5523 18.4477 28 19 28H24C24.5523 28 25 27.5523 25 27V5C25 4.44772 24.5523 4 24 4H19Z" fill="#15172B"/>
</g>
</svg>
