<svg width="32" height="32" viewBox="0 0 32 32" fill="none" xmlns="http://www.w3.org/2000/svg" role="img" aria-label="Bill Summary/Default" data-icon="billsummarydefault" data-category="general">
  <title>Bill Summary/Default</title>
  <desc>general icon from Comcast Business Design System</desc>
<g id="Bill Summary/Default">
<path id="shape" fill-rule="evenodd" clip-rule="evenodd" d="M2 3C2 2.44772 2.44772 2 3 2H29C29.5523 2 30 2.44772 30 3C30 3.55228 29.5523 4 29 4H26V29C26 29.3938 25.7689 29.7509 25.4097 29.9122C25.0504 30.0736 24.63 30.009 24.3356 29.7474L20.5 26.338L16.6644 29.7474C16.2855 30.0842 15.7145 30.0842 15.3356 29.7474L11.5 26.338L7.66436 29.7474C7.37004 30.009 6.94958 30.0736 6.59034 29.9122C6.23111 29.7509 6 29.3938 6 29V4H3C2.44772 4 2 3.55228 2 3ZM8 4V26.7732L10.8356 24.2526C11.2145 23.9158 11.7855 23.9158 12.1644 24.2526L16 27.662L19.8356 24.2526C20.2145 23.9158 20.7855 23.9158 21.1644 24.2526L24 26.7732V4H8ZM12.5 8C12.5 8.82843 11.8284 9.5 11 9.5C10.1716 9.5 9.5 8.82843 9.5 8C9.5 7.17157 10.1716 6.5 11 6.5C11.8284 6.5 12.5 7.17157 12.5 8ZM11 14.5C11.8284 14.5 12.5 13.8284 12.5 13C12.5 12.1716 11.8284 11.5 11 11.5C10.1716 11.5 9.5 12.1716 9.5 13C9.5 13.8284 10.1716 14.5 11 14.5ZM12.5 18C12.5 18.8284 11.8284 19.5 11 19.5C10.1716 19.5 9.5 18.8284 9.5 18C9.5 17.1716 10.1716 16.5 11 16.5C11.8284 16.5 12.5 17.1716 12.5 18ZM15 7C14.4477 7 14 7.44772 14 8C14 8.55228 14.4477 9 15 9H21.5C22.0523 9 22.5 8.55228 22.5 8C22.5 7.44772 22.0523 7 21.5 7H15ZM14 13C14 12.4477 14.4477 12 15 12H21.5C22.0523 12 22.5 12.4477 22.5 13C22.5 13.5523 22.0523 14 21.5 14H15C14.4477 14 14 13.5523 14 13ZM15 17C14.4477 17 14 17.4477 14 18C14 18.5523 14.4477 19 15 19H21.5C22.0523 19 22.5 18.5523 22.5 18C22.5 17.4477 22.0523 17 21.5 17H15Z" fill="#15172B"/>
</g>
</svg>
