<svg width="32" height="32" viewBox="0 0 32 32" fill="none" xmlns="http://www.w3.org/2000/svg" role="img" aria-label="Browser" data-icon="browser" data-category="general">
  <title>Browser</title>
  <desc>general icon from Comcast Business Design System</desc>
<g id="Browser">
<path id="shape" fill-rule="evenodd" clip-rule="evenodd" d="M7 2C4.23858 2 2 4.23858 2 7V25C2 27.7614 4.23858 30 7 30H25C27.7614 30 30 27.7614 30 25V7C30 4.23858 27.7614 2 25 2H7ZM4 7C4 5.34315 5.34315 4 7 4H25C26.6569 4 28 5.34315 28 7V10H4V7ZM4 12H28V25C28 26.6569 26.6569 28 25 28H7C5.34315 28 4 26.6569 4 25V12ZM7 8C7.55228 8 8 7.55228 8 7C8 6.44772 7.55228 6 7 6C6.44772 6 6 6.44772 6 7C6 7.55228 6.44772 8 7 8ZM11 7C11 7.55228 10.5523 8 10 8C9.44771 8 9 7.55228 9 7C9 6.44772 9.44771 6 10 6C10.5523 6 11 6.44772 11 7ZM13 8C13.5523 8 14 7.55228 14 7C14 6.44772 13.5523 6 13 6C12.4477 6 12 6.44772 12 7C12 7.55228 12.4477 8 13 8Z" fill="#15172B"/>
</g>
</svg>
