<svg width="32" height="32" viewBox="0 0 32 32" fill="none" xmlns="http://www.w3.org/2000/svg" role="img" aria-label="BYOD" data-icon="byod" data-category="general">
  <title>BYOD</title>
  <desc>general icon from Comcast Business Design System</desc>
<g id="BYOD">
<g id="shape">
<path d="M16 23C15.4477 23 15 23.4477 15 24C15 24.5523 15.4477 25 16 25H16.0133C16.5656 25 17.0133 24.5523 17.0133 24C17.0133 23.4477 16.5656 23 16.0133 23H16Z" fill="#15172B"/>
<path d="M20.7071 12.7071C21.0976 12.3166 21.0976 11.6834 20.7071 11.2929C20.3166 10.9024 19.6834 10.9024 19.2929 11.2929L15 15.5858L13.2071 13.7929C12.8166 13.4024 12.1834 13.4024 11.7929 13.7929C11.4024 14.1834 11.4024 14.8166 11.7929 15.2071L15 18.4142L20.7071 12.7071Z" fill="#15172B"/>
<path fill-rule="evenodd" clip-rule="evenodd" d="M9.57143 2C7.58859 2 6 3.62222 6 5.6V26.4C6 28.3778 7.58859 30 9.57143 30H22.4286C24.4114 30 26 28.3778 26 26.4V5.6C26 3.62222 24.4114 2 22.4286 2H9.57143ZM8 5.6C8 4.7059 8.71394 4 9.57143 4H22.4286C23.2861 4 24 4.7059 24 5.6V26.4C24 27.2941 23.2861 28 22.4286 28H9.57143C8.71394 28 8 27.2941 8 26.4V5.6Z" fill="#15172B"/>
</g>
</g>
</svg>
