<svg width="32" height="32" viewBox="0 0 32 32" fill="none" xmlns="http://www.w3.org/2000/svg" role="img" aria-label="Camera" data-icon="camera" data-category="media">
  <title>Camera</title>
  <desc>media icon from Comcast Business Design System</desc>
<g id="Camera">
<path id="shape" fill-rule="evenodd" clip-rule="evenodd" d="M13.0002 4C12.7145 4 12.4425 4.12215 12.2528 4.33564L9.88443 7H5.66667C3.66194 7 2 8.66194 2 10.6667V23.3333C2 25.3381 3.66194 27 5.66667 27H26.3333C28.3381 27 30 25.3381 30 23.3333V10.6667C30 8.66194 28.3381 7 26.3333 7H22.1159L19.7476 4.33564C19.5578 4.12215 19.2858 4 19.0002 4H13.0002ZM11.0809 8.66436L13.4492 6H18.5511L20.9194 8.66436C21.1092 8.87785 21.3812 9 21.6668 9H26.3333C27.2335 9 28 9.76651 28 10.6667V23.3333C28 24.2335 27.2335 25 26.3333 25H5.66667C4.76651 25 4 24.2335 4 23.3333V10.6667C4 9.76651 4.76651 9 5.66667 9H10.3335C10.6191 9 10.8911 8.87785 11.0809 8.66436ZM12 17C12 14.7909 13.7909 13 16 13C18.2091 13 20 14.7909 20 17C20 19.2091 18.2091 21 16 21C13.7909 21 12 19.2091 12 17ZM16 11C12.6863 11 10 13.6863 10 17C10 20.3137 12.6863 23 16 23C19.3137 23 22 20.3137 22 17C22 13.6863 19.3137 11 16 11Z" fill="#15172B"/>
</g>
</svg>
