<svg width="32" height="32" viewBox="0 0 32 32" fill="none" xmlns="http://www.w3.org/2000/svg" role="img" aria-label="Cart empty" data-icon="cartempty" data-category="commerce">
  <title>Cart empty</title>
  <desc>commerce icon from Comcast Business Design System</desc>
<g id="Cart empty">
<g id="shape">
<path fill-rule="evenodd" clip-rule="evenodd" d="M2 2C1.44772 2 1 2.44772 1 3C1 3.55228 1.44772 4 2 4H3.72911L8.14055 20.7635C8.48738 22.0814 9.67897 23 11.0418 23H23.2842C24.7649 23 26.0241 21.9197 26.2493 20.4562L27.9884 9.15206C28.0327 8.86368 27.9489 8.57031 27.759 8.34887C27.569 8.12743 27.2918 8 27 8H6.84984L5.46707 2.74551C5.35147 2.30619 4.95427 2 4.5 2H2ZM10.0747 20.2545L7.37615 10H25.8344L24.2725 20.1521C24.1975 20.6399 23.7777 21 23.2842 21H11.0418C10.5875 21 10.1903 20.6938 10.0747 20.2545Z" fill="#15172B"/>
<path fill-rule="evenodd" clip-rule="evenodd" d="M11.3127 24.3376C9.74787 24.3376 8.49316 25.6143 8.49316 27.172C8.49316 28.7298 9.74787 30.0064 11.3127 30.0064C12.8776 30.0064 14.1323 28.7298 14.1323 27.172C14.1323 25.6143 12.8776 24.3376 11.3127 24.3376ZM10.4932 27.172C10.4932 26.7035 10.8677 26.3376 11.3127 26.3376C11.7577 26.3376 12.1323 26.7035 12.1323 27.172C12.1323 27.6405 11.7577 28.0064 11.3127 28.0064C10.8677 28.0064 10.4932 27.6405 10.4932 27.172Z" fill="#15172B"/>
<path fill-rule="evenodd" clip-rule="evenodd" d="M23.4105 24.3376C21.8456 24.3376 20.5909 25.6143 20.5909 27.172C20.5909 28.7298 21.8456 30.0064 23.4105 30.0064C24.9753 30.0064 26.23 28.7298 26.23 27.172C26.23 25.6143 24.9753 24.3376 23.4105 24.3376ZM22.5909 27.172C22.5909 26.7035 22.9655 26.3376 23.4105 26.3376C23.8554 26.3376 24.23 26.7035 24.23 27.172C24.23 27.6405 23.8554 28.0064 23.4105 28.0064C22.9655 28.0064 22.5909 27.6405 22.5909 27.172Z" fill="#15172B"/>
</g>
</g>
</svg>
