<svg width="32" height="32" viewBox="0 0 32 32" fill="none" xmlns="http://www.w3.org/2000/svg" role="img" aria-label="Clipboard" data-icon="clipboard" data-category="general">
  <title>Clipboard</title>
  <desc>general icon from Comcast Business Design System</desc>
<g id="Clipboard">
<path id="shape" fill-rule="evenodd" clip-rule="evenodd" d="M12.25 4C12.1119 4 12 4.11193 12 4.25V6.75C12 6.88807 12.1119 7 12.25 7H19.75C19.8881 7 20 6.88807 20 6.75V4.25C20 4.11193 19.8881 4 19.75 4H12.25ZM10.0137 4C10.1381 2.87501 11.0919 2 12.25 2H19.75C20.9081 2 21.8619 2.87501 21.9863 4H24.25C25.2348 4 26.1852 4.37907 26.8907 5.06315C27.5972 5.74824 28 6.6841 28 7.66667V26.3333C28 27.3159 27.5972 28.2518 26.8907 28.9369C26.1852 29.6209 25.2348 30 24.25 30H7.75C6.7652 30 5.81477 29.6209 5.10931 28.9369C4.40281 28.2518 4 27.3159 4 26.3333V7.66667C4 6.6841 4.40281 5.74824 5.10931 5.06315C5.81477 4.37907 6.7652 4 7.75 4H10.0137ZM10 6H7.75C7.27611 6 6.82759 6.18284 6.5016 6.49895C6.17666 6.81405 6 7.23474 6 7.66667V26.3333C6 26.7653 6.17666 27.186 6.5016 27.5011C6.82759 27.8172 7.27611 28 7.75 28H24.25C24.7239 28 25.1724 27.8172 25.4984 27.5011C25.8233 27.186 26 26.7653 26 26.3333V7.66667C26 7.23474 25.8233 6.81405 25.4984 6.49895C25.1724 6.18284 24.7239 6 24.25 6H22V6.75C22 7.99264 20.9926 9 19.75 9H12.25C11.0074 9 10 7.99264 10 6.75V6Z" fill="#15172B"/>
</g>
</svg>
