<svg width="32" height="32" viewBox="0 0 32 32" fill="none" xmlns="http://www.w3.org/2000/svg" role="img" aria-label="Close" data-icon="close" data-category="action">
  <title>Close</title>
  <desc>action icon from Comcast Business Design System</desc>
<g id="Close">
<path id="shape" d="M23.293 7.2929C23.6836 6.90237 24.3166 6.90237 24.7071 7.2929C25.0976 7.68342 25.0976 8.31644 24.7071 8.70697L17.4141 16L24.7071 23.293L24.7755 23.3692C25.0958 23.762 25.0732 24.341 24.7071 24.7071C24.341 25.0732 23.762 25.0958 23.3692 24.7755L23.293 24.7071L16 17.4141L8.70697 24.7071C8.31644 25.0976 7.68342 25.0976 7.2929 24.7071C6.90237 24.3166 6.90237 23.6836 7.2929 23.293L14.5859 16L7.2929 8.70697L7.22454 8.6308C6.90418 8.23802 6.92678 7.65901 7.2929 7.2929C7.65901 6.92678 8.23802 6.90418 8.6308 7.22454L8.70697 7.2929L16 14.5859L23.293 7.2929Z" fill="#15172B"/>
</g>
</svg>
