<svg width="32" height="32" viewBox="0 0 32 32" fill="none" xmlns="http://www.w3.org/2000/svg" role="img" aria-label="Cloud Storm" data-icon="cloudstorm" data-category="weather">
  <title>Cloud Storm</title>
  <desc>weather icon from Comcast Business Design System</desc>
<g id="Cloud Storm">
<path id="shape" fill-rule="evenodd" clip-rule="evenodd" d="M12 3C7.02944 3 3 7.02944 3 12C3 14.9438 4.41232 17.5575 6.60058 19.2012C7.04217 19.5329 7.13126 20.1597 6.79957 20.6013C6.46788 21.0429 5.84101 21.132 5.39942 20.8003C2.7299 18.7951 1 15.5994 1 12C1 5.92487 5.92487 1 12 1C16.3095 1 20.0383 3.47729 21.8428 7.08315C22.221 7.02829 22.6073 7 23 7C27.4183 7 31 10.5817 31 15C31 17.7194 29.6423 20.1215 27.5721 21.5655C27.1192 21.8815 26.4958 21.7704 26.1799 21.3174C25.8639 20.8644 25.975 20.2411 26.428 19.9251C27.9848 18.8392 29 17.0381 29 15C29 11.6863 26.3138 9 23 9C22.4833 9 21.9844 9.06483 21.5083 9.18666L20.6643 9.40265L20.3347 8.59625C18.9919 5.31113 15.7648 3 12 3ZM18.6585 12.2474C19.0741 12.6111 19.1163 13.2429 18.7526 13.6585L13.2038 20H21C21.3788 20 21.725 20.214 21.8944 20.5528C22.0638 20.8916 22.0273 21.297 21.8 21.6L15.8 29.6C15.4686 30.0418 14.8418 30.1314 14.4 29.8C13.9582 29.4686 13.8686 28.8418 14.2 28.4L19 22H11C10.6076 22 10.2515 21.7705 10.0894 21.4132C9.92723 21.0559 9.98904 20.6368 10.2474 20.3415L17.2474 12.3415C17.6111 11.9259 18.2429 11.8837 18.6585 12.2474Z" fill="#15172B"/>
</g>
</svg>
