<svg width="64" height="64" viewBox="0 0 64 64" fill="none" xmlns="http://www.w3.org/2000/svg" role="img" aria-label="color=white, size=XXL - 64x64" data-icon="colorwhitesizexxl64x64" data-category="general">
  <title>color=white, size=XXL - 64x64</title>
  <desc>general icon from Comcast Business Design System</desc>
<g id="color=white, size=XXL - 64x64">
<path id="Background" fill-rule="evenodd" clip-rule="evenodd" d="M32 60C47.464 60 60 47.464 60 32C60 16.536 47.464 4 32 4C16.536 4 4 16.536 4 32C4 47.464 16.536 60 32 60ZM32 54C44.1503 54 54 44.1503 54 32C54 19.8497 44.1503 10 32 10C19.8497 10 10 19.8497 10 32C10 44.1503 19.8497 54 32 54Z" fill="white" fill-opacity="0.25"/>
<path id="Stroke" fill-rule="evenodd" clip-rule="evenodd" d="M32 6.99997C32 5.34312 30.6523 3.98309 29.0047 4.1583C15.9332 5.54841 5.5484 15.9332 4.1583 29.0047C3.98309 30.6523 5.34312 32 6.99997 32C8.65683 32 9.9785 30.6494 10.2018 29.0076C11.5285 19.2513 19.2513 11.5285 29.0076 10.2018C30.6494 9.9785 32 8.65683 32 6.99997Z" fill="white"/>
</g>
</svg>
