<svg width="24" height="24" viewBox="0 0 24 24" fill="none" xmlns="http://www.w3.org/2000/svg" role="img" aria-label="color=black, size=M - 24x24" data-icon="colorblacksizem24x24" data-category="general">
  <title>color=black, size=M - 24x24</title>
  <desc>general icon from Comcast Business Design System</desc>
<g id="color=black, size=M - 24x24">
<path id="Background" fill-rule="evenodd" clip-rule="evenodd" d="M12 22C17.5228 22 22 17.5228 22 12C22 6.47715 17.5228 2 12 2C6.47715 2 2 6.47715 2 12C2 17.5228 6.47715 22 12 22ZM12 19C15.866 19 19 15.866 19 12C19 8.13401 15.866 5 12 5C8.13401 5 5 8.13401 5 12C5 15.866 8.13401 19 12 19Z" fill="#B4B5BB"/>
<path id="Stroke" fill-rule="evenodd" clip-rule="evenodd" d="M12 3.50005C12 2.67162 11.3245 1.98822 10.5053 2.11101C6.17908 2.75943 2.75943 6.17909 2.11101 10.5053C1.98822 11.3245 2.67162 12 3.50005 12C4.32847 12 4.98336 11.3206 5.15877 10.511C5.73737 7.84019 7.84019 5.73737 10.511 5.15877C11.3206 4.98336 12 4.32847 12 3.50005Z" fill="#15172B"/>
</g>
</svg>
