<svg width="32" height="32" viewBox="0 0 32 32" fill="none" xmlns="http://www.w3.org/2000/svg" role="img" aria-label="Conference" data-icon="conference" data-category="general">
  <title>Conference</title>
  <desc>general icon from Comcast Business Design System</desc>
<g id="Conference">
<path id="shape" fill-rule="evenodd" clip-rule="evenodd" d="M20 10C20 12.2091 18.2091 14 16 14C13.7909 14 12 12.2091 12 10C12 7.79086 13.7909 6 16 6C18.2091 6 20 7.79086 20 10ZM22 10C22 13.3137 19.3137 16 16 16C12.6863 16 10 13.3137 10 10C10 6.68629 12.6863 4 16 4C19.3137 4 22 6.68629 22 10ZM6 11.5C6 9.96911 7.0345 9 8 9C8.55228 9 9 8.55228 9 8C9 7.44772 8.55228 7 8 7C5.65179 7 4 9.16489 4 11.5C4 13.8351 5.65179 16 8 16C8.55228 16 9 15.5523 9 15C9 14.4477 8.55228 14 8 14C7.0345 14 6 13.0309 6 11.5ZM24 9C24.9655 9 26 9.96911 26 11.5C26 13.0309 24.9655 14 24 14C23.4477 14 23 14.4477 23 15C23 15.5523 23.4477 16 24 16C26.3482 16 28 13.8351 28 11.5C28 9.16489 26.3482 7 24 7C23.4477 7 23 7.44772 23 8C23 8.55228 23.4477 9 24 9ZM6.44721 18.8944C6.94119 18.6474 7.14142 18.0468 6.89443 17.5528C6.64744 17.0588 6.04676 16.8586 5.55279 17.1056L4.76393 17.5C3.07001 18.347 2 20.0783 2 21.9721V25C2 25.5523 2.44772 26 3 26C3.55228 26 4 25.5523 4 25V21.9721C4 20.8358 4.64201 19.797 5.65836 19.2889L6.44721 18.8944ZM25.1056 17.5528C24.8586 18.0468 25.0588 18.6474 25.5528 18.8944L26.3416 19.2889C27.358 19.797 28 20.8358 28 21.9721V25C28 25.5523 28.4477 26 29 26C29.5523 26 30 25.5523 30 25V21.9721C30 20.0783 28.93 18.347 27.2361 17.5L26.4472 17.1056C25.9532 16.8586 25.3526 17.0588 25.1056 17.5528ZM8 24C8 21.7909 9.79086 20 12 20H20C22.2091 20 24 21.7909 24 24V27C24 27.5523 24.4477 28 25 28C25.5523 28 26 27.5523 26 27V24C26 20.6863 23.3137 18 20 18H12C8.68629 18 6 20.6863 6 24V27C6 27.5523 6.44772 28 7 28C7.55228 28 8 27.5523 8 27V24Z" fill="#15172B"/>
</g>
</svg>
