<svg width="32" height="32" viewBox="0 0 32 32" fill="none" xmlns="http://www.w3.org/2000/svg" role="img" aria-label="Context Menu" data-icon="contextmenu" data-category="navigation">
  <title>Context Menu</title>
  <desc>navigation icon from Comcast Business Design System</desc>
<g id="Context Menu">
<path id="shape" d="M16 23C17.3807 23 18.5 24.1193 18.5 25.5C18.5 26.8807 17.3807 28 16 28C14.6193 28 13.5 26.8807 13.5 25.5C13.5 24.1193 14.6193 23 16 23ZM16 13.5C17.3807 13.5 18.5 14.6193 18.5 16C18.5 17.3807 17.3807 18.5 16 18.5C14.6193 18.5 13.5 17.3807 13.5 16C13.5 14.6193 14.6193 13.5 16 13.5ZM16 4C17.3807 4 18.5 5.11929 18.5 6.5C18.5 7.88071 17.3807 9 16 9C14.6193 9 13.5 7.88071 13.5 6.5C13.5 5.11929 14.6193 4 16 4Z" fill="#15172B"/>
</g>
</svg>
