<svg width="32" height="32" viewBox="0 0 32 32" fill="none" xmlns="http://www.w3.org/2000/svg" role="img" aria-label="Device" data-icon="device" data-category="general">
  <title>Device</title>
  <desc>general icon from Comcast Business Design System</desc>
<g id="Device">
<path id="shape" fill-rule="evenodd" clip-rule="evenodd" d="M16.8636 6.99919C16.3715 7.24926 16.2481 7.8721 16.5542 8.33137C16.8608 8.79125 17.4832 8.91388 17.9824 8.67661C19.4524 7.97791 21.4848 7.5 23.0002 7.5C24.5182 7.5 26.6286 7.97951 28.1254 8.68012C28.6259 8.91442 29.2487 8.79125 29.5553 8.33137C29.8615 7.8721 29.7378 7.24954 29.2445 7.00182C27.4556 6.1034 24.9209 5.5 23.0002 5.5C21.0814 5.5 18.6286 6.10222 16.8636 6.99919ZM26.575 9.84114C27.0686 10.0881 27.1902 10.715 26.8841 11.1743C26.5775 11.6341 25.9582 11.7493 25.454 11.523C24.7049 11.1869 23.8744 11 23.0002 11C22.1261 11 21.2956 11.1869 20.5465 11.523C20.0422 11.7493 19.423 11.6341 19.1164 11.1743C18.8102 10.715 18.9318 10.0881 19.4255 9.84114C20.5013 9.30288 21.7154 9 23.0002 9C24.2851 9 25.4991 9.30288 26.575 9.84114ZM24 14C24 13.4477 23.5523 13 23 13C22.4477 13 22 13.4477 22 14V17H3C2.44772 17 2 17.4477 2 18V28C2 28.5523 2.44772 29 3 29H29C29.5523 29 30 28.5523 30 28V18C30 17.4477 29.5523 17 29 17H24V14ZM4 27V19H23H28V27H4ZM8 22C8 21.4477 7.55228 21 7 21C6.44772 21 6 21.4477 6 22V24C6 24.5523 6.44772 25 7 25C7.55228 25 8 24.5523 8 24V22ZM12 22C12 21.4477 11.5523 21 11 21C10.4477 21 10 21.4477 10 22V24C10 24.5523 10.4477 25 11 25C11.5523 25 12 24.5523 12 24V22Z" fill="#15172B"/>
</g>
</svg>
