<svg width="32" height="32" viewBox="0 0 32 32" fill="none" xmlns="http://www.w3.org/2000/svg" role="img" aria-label="Direction=Down" data-icon="directiondown" data-category="navigation">
  <title>Direction=Down</title>
  <desc>navigation icon from Comcast Business Design System</desc>
<g id="Direction=Down">
<path id="shape" d="M23.7073 7.29389C24.0734 7.66004 24.0961 8.23903 23.7757 8.63178L23.7073 8.70795L16.7073 15.7079C16.3413 16.0737 15.7621 16.0963 15.3694 15.7763L15.2933 15.707L8.29326 8.70697C7.90273 8.31644 7.90273 7.68343 8.29326 7.29291C8.6838 6.90254 9.31685 6.90243 9.70732 7.29291L16.0013 13.5859L22.2933 7.29389L22.3694 7.22455C22.7622 6.90453 23.3413 6.92788 23.7073 7.29389ZM23.7073 16.2929C24.0731 16.659 24.0958 17.2381 23.7757 17.6308L23.7073 17.707L16.7083 24.707L16.6351 24.7734C16.4573 24.9192 16.2331 24.9997 16.0013 24.9999C15.7362 24.9999 15.4808 24.8943 15.2933 24.707L8.29423 17.707C7.90371 17.3164 7.90371 16.6834 8.29423 16.2929C8.68479 15.9029 9.31793 15.9025 9.7083 16.2929L16.0013 22.5849L22.2933 16.2929L22.3694 16.2245C22.7622 15.9044 23.3413 15.9269 23.7073 16.2929Z" fill="#15172B"/>
</g>
</svg>
