<svg width="32" height="32" viewBox="0 0 32 32" fill="none" xmlns="http://www.w3.org/2000/svg" role="img" aria-label=".Double Chevron" data-icon="doublechevron" data-category="navigation">
  <title>.Double Chevron</title>
  <desc>navigation icon from Comcast Business Design System</desc>
<g id=".Double Chevron">
<path id="Union" d="M7.29331 8.29293C7.65944 7.92703 8.23851 7.90428 8.6312 8.22457L8.70737 8.29293L15.7074 15.2929C16.0976 15.6834 16.0976 16.3165 15.7074 16.707L8.70737 23.707C8.31691 24.0974 7.68382 24.0973 7.29331 23.707C6.90281 23.3165 6.90287 22.6835 7.29331 22.2929L13.5863 16L7.29331 9.70699L7.22495 9.63082C6.9046 9.23804 6.92719 8.65904 7.29331 8.29293ZM16.2923 8.29195C16.6583 7.92602 17.2375 7.90366 17.6302 8.22359L17.7064 8.29195L24.7074 15.2929C24.8946 15.4803 25.0003 15.7351 25.0003 16C25.0002 16.265 24.8948 16.5196 24.7074 16.707L17.7064 23.707C17.3159 24.0975 16.6828 24.0975 16.2923 23.707C15.9024 23.3164 15.902 22.6833 16.2923 22.2929L22.5853 15.999L16.2923 9.70601L16.224 9.62984C15.904 9.2371 15.9264 8.65792 16.2923 8.29195Z" fill="currentColor"/>
</g>
</svg>
