<svg width="32" height="32" viewBox="0 0 32 32" fill="none" xmlns="http://www.w3.org/2000/svg" role="img" aria-label="Ethernet" data-icon="ethernet" data-category="general">
  <title>Ethernet</title>
  <desc>general icon from Comcast Business Design System</desc>
<g id="Ethernet">
<path id="shape" fill-rule="evenodd" clip-rule="evenodd" d="M12 3C11.4477 3 11 3.44772 11 4V12C11 12.5523 11.4477 13 12 13H15V15H9C7.34315 15 6 16.3431 6 18V19H3C2.44772 19 2 19.4477 2 20V28C2 28.5523 2.44772 29 3 29H11C11.5523 29 12 28.5523 12 28V20C12 19.4477 11.5523 19 11 19H8V18C8 17.4477 8.44772 17 9 17H23C23.5523 17 24 17.4477 24 18V19H21C20.4477 19 20 19.4477 20 20V28C20 28.5523 20.4477 29 21 29H29C29.5523 29 30 28.5523 30 28V20C30 19.4477 29.5523 19 29 19H26V18C26 16.3431 24.6569 15 23 15H17V13H20C20.5523 13 21 12.5523 21 12V4C21 3.44772 20.5523 3 20 3H12ZM13 11V5H19V11H13ZM4 27V21H10V27H4ZM22 21V27H28V21H22Z" fill="#15172B"/>
</g>
</svg>
