<svg width="32" height="32" viewBox="0 0 32 32" fill="none" xmlns="http://www.w3.org/2000/svg" role="img" aria-label="Feedback" data-icon="feedback" data-category="navigation">
  <title>Feedback</title>
  <desc>navigation icon from Comcast Business Design System</desc>
<g id="Feedback">
<g id="shape">
<path fill-rule="evenodd" clip-rule="evenodd" d="M30.3299 2.58572C30.3115 2.35739 30.2149 2.13419 30.0403 1.95952C29.7538 1.67305 29.3368 1.59672 28.9807 1.73052L2.33616 11.0561C1.94916 11.1916 1.68405 11.5495 1.66734 11.9592C1.65063 12.3689 1.88569 12.7473 2.26037 12.9138L13.9089 18.0909L19.086 29.7395C19.2526 30.1141 19.6309 30.3492 20.0406 30.3325C20.4503 30.3158 20.8083 30.0507 20.9437 29.6637L30.27 3.0172C30.3217 2.87878 30.3417 2.73121 30.3299 2.58572ZM25.5274 5.05814L5.37758 12.1106L14.445 16.1406L25.5274 5.05814ZM15.8592 17.5548L26.9417 6.47229L19.8892 26.6222L15.8592 17.5548Z" fill="#15172B"/>
</g>
</g>
</svg>
