<svg width="32" height="32" viewBox="0 0 32 32" fill="none" xmlns="http://www.w3.org/2000/svg" role="img" aria-label="Fees" data-icon="fees" data-category="general">
  <title>Fees</title>
  <desc>general icon from Comcast Business Design System</desc>
<g id="Fees">
<g id="shape">
<path fill-rule="evenodd" clip-rule="evenodd" d="M12 12C7.58172 12 4 15.5817 4 20C4 24.4183 7.58172 28 12 28C16.4183 28 20 24.4183 20 20C20 15.5817 16.4183 12 12 12ZM2 20C2 14.4772 6.47715 10 12 10C17.5228 10 22 14.4772 22 20C22 25.5228 17.5228 30 12 30C6.47715 30 2 25.5228 2 20Z" fill="#15172B"/>
<path d="M15.3199 21.88C15.3199 22.536 15.0799 23.1 14.5999 23.572C14.1199 24.036 13.4279 24.324 12.5239 24.436V25.18C12.5239 25.5114 12.2553 25.78 11.9239 25.78Lnan nanL11.9239 25.78C11.5925 25.78 11.3239 25.5114 11.3239 25.18V24.472C10.7319 24.44 10.1679 24.336 9.63191 24.16C9.34584 24.0661 9.0894 23.9607 8.86258 23.844C8.53716 23.6766 8.44175 23.2772 8.59216 22.9436Lnan nanL8.59216 22.9436C8.79993 22.4827 9.38525 22.3303 9.8508 22.5273C9.92018 22.5567 9.99122 22.5849 10.0639 22.612C10.4719 22.764 10.8919 22.86 11.3239 22.9V20.896C10.7559 20.76 10.2759 20.608 9.88391 20.44C9.49191 20.272 9.16391 20.028 8.89991 19.708C8.63591 19.38 8.50391 18.948 8.50391 18.412C8.50391 17.748 8.74391 17.18 9.22391 16.708C9.71191 16.228 10.4119 15.936 11.3239 15.832V15.1C11.3239 14.7686 11.5925 14.5 11.9239 14.5Lnan nanL11.9239 14.5C12.2553 14.5 12.5239 14.7686 12.5239 15.1V15.808C13.2253 15.865 13.8393 16.0054 14.3659 16.229C14.7238 16.3811 14.8536 16.8016 14.7071 17.1619Lnan nanL14.7071 17.1619C14.5234 17.6138 13.9842 17.7924 13.5249 17.6278C13.1947 17.5095 12.8611 17.4309 12.5239 17.392V19.432C13.0839 19.56 13.5559 19.708 13.9399 19.876C14.3319 20.036 14.6599 20.28 14.9239 20.608C15.1879 20.928 15.3199 21.352 15.3199 21.88ZM10.4359 18.316C10.4359 18.516 10.5119 18.68 10.6639 18.808C10.8159 18.936 11.0359 19.044 11.3239 19.132V17.428C11.0199 17.5 10.7959 17.616 10.6519 17.776C10.5079 17.928 10.4359 18.108 10.4359 18.316ZM12.5239 22.852C12.8119 22.788 13.0279 22.684 13.1719 22.54C13.3159 22.396 13.3879 22.224 13.3879 22.024C13.3879 21.824 13.3119 21.66 13.1599 21.532C13.0159 21.404 12.8039 21.292 12.5239 21.196V22.852Z" fill="#15172B"/>
<path d="M13.0699 8.00073C14.4546 5.60691 17.0404 4 20.0002 4C24.4185 4 28.0002 7.58172 28.0002 12C28.0002 15.0426 26.302 17.6901 23.797 19.0436C23.3111 19.3061 23.1301 19.9128 23.3926 20.3987C23.6552 20.8846 24.2619 21.0657 24.7478 20.8032C27.8733 19.1144 30.0002 15.8063 30.0002 12C30.0002 6.47715 25.5231 2 20.0002 2C16.2976 2 13.0662 4.01288 11.3387 6.99927C11.0621 7.47733 11.2255 8.08906 11.7035 8.36561C12.1816 8.64215 12.7933 8.47879 13.0699 8.00073Z" fill="#15172B"/>
<path fill-rule="evenodd" clip-rule="evenodd" d="M23.984 12.88C23.984 13.536 23.744 14.1 23.264 14.572C23.1296 14.7019 22.9785 14.8181 22.8109 14.9204C22.4545 15.1379 22.0161 14.9273 21.8282 14.5546C21.6844 14.2694 21.7921 13.9754 21.9035 13.6713C21.9559 13.5283 22.0091 13.383 22.0373 13.2354C22.0492 13.1735 22.052 13.1046 22.052 13.024C22.052 12.824 21.976 12.66 21.824 12.532C21.68 12.404 21.468 12.292 21.188 12.196C20.8819 12.1088 20.5408 12.0277 20.2322 11.9544C20.1292 11.9299 20.0298 11.9063 19.9366 11.8836C18.5 11.5 17.5479 10.876 17.1936 9.80087C17.1765 9.67798 17.168 9.54836 17.168 9.412C17.168 8.748 17.408 8.18 17.888 7.708C18.376 7.228 19.076 6.936 19.988 6.832V6.1C19.988 5.76863 20.2566 5.5 20.588 5.5C20.9193 5.5 21.188 5.76863 21.188 6.1V6.808C21.8893 6.86502 22.5033 7.00537 23.0299 7.22904C23.3879 7.38106 23.5176 7.80163 23.3712 8.16188C23.1875 8.61384 22.6482 8.79242 22.189 8.62783C21.8588 8.50951 21.5251 8.4309 21.188 8.392V10.432C21.748 10.56 22.22 10.708 22.604 10.876C22.996 11.036 23.324 11.28 23.588 11.608C23.852 11.928 23.984 12.352 23.984 12.88ZM19.1 9.316C19.1 9.516 19.176 9.68 19.328 9.808C19.48 9.936 19.7 10.044 19.988 10.132V8.428C19.684 8.5 19.46 8.616 19.316 8.776C19.172 8.928 19.1 9.108 19.1 9.316Z" fill="#15172B"/>
</g>
</g>
</svg>
