<svg width="32" height="32" viewBox="0 0 32 32" fill="none" xmlns="http://www.w3.org/2000/svg" role="img" aria-label="Flow" data-icon="flow" data-category="general">
  <title>Flow</title>
  <desc>general icon from Comcast Business Design System</desc>
<g id="Flow">
<path id="shape" fill-rule="evenodd" clip-rule="evenodd" d="M16 5C14.8954 5 14 5.89543 14 7C14 8.10457 14.8954 9 16 9C17.1046 9 18 8.10457 18 7C18 5.89543 17.1046 5 16 5ZM12 7C12 4.79086 13.7909 3 16 3C18.2091 3 20 4.79086 20 7C20 8.86384 18.7252 10.4299 17 10.874V15H24C25.6569 15 27 16.3431 27 18V21.126C28.7252 21.5701 30 23.1362 30 25C30 27.2091 28.2091 29 26 29C23.7909 29 22 27.2091 22 25C22 23.1362 23.2748 21.5701 25 21.126V18C25 17.4477 24.5523 17 24 17H17V21.126C18.7252 21.5701 20 23.1362 20 25C20 27.2091 18.2091 29 16 29C13.7909 29 12 27.2091 12 25C12 23.1362 13.2748 21.5701 15 21.126V17H8C7.44772 17 7 17.4477 7 18V21.126C8.72523 21.5701 10 23.1362 10 25C10 27.2091 8.20914 29 6 29C3.79086 29 2 27.2091 2 25C2 23.1362 3.27477 21.5701 5 21.126V18C5 16.3431 6.34315 15 8 15H15V10.874C13.2748 10.4299 12 8.86384 12 7ZM16 23C14.8954 23 14 23.8954 14 25C14 26.1046 14.8954 27 16 27C17.1046 27 18 26.1046 18 25C18 23.8954 17.1046 23 16 23ZM4 25C4 23.8954 4.89543 23 6 23C7.10457 23 8 23.8954 8 25C8 26.1046 7.10457 27 6 27C4.89543 27 4 26.1046 4 25ZM26 23C24.8954 23 24 23.8954 24 25C24 26.1046 24.8954 27 26 27C27.1046 27 28 26.1046 28 25C28 23.8954 27.1046 23 26 23Z" fill="#15172B"/>
</g>
</svg>
