<svg width="32" height="32" viewBox="0 0 32 32" fill="none" xmlns="http://www.w3.org/2000/svg" role="img" aria-label="Gift" data-icon="gift" data-category="general">
  <title>Gift</title>
  <desc>general icon from Comcast Business Design System</desc>
<g id="Gift">
<path id="shape" fill-rule="evenodd" clip-rule="evenodd" d="M2 8C2 6.89543 2.89543 6 4 6H28C29.1046 6 30 6.89543 30 8V24C30 25.1046 29.1046 26 28 26H4C2.89543 26 2 25.1046 2 24V8ZM11 8H4V16H7.46172C7.25448 15.8121 7.06027 15.6174 6.88171 15.419C6.24892 14.7159 5.72738 13.8754 5.53782 12.9908C5.33901 12.063 5.51257 11.0732 6.29289 10.2929C6.6652 9.92058 7.10961 9.66606 7.61327 9.57612C8.11225 9.48702 8.58922 9.57363 9.00962 9.7488C9.78948 10.0737 10.4636 10.7373 11 11.457V8ZM13 8V12.0603C13.1642 11.8487 13.3347 11.6452 13.5101 11.4523C14.1906 10.7037 15.0097 10.0418 15.8824 9.73013C16.8089 9.39926 17.8699 9.45565 18.7071 10.2929C19.5444 11.1301 19.6007 12.1911 19.2699 13.1176C18.9582 13.9903 18.2963 14.8094 17.5477 15.4899C17.3548 15.6653 17.1513 15.8358 16.9397 16H28V8H13ZM28 18H13.6535C14.2195 18.7924 15.1012 19.6463 16.3162 20.0513C16.8402 20.226 17.1233 20.7923 16.9487 21.3162C16.774 21.8402 16.2077 22.1233 15.6838 21.9487C14.5861 21.5828 13.698 20.9735 13 20.2969V24H28V18ZM11 24V19.6003C10.2594 20.1998 9.30894 20.758 8.19612 20.9806C7.65456 21.0889 7.12773 20.7377 7.01942 20.1961C6.91111 19.6546 7.26232 19.1277 7.80388 19.0194C8.53263 18.8737 9.21425 18.4834 9.79762 18H4V24H11ZM13.2268 15.7732C13.4918 15.6865 13.7704 15.5751 14.057 15.4397C14.829 15.0747 15.5897 14.567 16.2023 14.0101C16.8287 13.4406 17.2293 12.8847 17.3864 12.4449C17.5243 12.0589 17.4556 11.8699 17.2929 11.7071C17.1301 11.5444 16.9411 11.4757 16.5551 11.6136C16.1153 11.7707 15.5594 12.1713 14.9899 12.7977C14.433 13.4103 13.9253 14.171 13.5603 14.943C13.4249 15.2296 13.3135 15.5082 13.2268 15.7732ZM10.8369 15.7712C10.5887 14.735 10.0772 13.5876 9.44126 12.7132C8.98681 12.0883 8.55678 11.7268 8.24038 11.595C8.09828 11.5357 8.01275 11.5364 7.96485 11.545C7.92164 11.5527 7.8348 11.5794 7.70711 11.7071C7.48743 11.9268 7.41099 12.187 7.49343 12.5717C7.58512 12.9996 7.87608 13.5341 8.36829 14.081C9.05431 14.8433 9.96851 15.457 10.8369 15.7712ZM19 21C19 20.4477 19.4477 20 20 20H25C25.5523 20 26 20.4477 26 21C26 21.5523 25.5523 22 25 22H20C19.4477 22 19 21.5523 19 21Z" fill="#15172B"/>
</g>
</svg>
