<svg width="32" height="32" viewBox="0 0 32 32" fill="none" xmlns="http://www.w3.org/2000/svg" role="img" aria-label="Headphones" data-icon="headphones" data-category="communication">
  <title>Headphones</title>
  <desc>communication icon from Comcast Business Design System</desc>
<g id="Headphones">
<path id="Vector 15 (Stroke)" fill-rule="evenodd" clip-rule="evenodd" d="M16 4C9.37258 4 4 9.37258 4 16V18H7C9.20914 18 11 19.7909 11 22V25.5C11 27.9853 8.98528 30 6.5 30C4.01472 30 2 27.9853 2 25.5V16C2 8.26801 8.26801 2 16 2C23.732 2 30 8.26801 30 16V25.5C30 27.9853 27.9853 30 25.5 30C23.0147 30 21 27.9853 21 25.5V22C21 19.7909 22.7909 18 25 18H28V16C28 9.37258 22.6274 4 16 4ZM28 20H25C23.8954 20 23 20.8954 23 22V25.5C23 26.8807 24.1193 28 25.5 28C26.8807 28 28 26.8807 28 25.5V20ZM4 20V25.5C4 26.8807 5.11929 28 6.5 28C7.88071 28 9 26.8807 9 25.5V22C9 20.8954 8.10457 20 7 20H4Z" fill="#15172B"/>
</g>
</svg>
