<svg width="32" height="32" viewBox="0 0 32 32" fill="none" xmlns="http://www.w3.org/2000/svg" role="img" aria-label="Increase" data-icon="increase" data-category="general">
  <title>Increase</title>
  <desc>general icon from Comcast Business Design System</desc>
<g id="Increase">
<path id="Vector 16 (Stroke)" fill-rule="evenodd" clip-rule="evenodd" d="M20 7C20 6.44772 20.4477 6 21 6H29C29.5523 6 30 6.44772 30 7V14C30 14.5523 29.5523 15 29 15C28.4477 15 28 14.5523 28 14V9.41421L18.7071 18.7071C18.3166 19.0976 17.6834 19.0976 17.2929 18.7071L12 13.4142L3.70711 21.7071C3.31658 22.0976 2.68342 22.0976 2.29289 21.7071C1.90237 21.3166 1.90237 20.6834 2.29289 20.2929L11.2929 11.2929C11.6834 10.9024 12.3166 10.9024 12.7071 11.2929L18 16.5858L26.5858 8H21C20.4477 8 20 7.55228 20 7Z" fill="#15172B"/>
</g>
</svg>
