<svg width="32" height="32" viewBox="0 0 32 32" fill="none" xmlns="http://www.w3.org/2000/svg" role="img" aria-label="Info Timer" data-icon="infotimer" data-category="status">
  <title>Info Timer</title>
  <desc>status icon from Comcast Business Design System</desc>
<g id="Info Timer">
<path id="Ellipse 18" d="M32 16C32 19.6018 30.7847 23.0982 28.5508 25.9236C26.3169 28.7489 23.195 30.7379 19.6903 31.5686C16.1856 32.3993 12.5031 32.0232 9.23874 30.5012C5.97434 28.9791 3.31898 26.4002 1.70231 23.1816C0.0856458 19.963 -0.397746 16.2931 0.330352 12.7656C1.05845 9.23818 2.95544 6.05959 5.71438 3.74416C8.47333 1.42874 11.9328 0.111936 15.5331 0.0068225C19.1333 -0.0982907 22.6638 1.01444 25.5531 3.16495L16 16H32Z" fill="white"/>
<g id="Shape">
<circle id="Ellipse 19" cx="16.1516" cy="16.1516" r="13.4849" fill="white"/>
<g id="Icon">
<path id="shape" fill-rule="evenodd" clip-rule="evenodd" d="M16 2.00001C23.732 2.00001 30 8.26801 30 16C30 23.732 23.732 30 16 30C8.26804 30 2.00003 23.732 2.00003 16C2.00003 8.26801 8.26804 2.00001 16 2.00001ZM14.5 10C14.5 9.17157 15.1716 8.5 16 8.5C16.8284 8.5 17.5 9.17157 17.5 10C17.5 10.8284 16.8284 11.5 16 11.5C15.1716 11.5 14.5 10.8284 14.5 10ZM14.5 22C14.5 22.8284 15.1716 23.5 16 23.5C16.8284 23.5 17.5 22.8284 17.5 22L17.5 15.5C17.5 14.6716 16.8284 14 16 14C15.1716 14 14.5 14.6716 14.5 15.5L14.5 22Z" fill="#0A4ECC"/>
</g>
</g>
</g>
</svg>
