<svg width="32" height="32" viewBox="0 0 32 32" fill="none" xmlns="http://www.w3.org/2000/svg" role="img" aria-label="Log In" data-icon="login" data-category="general">
  <title>Log In</title>
  <desc>general icon from Comcast Business Design System</desc>
<g id="Log In">
<path id="shape" fill-rule="evenodd" clip-rule="evenodd" d="M19 3C19 2.44772 19.4477 2 20 2H25.3333C26.3058 2 27.2384 2.38631 27.9261 3.07394C28.6137 3.76157 29 4.6942 29 5.66667L29 26.3333C29 27.3058 28.6137 28.2384 27.9261 28.9261C27.2384 29.6137 26.3058 30 25.3333 30H20C19.4477 30 19 29.5523 19 29C19 28.4477 19.4477 28 20 28H25.3333C25.7754 28 26.1993 27.8244 26.5118 27.5118C26.8244 27.1993 27 26.7754 27 26.3333L27 5.66667C27 5.22464 26.8244 4.80072 26.5118 4.48816C26.1993 4.17559 25.7754 4 25.3333 4H20C19.4477 4 19 3.55228 19 3ZM12.2929 8.29265C12.6834 7.90212 13.3166 7.90212 13.7071 8.29265L20.7073 15.2928C21.0978 15.6833 21.0978 16.3165 20.7073 16.707L13.7071 23.7072C13.3166 24.0977 12.6834 24.0977 12.2929 23.7072C11.9024 23.3167 11.9024 22.6835 12.2929 22.293L17.5859 17H4C3.44772 17 3 16.5523 3 16C3 15.4477 3.44772 15 4 15H17.586L12.2929 9.70686C11.9024 9.31634 11.9024 8.68317 12.2929 8.29265Z" fill="#15172B"/>
</g>
</svg>
