<svg width="32" height="32" viewBox="0 0 32 32" fill="none" xmlns="http://www.w3.org/2000/svg" role="img" aria-label="Menu" data-icon="menu" data-category="navigation">
  <title>Menu</title>
  <desc>navigation icon from Comcast Business Design System</desc>
<g id="Menu">
<path id="shape" d="M28.1025 23.0049C28.6067 23.0562 29 23.4823 29 24C29 24.5177 28.6067 24.9438 28.1025 24.9951L28 25H4C3.44772 25 3 24.5523 3 24C3 23.4477 3.44772 23 4 23H28L28.1025 23.0049ZM28.1025 15.0049C28.6067 15.0562 29 15.4823 29 16C29 16.5177 28.6067 16.9438 28.1025 16.9951L28 17H4C3.44772 17 3 16.5523 3 16C3 15.4477 3.44772 15 4 15H28L28.1025 15.0049ZM28.1025 7.00488C28.6067 7.05621 29 7.48232 29 8C29 8.51768 28.6067 8.94379 28.1025 8.99512L28 9H4C3.44772 9 3 8.55228 3 8C3 7.44772 3.44772 7 4 7H28L28.1025 7.00488Z" fill="#15172B"/>
</g>
</svg>
