<svg width="32" height="32" viewBox="0 0 32 32" fill="none" xmlns="http://www.w3.org/2000/svg" role="img" aria-label="Minimize" data-icon="minimize" data-category="general">
  <title>Minimize</title>
  <desc>general icon from Comcast Business Design System</desc>
<g id="Minimize">
<path id="shape" d="M14.1025 17.0049C14.6067 17.0562 15 17.4823 15 18V26.0001C15 26.5523 14.5523 27.0001 14 27.0001C13.4477 27.0001 13 26.5523 13 26.0001V20.4141L4.70697 28.7071C4.31644 29.0976 3.68342 29.0976 3.29289 28.7071C2.90237 28.3166 2.90237 27.6836 3.29289 27.293L11.5859 19H5.99994C5.44765 19 4.99994 18.5523 4.99994 18C4.99994 17.4477 5.44765 17 5.99994 17H14L14.1025 17.0049ZM27.293 3.29289C27.6836 2.90237 28.3166 2.90237 28.7071 3.29289C29.0976 3.68342 29.0976 4.31644 28.7071 4.70697L20.4141 13H26.0001C26.5523 13 27.0001 13.4477 27.0001 14C27.0001 14.5523 26.5523 15 26.0001 15H18C17.9433 15 17.8881 14.9934 17.834 14.9844C17.8236 14.9826 17.8131 14.9816 17.8027 14.9795C17.7912 14.9772 17.7799 14.9744 17.7686 14.9717C17.748 14.9668 17.7273 14.9622 17.707 14.956C17.6584 14.9412 17.6116 14.9222 17.5664 14.9004C17.5266 14.8812 17.4877 14.8597 17.4502 14.835C17.3126 14.7441 17.1989 14.6203 17.1201 14.4746C17.1127 14.4608 17.1064 14.4466 17.0996 14.4326C17.0778 14.3873 17.0578 14.3408 17.043 14.292C17.0303 14.2503 17.0218 14.2077 17.0147 14.165C17.0057 14.1113 17 14.0563 17 14V5.99994C17 5.44765 17.4477 4.99994 18 4.99994C18.5523 4.99994 19 5.44765 19 5.99994V11.5859L27.293 3.29289Z" fill="#15172B"/>
</g>
</svg>
