<svg width="16" height="16" viewBox="0 0 16 16" fill="none" xmlns="http://www.w3.org/2000/svg" role="img" aria-label="Minimize Alt" data-icon="minimizealt" data-category="general">
  <title>Minimize Alt</title>
  <desc>general icon from Comcast Business Design System</desc>
<g id="Minimize Alt">
<path id="shape" fill-rule="evenodd" clip-rule="evenodd" d="M1.46967 2.46967C1.76256 2.17678 2.23744 2.17678 2.53033 2.46967L8 7.93934L13.4697 2.46967C13.7626 2.17678 14.2374 2.17678 14.5303 2.46967C14.8232 2.76256 14.8232 3.23744 14.5303 3.53033L8 10.0607L1.46967 3.53033C1.17678 3.23744 1.17678 2.76256 1.46967 2.46967ZM1 13.25C1 12.8358 1.33579 12.5 1.75 12.5H14.25C14.6642 12.5 15 12.8358 15 13.25C15 13.6642 14.6642 14 14.25 14H1.75C1.33579 14 1 13.6642 1 13.25Z" fill="#F2616E"/>
</g>
</svg>
