<svg width="32" height="32" viewBox="0 0 32 32" fill="none" xmlns="http://www.w3.org/2000/svg" role="img" aria-label="Minus" data-icon="minus" data-category="general">
  <title>Minus</title>
  <desc>general icon from Comcast Business Design System</desc>
<g id="Minus">
<path id="shape" d="M25.3333 15C25.4493 15 25.5608 15.0203 25.6644 15.0566C25.7062 15.0713 25.7464 15.0895 25.7855 15.1094C25.851 15.1427 25.9128 15.1821 25.9691 15.2285C26.0522 15.2971 26.1236 15.379 26.181 15.4707C26.2772 15.6243 26.3333 15.8054 26.3333 16C26.3333 16.5176 25.94 16.9437 25.4359 16.9951L25.3333 17H6.66635L6.56381 16.9951C6.55987 16.9947 6.55602 16.9936 6.55209 16.9932C6.48958 16.9861 6.42893 16.9732 6.37045 16.9551C6.36553 16.9536 6.3607 16.9518 6.3558 16.9502C6.33189 16.9424 6.30858 16.9334 6.28549 16.9238C6.2686 16.9169 6.2521 16.9092 6.23569 16.9014C6.22555 16.8965 6.21536 16.8919 6.20541 16.8867C6.19012 16.8787 6.17531 16.8701 6.16049 16.8613C6.14496 16.8522 6.12958 16.843 6.11459 16.833C6.1066 16.8277 6.09898 16.8219 6.09116 16.8164C6.07478 16.8048 6.05893 16.7928 6.0433 16.7803C6.03388 16.7727 6.02412 16.7657 6.01498 16.7578C5.99924 16.7443 5.98395 16.7303 5.96909 16.7158C5.96216 16.7091 5.95531 16.7023 5.94858 16.6953C5.93446 16.6807 5.92078 16.6658 5.90756 16.6504C5.89945 16.6409 5.89091 16.6318 5.88315 16.6221C5.87184 16.6079 5.86146 16.593 5.85092 16.5781C5.84319 16.5672 5.83576 16.5561 5.82846 16.5449C5.78245 16.4743 5.74527 16.3978 5.71811 16.3164C5.71528 16.3079 5.71192 16.2996 5.70932 16.291C5.68133 16.1989 5.66635 16.1012 5.66635 16C5.66635 15.8962 5.68286 15.7963 5.71225 15.7021C5.71293 15.7 5.71254 15.6975 5.71323 15.6953C5.74157 15.6066 5.78187 15.5233 5.83237 15.4473C5.83571 15.4422 5.83967 15.4376 5.84311 15.4326C5.87503 15.3864 5.9105 15.3429 5.94955 15.3027C5.95597 15.2961 5.96249 15.2896 5.96909 15.2832C5.98395 15.2687 5.99925 15.2547 6.01498 15.2412C6.02412 15.2334 6.03389 15.2263 6.0433 15.2188C6.05893 15.2063 6.07479 15.1942 6.09116 15.1826C6.09876 15.1773 6.10586 15.1712 6.11362 15.166C6.13414 15.1524 6.15554 15.1401 6.17709 15.1279C6.18293 15.1246 6.18876 15.1213 6.19467 15.1182C6.24773 15.0897 6.30343 15.0655 6.36166 15.0469C6.3646 15.0459 6.3675 15.0449 6.37045 15.0439C6.42888 15.0259 6.48964 15.013 6.55209 15.0059C6.58956 15.0016 6.62774 15 6.66635 15H25.3333Z" fill="#15172B"/>
</g>
</svg>
