<svg width="32" height="32" viewBox="0 0 32 32" fill="none" xmlns="http://www.w3.org/2000/svg" role="img" aria-label="Notifications" data-icon="notifications" data-category="communication">
  <title>Notifications</title>
  <desc>communication icon from Comcast Business Design System</desc>
<g id="Notifications">
<path id="shape" fill-rule="evenodd" clip-rule="evenodd" d="M21 7.5C21 5.567 22.567 4 24.5 4C26.433 4 28 5.567 28 7.5C28 9.433 26.433 11 24.5 11C22.567 11 21 9.433 21 7.5ZM24.5 2C21.4624 2 19 4.46243 19 7.5C19 10.5376 21.4624 13 24.5 13C27.5376 13 30 10.5376 30 7.5C30 4.46243 27.5376 2 24.5 2ZM7.66667 4C6.69421 4 5.76158 4.38631 5.07394 5.07394C4.38631 5.76158 4 6.69421 4 7.66667V7.66669L4.00044 24.3333C4.00044 25.3057 4.38675 26.2383 5.07439 26.926C5.76202 27.6136 6.69465 27.9999 7.66711 27.9999H24.3338C25.3062 27.9999 26.2389 27.6136 26.9265 26.926C27.6141 26.2383 28.0004 25.3057 28.0004 24.3333V15.3333C28.0004 14.781 27.5527 14.3333 27.0004 14.3333C26.4482 14.3333 26.0004 14.781 26.0004 15.3333V24.3333C26.0004 24.7753 25.8249 25.1992 25.5123 25.5118C25.1997 25.8243 24.7758 25.9999 24.3338 25.9999H7.66711C7.22508 25.9999 6.80116 25.8243 6.4886 25.5118C6.17604 25.1992 6.00044 24.7753 6.00044 24.3333L6 7.66667V7.66664C6.00001 7.22462 6.1756 6.80071 6.48816 6.48816C6.80072 6.17559 7.22464 6 7.66667 6H16.6665C17.2187 6 17.6665 5.55228 17.6665 5C17.6665 4.44772 17.2187 4 16.6665 4H7.66667Z" fill="#15172B"/>
</g>
</svg>
