<svg width="32" height="32" viewBox="0 0 32 32" fill="none" xmlns="http://www.w3.org/2000/svg" role="img" aria-label="Percent" data-icon="percent" data-category="general">
  <title>Percent</title>
  <desc>general icon from Comcast Business Design System</desc>
<g id="Percent">
<g id="shape">
<path fill-rule="evenodd" clip-rule="evenodd" d="M8 12C10.2091 12 12 10.2091 12 8C12 5.79086 10.2091 4 8 4C5.79086 4 4 5.79086 4 8C4 10.2091 5.79086 12 8 12ZM8 10C9.10457 10 10 9.10457 10 8C10 6.89543 9.10457 6 8 6C6.89543 6 6 6.89543 6 8C6 9.10457 6.89543 10 8 10Z" fill="#15172B"/>
<path d="M26.7071 6.70711L6.70711 26.7071C6.31658 27.0976 5.68342 27.0976 5.29289 26.7071C4.90237 26.3166 4.90237 25.6834 5.29289 25.2929L25.2929 5.29289C25.6834 4.90237 26.3166 4.90237 26.7071 5.29289C27.0976 5.68342 27.0976 6.31658 26.7071 6.70711Z" fill="#15172B"/>
<path fill-rule="evenodd" clip-rule="evenodd" d="M28 24C28 26.2091 26.2091 28 24 28C21.7909 28 20 26.2091 20 24C20 21.7909 21.7909 20 24 20C26.2091 20 28 21.7909 28 24ZM26 24C26 25.1046 25.1046 26 24 26C22.8954 26 22 25.1046 22 24C22 22.8954 22.8954 22 24 22C25.1046 22 26 22.8954 26 24Z" fill="#15172B"/>
</g>
</g>
</svg>
