<svg width="32" height="32" viewBox="0 0 32 32" fill="none" xmlns="http://www.w3.org/2000/svg" role="img" aria-label="Play Circle" data-icon="playcircle" data-category="media">
  <title>Play Circle</title>
  <desc>media icon from Comcast Business Design System</desc>
<g id="Play Circle">
<g id="shape">
<path fill-rule="evenodd" clip-rule="evenodd" d="M13.3321 9.25192C12.8718 8.94507 12.2799 8.91646 11.7922 9.17749C11.3045 9.43852 11 9.94681 11 10.5V21.5C11 22.0532 11.3045 22.5615 11.7922 22.8225C12.2649 23.0755 12.8352 23.0564 13.289 22.7758L22.263 17.7902C22.2866 17.7771 22.3096 17.763 22.3321 17.7481C22.7493 17.4699 23 17.0015 23 16.5C23 15.9985 22.7493 15.5301 22.3321 15.2519L13.3321 9.25192ZM13 20.6484V11.4343L20.5388 16.4601L13 20.6484Z" fill="#15172B"/>
<path fill-rule="evenodd" clip-rule="evenodd" d="M16 2C8.26801 2 2 8.26801 2 16C2 23.732 8.26801 30 16 30C23.732 30 30 23.732 30 16C30 8.26801 23.732 2 16 2ZM4 16C4 9.37258 9.37258 4 16 4C22.6274 4 28 9.37258 28 16C28 22.6274 22.6274 28 16 28C9.37258 28 4 22.6274 4 16Z" fill="#15172B"/>
</g>
</g>
</svg>
