<svg width="32" height="32" viewBox="0 0 32 32" fill="none" xmlns="http://www.w3.org/2000/svg" role="img" aria-label="Portal" data-icon="portal" data-category="general">
  <title>Portal</title>
  <desc>general icon from Comcast Business Design System</desc>
<g id="Portal">
<path id="Union" fill-rule="evenodd" clip-rule="evenodd" d="M5 6H27C27.5523 6 28 6.44772 28 7V20C28 20.5523 27.5523 21 27 21H23V20C23 17.7909 21.2091 16 19 16H13C10.7909 16 9 17.7909 9 20V21H5C4.44772 21 4 20.5523 4 20V7C4 6.44772 4.44772 6 5 6ZM21 20V21H16H11V20C11 18.8954 11.8954 18 13 18H19C20.1046 18 21 18.8954 21 20ZM15 23H10H5C3.34315 23 2 21.6569 2 20V7C2 5.34315 3.34315 4 5 4H27C28.6569 4 30 5.34315 30 7V20C30 21.6569 28.6569 23 27 23H22H17V26H21C21.5523 26 22 26.4477 22 27C22 27.5523 21.5523 28 21 28H16H11C10.4477 28 10 27.5523 10 27C10 26.4477 10.4477 26 11 26H15V23ZM18 11C18 12.1046 17.1046 13 16 13C14.8954 13 14 12.1046 14 11C14 9.89543 14.8954 9 16 9C17.1046 9 18 9.89543 18 11ZM20 11C20 13.2091 18.2091 15 16 15C13.7909 15 12 13.2091 12 11C12 8.79086 13.7909 7 16 7C18.2091 7 20 8.79086 20 11Z" fill="#15172B"/>
</g>
</svg>
