<svg width="32" height="32" viewBox="0 0 32 32" fill="none" xmlns="http://www.w3.org/2000/svg" role="img" aria-label="Printer" data-icon="printer" data-category="general">
  <title>Printer</title>
  <desc>general icon from Comcast Business Design System</desc>
<g id="Printer">
<path id="shape" fill-rule="evenodd" clip-rule="evenodd" d="M8 2C7.44772 2 7 2.44772 7 3V11H5C3.34315 11 2 12.3431 2 14V23C2 24.6569 3.34315 26 5 26H7V29C7 29.5523 7.44772 30 8 30H24C24.5523 30 25 29.5523 25 29V26H27C28.6569 26 30 24.6569 30 23V14C30 12.3431 28.6569 11 27 11H25V3C25 2.44772 24.5523 2 24 2H8ZM25 24H27C27.5523 24 28 23.5523 28 23V14C28 13.4477 27.5523 13 27 13H24H8H5C4.44772 13 4 13.4477 4 14V23C4 23.5523 4.44772 24 5 24H7V19C7 18.4477 7.44772 18 8 18H24C24.5523 18 25 18.4477 25 19V24ZM9 25V28H23V25V20H9V25ZM23 11H9V4H23V11Z" fill="#15172B"/>
</g>
</svg>
