<svg width="32" height="32" viewBox="0 0 32 32" fill="none" xmlns="http://www.w3.org/2000/svg" role="img" aria-label="QR Code" data-icon="qrcode" data-category="general">
  <title>QR Code</title>
  <desc>general icon from Comcast Business Design System</desc>
<g id="QR Code">
<g id="shape">
<path d="M5 2C3.34315 2 2 3.34315 2 5V10H4V5C4 4.44772 4.44772 4 5 4H10V2H5Z" fill="#15172B"/>
<path d="M2 27C2 28.6569 3.34315 30 5 30H10V28H5C4.44772 28 4 27.5523 4 27V22H2V27Z" fill="#15172B"/>
<path d="M27 2C28.6569 2 30 3.34315 30 5V10H28V5C28 4.44772 27.5523 4 27 4H22V2H27Z" fill="#15172B"/>
<path d="M30 27C30 28.6569 28.6569 30 27 30H22V28H27C27.5523 28 28 27.5523 28 27V22H30V27Z" fill="#15172B"/>
<path d="M20 18H18V20H20V22H18V24H20V26H22V24H20V22H22V20H24V22H26V20H24V18H22V20H20V18Z" fill="#15172B"/>
<path d="M21 9H23V11H21V9Z" fill="#15172B"/>
<path fill-rule="evenodd" clip-rule="evenodd" d="M18 14V6H26V14H18ZM20 8H24V12H20V8Z" fill="#15172B"/>
<path d="M26 24H24V26H26V24Z" fill="#15172B"/>
<path d="M11 21H9V23H11V21Z" fill="#15172B"/>
<path fill-rule="evenodd" clip-rule="evenodd" d="M6 18V26H14V18H6ZM8 24H12V20H8V24Z" fill="#15172B"/>
<path d="M9 9H11V11H9V9Z" fill="#15172B"/>
<path fill-rule="evenodd" clip-rule="evenodd" d="M6 6V14H14V6H6ZM12 8H8V12H12V8Z" fill="#15172B"/>
</g>
</g>
</svg>
