<svg width="32" height="32" viewBox="0 0 32 32" fill="none" xmlns="http://www.w3.org/2000/svg" role="img" aria-label="Refresh" data-icon="refresh" data-category="general">
  <title>Refresh</title>
  <desc>general icon from Comcast Business Design System</desc>
<g id="Refresh">
<path id="shape" d="M29.1025 18.0049C29.6067 18.0562 30 18.4823 30 19V27C30 27.5523 29.5523 28 29 28C28.4477 28 28 27.5523 28 27V21.9131C25.3068 25.9317 21.1161 28.9999 16 29C10.515 29 5.82571 25.6034 3.91602 20.8018L3.74023 20.333L3.71094 20.2354C3.591 19.7428 3.86134 19.2302 4.34961 19.0576C4.83787 18.8851 5.37069 19.1137 5.58691 19.5723L5.625 19.667L5.77441 20.0635C7.39124 24.1286 11.3616 27 16 27C20.5617 26.9999 24.43 24.0544 26.8457 20H21C20.4477 20 20 19.5523 20 19C20 18.4477 20.4477 18 21 18H29L29.1025 18.0049ZM16 3C21.485 3.00009 26.1744 6.39656 28.084 11.1982L28.2598 11.667L28.2891 11.7646C28.4089 12.2571 28.1384 12.7697 27.6504 12.9424C27.1622 13.1149 26.6294 12.8862 26.4131 12.4277L26.374 12.333L26.2246 11.9365C24.6078 7.87161 20.6382 5.00009 16 5C11.4382 5 7.57002 7.94545 5.1543 12H11C11.5523 12 12 12.4477 12 13C12 13.5523 11.5523 14 11 14H3C2.44772 14 2 13.5523 2 13V5C2 4.44772 2.44772 4 3 4C3.55228 4 4 4.44772 4 5V10.0859C6.69317 6.06757 10.884 3 16 3Z" fill="#15172B"/>
</g>
</svg>
