<svg width="32" height="32" viewBox="0 0 32 32" fill="none" xmlns="http://www.w3.org/2000/svg" role="img" aria-label="Remote" data-icon="remote" data-category="general">
  <title>Remote</title>
  <desc>general icon from Comcast Business Design System</desc>
<g id="Remote">
<path id="shape" fill-rule="evenodd" clip-rule="evenodd" d="M21.3227 5.53569C17.6504 2.15477 12.3496 2.15477 8.67733 5.53569C8.27102 5.90976 7.63839 5.88363 7.26432 5.47732C6.89024 5.07101 6.91637 4.43839 7.32268 4.06431C11.7605 -0.0214376 18.2395 -0.0214376 22.6773 4.06431C23.0836 4.43839 23.1098 5.07101 22.7357 5.47732C22.3616 5.88363 21.729 5.90976 21.3227 5.53569ZM12 10H18C19.6569 10 21 11.3431 21 13V27C21 28.6569 19.6569 30 18 30H12C10.3431 30 9 28.6569 9 27V13C9 11.3431 10.3431 10 12 10ZM12 12C11.4477 12 11 12.4477 11 13V24.5H19V13C19 12.4477 18.5523 12 18 12H12ZM19 26.5H11V27C11 27.5523 11.4477 28 12 28H18C18.5523 28 19 27.5523 19 27V26.5ZM12.2703 7.77708C13.899 6.74097 16.1014 6.74097 17.7301 7.77708C18.1961 8.07351 18.8142 7.93607 19.1106 7.47008C19.407 7.00409 19.2696 6.38602 18.8036 6.08959C16.5199 4.6368 13.4805 4.6368 11.1968 6.08959C10.7308 6.38602 10.5933 7.00409 10.8898 7.47008C11.1862 7.93607 11.8043 8.07351 12.2703 7.77708ZM12.5396 15.6982C12.7302 15.8891 12.9896 16 13.25 16C13.5104 16 13.7708 15.8891 13.9604 15.6982C14.1396 15.5165 14.25 15.2547 14.25 14.994C14.25 14.7219 14.1396 14.4704 13.9604 14.2795C13.5896 13.9068 12.9104 13.9068 12.5396 14.2795C12.3604 14.4704 12.25 14.7219 12.25 14.994C12.25 15.2547 12.3604 15.5165 12.5396 15.6982ZM13.25 19.5C12.9896 19.5 12.7302 19.3891 12.5396 19.1982C12.3604 19.0165 12.25 18.7547 12.25 18.494C12.25 18.2219 12.3604 17.9704 12.5396 17.7795C12.9104 17.4068 13.5896 17.4068 13.9604 17.7795C14.1396 17.9704 14.25 18.2219 14.25 18.494C14.25 18.7547 14.1396 19.0165 13.9604 19.1982C13.7708 19.3891 13.5104 19.5 13.25 19.5ZM12.5396 22.6982C12.7302 22.8891 12.9896 23 13.25 23C13.5104 23 13.7708 22.8891 13.9604 22.6982C14.1396 22.5165 14.25 22.2547 14.25 21.994C14.25 21.7219 14.1396 21.4704 13.9604 21.2795C13.5896 20.9068 12.9104 20.9068 12.5396 21.2795C12.3604 21.4704 12.25 21.7219 12.25 21.994C12.25 22.2547 12.3604 22.5165 12.5396 22.6982ZM16.75 16C16.4896 16 16.2302 15.8891 16.0396 15.6982C15.8604 15.5165 15.75 15.2547 15.75 14.994C15.75 14.7219 15.8604 14.4704 16.0396 14.2795C16.4104 13.9068 17.0896 13.9068 17.4604 14.2795C17.6396 14.4704 17.75 14.7219 17.75 14.994C17.75 15.2547 17.6396 15.5165 17.4604 15.6982C17.2708 15.8891 17.0104 16 16.75 16ZM16.0396 19.1982C16.2302 19.3891 16.4896 19.5 16.75 19.5C17.0104 19.5 17.2708 19.3891 17.4604 19.1982C17.6396 19.0165 17.75 18.7547 17.75 18.494C17.75 18.2219 17.6396 17.9704 17.4604 17.7795C17.0896 17.4068 16.4104 17.4068 16.0396 17.7795C15.8604 17.9704 15.75 18.2219 15.75 18.494C15.75 18.7547 15.8604 19.0165 16.0396 19.1982ZM16.75 23C16.4896 23 16.2302 22.8891 16.0396 22.6982C15.8604 22.5165 15.75 22.2547 15.75 21.994C15.75 21.7219 15.8604 21.4704 16.0396 21.2795C16.4104 20.9068 17.0896 20.9068 17.4604 21.2795C17.6396 21.4704 17.75 21.7219 17.75 21.994C17.75 22.2547 17.6396 22.5165 17.4604 22.6982C17.2708 22.8891 17.0104 23 16.75 23Z" fill="#15172B"/>
</g>
</svg>
