<svg width="32" height="32" viewBox="0 0 32 32" fill="none" xmlns="http://www.w3.org/2000/svg" role="img" aria-label="Shopping Bag" data-icon="shoppingbag" data-category="commerce">
  <title>Shopping Bag</title>
  <desc>commerce icon from Comcast Business Design System</desc>
<g id="Shopping Bag">
<path id="shape" fill-rule="evenodd" clip-rule="evenodd" d="M7.2 4.4C7.38885 4.14819 7.68524 4 8 4H24C24.3148 4 24.6111 4.14819 24.8 4.4L27.8 8.4C27.9298 8.5731 28 8.78363 28 9V26C28 27.1046 27.1046 28 26 28H6C4.89543 28 4 27.1046 4 26V9C4 8.78363 4.07018 8.5731 4.2 8.4L7.2 4.4ZM8.5 6L7 8H25L23.5 6H8.5ZM26 10H6V26H26V10ZM12 13C12.5523 13 13 13.4477 13 14V16C13 17.6569 14.3431 19 16 19C17.6569 19 19 17.6569 19 16V14C19 13.4477 19.4477 13 20 13C20.5523 13 21 13.4477 21 14V16C21 18.7614 18.7614 21 16 21C13.2386 21 11 18.7614 11 16V14C11 13.4477 11.4477 13 12 13Z" fill="#15172B"/>
</g>
</svg>
