<svg width="24" height="24" viewBox="0 0 24 24" fill="none" xmlns="http://www.w3.org/2000/svg" role="img" aria-label="Size=M - 24" data-icon="sizem24" data-category="general">
  <title>Size=M - 24</title>
  <desc>general icon from Comcast Business Design System</desc>
<g id="Size=M - 24">
<g id="Icon">
<path id="shape" fill-rule="evenodd" clip-rule="evenodd" d="M18.5303 3.40165C18.7875 3.14448 19.1363 3 19.5 3C19.8637 3 20.2125 3.14448 20.4697 3.40165C20.7268 3.65882 20.8713 4.00762 20.8713 4.37132C20.8713 4.73502 20.7268 5.08382 20.4697 5.34099L11.1166 14.6941L8.53078 15.3405L9.17722 12.7548L18.5303 3.40165ZM19.5 1.5C18.7385 1.5 18.0081 1.80251 17.4697 2.34099L7.96967 11.841C7.87355 11.9371 7.80536 12.0575 7.77239 12.1894L6.77239 16.1894C6.7085 16.445 6.78338 16.7154 6.96967 16.9017C7.15596 17.0879 7.42632 17.1628 7.6819 17.0989L11.6819 16.0989C11.8138 16.066 11.9342 15.9978 12.0303 15.9017L21.5303 6.40165C22.0688 5.86317 22.3713 5.13284 22.3713 4.37132C22.3713 3.6098 22.0688 2.87947 21.5303 2.34099C20.9919 1.80251 20.2615 1.5 19.5 1.5ZM4.25 3C3.52065 3 2.82118 3.28973 2.30546 3.80546C1.78973 4.32118 1.5 5.02065 1.5 5.75V5.75002L1.50033 19.75C1.50033 20.4793 1.79006 21.1788 2.30579 21.6945C2.82152 22.2102 3.52099 22.4999 4.25033 22.4999H18.2503C18.9797 22.4999 19.6792 22.2102 20.1949 21.6945C20.7106 21.1788 21.0003 20.4793 21.0003 19.7499V13C21.0003 12.5858 20.6645 12.25 20.2503 12.25C19.8361 12.25 19.5003 12.5858 19.5003 13V19.7499C19.5003 20.0815 19.3686 20.3994 19.1342 20.6338C18.8998 20.8682 18.5819 20.9999 18.2503 20.9999H4.25033C3.91881 20.9999 3.60087 20.8682 3.36645 20.6338C3.13203 20.3994 3.00033 20.0815 3.00033 19.7499L3 5.75V5.74998C3 5.41847 3.1317 5.10053 3.36612 4.86612C3.60054 4.6317 3.91848 4.5 4.25 4.5H10.9998C11.4141 4.5 11.7498 4.16421 11.7498 3.75C11.7498 3.33579 11.4141 3 10.9998 3H4.25Z" fill="#15172B"/>
</g>
</g>
</svg>
