<svg width="32" height="32" viewBox="0 0 32 32" fill="none" xmlns="http://www.w3.org/2000/svg" role="img" aria-label="Size=L - 32" data-icon="sizel32" data-category="general">
  <title>Size=L - 32</title>
  <desc>general icon from Comcast Business Design System</desc>
<g id="Size=L - 32">
<g id="Icon">
<path id="shape" fill-rule="evenodd" clip-rule="evenodd" d="M24.7071 4.53553C25.05 4.19264 25.5151 4 26 4C26.4849 4 26.95 4.19264 27.2929 4.53553C27.6358 4.87843 27.8284 5.3435 27.8284 5.82843C27.8284 6.31336 27.6358 6.77842 27.2929 7.12132L14.8221 19.5921L11.3744 20.4541L12.2363 17.0063L24.7071 4.53553ZM26 2C24.9846 2 24.0109 2.40335 23.2929 3.12132L10.6262 15.788C10.4981 15.9161 10.4071 16.0767 10.3632 16.2526L9.02986 21.5859C8.94466 21.9267 9.04451 22.2872 9.29289 22.5355C9.54127 22.7839 9.90176 22.8838 10.2425 22.7986L15.5759 21.4652C15.7517 21.4213 15.9123 21.3304 16.0404 21.2022L28.7071 8.53553C29.4251 7.81757 29.8284 6.84379 29.8284 5.82843C29.8284 4.81306 29.4251 3.83929 28.7071 3.12132C27.9891 2.40335 27.0154 2 26 2ZM5.66667 4C4.69421 4 3.76158 4.38631 3.07394 5.07394C2.38631 5.76158 2 6.69421 2 7.66667V7.66669L2.00044 26.3333C2.00044 27.3057 2.38675 28.2383 3.07439 28.926C3.76202 29.6136 4.69465 29.9999 5.66711 29.9999H24.3338C25.3062 29.9999 26.2389 29.6136 26.9265 28.926C27.6141 28.2383 28.0004 27.3057 28.0004 26.3333V17.3333C28.0004 16.781 27.5527 16.3333 27.0004 16.3333C26.4482 16.3333 26.0004 16.781 26.0004 17.3333V26.3333C26.0004 26.7753 25.8249 27.1992 25.5123 27.5118C25.1997 27.8243 24.7758 27.9999 24.3338 27.9999H5.66711C5.22508 27.9999 4.80116 27.8243 4.4886 27.5118C4.17604 27.1992 4.00044 26.7753 4.00044 26.3333L4 7.66667V7.66664C4.00001 7.22462 4.1756 6.80071 4.48816 6.48816C4.80072 6.17559 5.22464 6 5.66667 6H14.6665C15.2187 6 15.6665 5.55228 15.6665 5C15.6665 4.44772 15.2187 4 14.6665 4H5.66667Z" fill="#15172B"/>
</g>
</g>
</svg>
