<svg width="32" height="32" viewBox="0 0 32 32" fill="none" xmlns="http://www.w3.org/2000/svg" role="img" aria-label="Static IP" data-icon="staticip" data-category="general">
  <title>Static IP</title>
  <desc>general icon from Comcast Business Design System</desc>
<g id="Static IP">
<path id="shape" fill-rule="evenodd" clip-rule="evenodd" d="M2 3C2 2.44772 2.44772 2 3 2H29C29.5523 2 30 2.44772 30 3V10.5C30 11.0523 29.5523 11.5 29 11.5H3C2.44772 11.5 2 11.0523 2 10.5V3ZM4 4V9.5H28V4H4ZM28 20H16H4V15H28V20ZM15 26.2676C14.4022 26.6134 14 27.2597 14 28C14 29.1046 14.8954 30 16 30C17.1046 30 18 29.1046 18 28C18 27.2597 17.5978 26.6134 17 26.2676V22H29C29.5523 22 30 21.5523 30 21V14C30 13.4477 29.5523 13 29 13H3C2.44772 13 2 13.4477 2 14V21C2 21.5523 2.44772 22 3 22H15V26.2676ZM2 29C2 28.4477 2.44772 28 3 28H12C12.5523 28 13 28.4477 13 29C13 29.5523 12.5523 30 12 30H3C2.44772 30 2 29.5523 2 29ZM19 29C19 28.4477 19.4477 28 20 28H29C29.5523 28 30 28.4477 30 29C30 29.5523 29.5523 30 29 30H20C19.4477 30 19 29.5523 19 29ZM26 17.5C26 18.0523 25.5523 18.5 25 18.5C24.4477 18.5 24 18.0523 24 17.5C24 16.9477 24.4477 16.5 25 16.5C25.5523 16.5 26 16.9477 26 17.5ZM25 7.5C25.5523 7.5 26 7.05228 26 6.5C26 5.94772 25.5523 5.5 25 5.5C24.4477 5.5 24 5.94772 24 6.5C24 7.05228 24.4477 7.5 25 7.5Z" fill="#15172B"/>
</g>
</svg>
