<svg width="32" height="32" viewBox="0 0 32 32" fill="none" xmlns="http://www.w3.org/2000/svg" role="img" aria-label="Style=Outlined" data-icon="styleoutlined" data-category="general">
  <title>Style=Outlined</title>
  <desc>general icon from Comcast Business Design System</desc>
<g id="Style=Outlined">
<path id="shape" fill-rule="evenodd" clip-rule="evenodd" d="M9.57143 4C8.71394 4 8 4.7059 8 5.6V26.4C8 27.2941 8.71394 28 9.57143 28H22.4286C23.2861 28 24 27.2941 24 26.4V5.6C24 4.7059 23.2861 4 22.4286 4H9.57143ZM6 5.6C6 3.62222 7.58859 2 9.57143 2H22.4286C24.4114 2 26 3.62222 26 5.6V26.4C26 28.3778 24.4114 30 22.4286 30H9.57143C7.58859 30 6 28.3778 6 26.4V5.6ZM15 24C15 23.4477 15.4477 23 16 23H16.0133C16.5656 23 17.0133 23.4477 17.0133 24C17.0133 24.5523 16.5656 25 16.0133 25H16C15.4477 25 15 24.5523 15 24Z" fill="#15172B"/>
</g>
</svg>
