<svg width="32" height="32" viewBox="0 0 32 32" fill="none" xmlns="http://www.w3.org/2000/svg" role="img" aria-label="Style=Outline" data-icon="styleoutline" data-category="general">
  <title>Style=Outline</title>
  <desc>general icon from Comcast Business Design System</desc>
<g id="Style=Outline">
<g id="shape">
<path fill-rule="evenodd" clip-rule="evenodd" d="M19 10C19 13.3137 16.3137 16 13 16C9.68629 16 7 13.3137 7 10C7 6.68629 9.68629 4 13 4C16.3137 4 19 6.68629 19 10ZM17 10C17 12.2091 15.2091 14 13 14C10.7909 14 9 12.2091 9 10C9 7.79086 10.7909 6 13 6C15.2091 6 17 7.79086 17 10Z" fill="#15172B"/>
<path d="M5.5 24C5.5 21.7909 7.29086 20 9.5 20H16.5C18.7091 20 20.5 21.7909 20.5 24V27C20.5 27.5523 20.9477 28 21.5 28C22.0523 28 22.5 27.5523 22.5 27V24C22.5 20.6863 19.8137 18 16.5 18H9.5C6.18629 18 3.5 20.6863 3.5 24V27C3.5 27.5523 3.94772 28 4.5 28C5.05228 28 5.5 27.5523 5.5 27V24Z" fill="#15172B"/>
<path d="M22.5 19C22.5 18.4477 22.9477 18 23.5 18H24C26.7614 18 29 20.2386 29 23V27C29 27.5523 28.5523 28 28 28C27.4477 28 27 27.5523 27 27V23C27 21.3431 25.6569 20 24 20H23.5C22.9477 20 22.5 19.5523 22.5 19Z" fill="#15172B"/>
<path d="M21.216 5.02355C20.6767 4.9044 20.1429 5.24498 20.0238 5.78426C19.9046 6.32354 20.2452 6.8573 20.7845 6.97645C21.9934 7.24355 23.0002 8.44719 23.0002 10C23.0002 11.5528 21.9934 12.7564 20.7845 13.0235C20.2452 13.1427 19.9046 13.6765 20.0238 14.2157C20.1429 14.755 20.6767 15.0956 21.216 14.9764C23.4304 14.4872 25.0002 12.3965 25.0002 10C25.0002 7.60347 23.4304 5.51281 21.216 5.02355Z" fill="#15172B"/>
</g>
</g>
</svg>
