<svg width="32" height="32" viewBox="0 0 32 32" fill="none" xmlns="http://www.w3.org/2000/svg" role="img" aria-label="Style=Filled" data-icon="stylefilled" data-category="general">
  <title>Style=Filled</title>
  <desc>general icon from Comcast Business Design System</desc>
<g id="Style=Filled">
<g id="shape">
<path d="M22 19C22 18.4477 22.4477 18 23 18H23.5C26.2614 18 28.5 20.2386 28.5 23V27C28.5 27.5523 28.0523 28 27.5 28C26.9477 28 26.5 27.5523 26.5 27V23C26.5 21.3431 25.1569 20 23.5 20H23C22.4477 20 22 19.5523 22 19Z" fill="#15172B"/>
<path d="M20.716 5.02355C20.1767 4.9044 19.6429 5.24498 19.5238 5.78426C19.4046 6.32354 19.7452 6.8573 20.2845 6.97645C21.4934 7.24355 22.5002 8.44719 22.5002 10C22.5002 11.5528 21.4934 12.7564 20.2845 13.0235C19.7452 13.1427 19.4046 13.6765 19.5238 14.2157C19.6429 14.755 20.1767 15.0956 20.716 14.9765C22.9304 14.4872 24.5002 12.3965 24.5002 10C24.5002 7.60347 22.9304 5.51281 20.716 5.02355Z" fill="#15172B"/>
</g>
<g id="Layer_1" clip-path="url(#clip0_1258_27444)">
<path id="Vector" d="M12.8121 16.0217C9.56702 16.0217 6.93635 13.3306 6.93635 10.0109C6.93635 6.69115 9.56702 4 12.8121 4C16.0572 4 18.6879 6.69115 18.6879 10.0109C18.6879 13.3306 16.0572 16.0217 12.8121 16.0217Z" fill="#15172B"/>
<path id="Vector_2" d="M17.2666 17.9747H8.39996C5.69542 17.9747 3.49996 20.2207 3.49996 22.9874V26.9059C3.49996 27.5096 3.97935 28 4.56948 28H21.0971C21.6872 28 22.1666 27.5096 22.1666 26.9059V22.9874C22.1666 20.2207 19.9712 17.9747 17.2666 17.9747Z" fill="#15172B"/>
</g>
</g>
<defs>
<clipPath id="clip0_1258_27444">
<rect width="18.6667" height="24" fill="white" transform="matrix(-1 0 0 1 22.1666 4)"/>
</clipPath>
</defs>
</svg>
