<svg width="32" height="32" viewBox="0 0 32 32" fill="none" xmlns="http://www.w3.org/2000/svg" role="img" aria-label="Switch Accounts" data-icon="switchaccounts" data-category="interface">
  <title>Switch Accounts</title>
  <desc>interface icon from Comcast Business Design System</desc>
<g id="Switch Accounts">
<g id="shape">
<path d="M30 9C30 9.27664 29.8877 9.52704 29.7061 9.70808L24.7071 14.7071C24.3166 15.0976 23.6834 15.0976 23.2929 14.7071C22.9024 14.3166 22.9024 13.6834 23.2929 13.2929L26.5858 10L11 10C10.4477 10 10 9.55228 10 9C10 8.44771 10.4477 8 11 8L26.5858 8L23.2929 4.70711C22.9024 4.31658 22.9024 3.68342 23.2929 3.29289C23.6834 2.90237 24.3166 2.90237 24.7071 3.29289L29.7071 8.29289L29.7157 8.30158C29.8916 8.48182 30 8.72825 30 9Z" fill="#15172B"/>
<path d="M2 23C2 22.7234 2.11233 22.473 2.29387 22.2919L7.29289 17.2929C7.68342 16.9024 8.31658 16.9024 8.70711 17.2929C9.09763 17.6834 9.09763 18.3166 8.70711 18.7071L5.41421 22H21C21.5523 22 22 22.4477 22 23C22 23.5523 21.5523 24 21 24H5.41421L8.70711 27.2929C9.09763 27.6834 9.09763 28.3166 8.70711 28.7071C8.31658 29.0976 7.68342 29.0976 7.29289 28.7071L2.29289 23.7071L2.28431 23.6984C2.1084 23.5182 2 23.2717 2 23Z" fill="#15172B"/>
</g>
</g>
</svg>
