<svg width="32" height="32" viewBox="0 0 32 32" fill="none" xmlns="http://www.w3.org/2000/svg" role="img" aria-label="Ticket Icon" data-icon="ticketicon" data-category="general">
  <title>Ticket Icon</title>
  <desc>general icon from Comcast Business Design System</desc>
<g id="Ticket Icon">
<g id="shape">
<path d="M10 10H12V22H10V10Z" fill="#15172B"/>
<path fill-rule="evenodd" clip-rule="evenodd" d="M2 9C2 8.44772 2.44772 8 3 8H29C29.5523 8 30 8.44772 30 9V14C30 14.5523 29.5523 15 29 15C28.4477 15 28 15.4477 28 16C28 16.5523 28.4477 17 29 17C29.5523 17 30 17.4477 30 18V23C30 23.5523 29.5523 24 29 24H3C2.44772 24 2 23.5523 2 23V18C2 17.4477 2.44772 17 3 17C3.55228 17 4 16.5523 4 16C4 15.4477 3.55228 15 3 15C2.44772 15 2 14.5523 2 14V9ZM28 18.8293C26.8348 18.4175 26 17.3062 26 16C26 14.6938 26.8348 13.5825 28 13.1707V10H4V13.1707C5.16519 13.5825 6 14.6938 6 16C6 17.3062 5.16519 18.4175 4 18.8293V22H28V18.8293Z" fill="#15172B"/>
<path d="M15 15C14.4477 15 14 14.5523 14 14C14 13.4477 14.4477 13 15 13H19C19.5523 13 20 13.4477 20 14C20 14.5523 19.5523 15 19 15H15Z" fill="#15172B"/>
<path d="M14 18C14 18.5523 14.4477 19 15 19H23C23.5523 19 24 18.5523 24 18C24 17.4477 23.5523 17 23 17H15C14.4477 17 14 17.4477 14 18Z" fill="#15172B"/>
</g>
</g>
</svg>
