<svg width="32" height="32" viewBox="0 0 32 32" fill="none" xmlns="http://www.w3.org/2000/svg" role="img" aria-label="Toggle" data-icon="toggle" data-category="general">
  <title>Toggle</title>
  <desc>general icon from Comcast Business Design System</desc>
<g id="Toggle">
<g id="shape">
<path fill-rule="evenodd" clip-rule="evenodd" d="M16 16C16 13.2386 18.2386 11 21 11C23.7614 11 26 13.2386 26 16C26 18.7614 23.7614 21 21 21C18.2386 21 16 18.7614 16 16ZM21 19C19.3431 19 18 17.6569 18 16C18 14.3431 19.3431 13 21 13C22.6569 13 24 14.3431 24 16C24 17.6569 22.6569 19 21 19Z" fill="#15172B"/>
<path fill-rule="evenodd" clip-rule="evenodd" d="M21 7H11C6.02944 7 2 11.0294 2 16C2 20.9706 6.02944 25 11 25H21C25.9706 25 30 20.9706 30 16C30 11.0294 25.9706 7 21 7ZM4 16C4 12.134 7.13401 9 11 9H21C24.866 9 28 12.134 28 16C28 19.866 24.866 23 21 23H11C7.13401 23 4 19.866 4 16Z" fill="#15172B"/>
</g>
</g>
</svg>
