<svg width="32" height="32" viewBox="0 0 32 32" fill="none" xmlns="http://www.w3.org/2000/svg" role="img" aria-label="Tool" data-icon="tool" data-category="general">
  <title>Tool</title>
  <desc>general icon from Comcast Business Design System</desc>
<g id="Tool">
<path id="shape" fill-rule="evenodd" clip-rule="evenodd" d="M22.6752 4.12209C21.8742 3.96557 21.0466 3.95864 20.2349 4.10653C18.9196 4.34618 17.7086 4.98099 16.7632 5.92636C15.8179 6.87172 15.183 8.08275 14.9434 9.39805C14.7037 10.7133 14.8706 12.0704 15.4218 13.2885C15.5934 13.6677 15.5122 14.1135 15.2179 14.4079L6.49173 23.134C6.17688 23.4488 6 23.8759 6 24.3211C6 24.7664 6.17688 25.1934 6.49173 25.5083C6.80658 25.8231 7.2336 26 7.67886 26C8.12412 26 8.55115 25.8231 8.866 25.5083L17.5921 16.7821C17.8865 16.4878 18.3323 16.4066 18.7115 16.5782C19.9296 17.1294 21.2867 17.2963 22.602 17.0566C23.9173 16.817 25.1283 16.1821 26.0736 15.2368C27.019 14.2914 27.6538 13.0804 27.8935 11.7651C28.0414 10.9534 28.0344 10.1258 27.8779 9.32479L24.2653 12.9374C23.8423 13.352 23.2736 13.5842 22.6813 13.5842C22.089 13.5842 21.5203 13.352 21.0973 12.9374L21.0901 12.9304L19.0626 10.9028C18.648 10.4798 18.4158 9.91105 18.4158 9.31874C18.4158 8.72644 18.648 8.15775 19.0626 7.73476L19.0696 7.72762L22.6752 4.12209ZM19.8764 2.13892C21.5917 1.8264 23.3614 2.04404 24.9499 2.76284C25.249 2.89818 25.4626 3.17169 25.5214 3.49465C25.5803 3.81761 25.4768 4.14888 25.2447 4.38101L20.4887 9.13701C20.4419 9.1859 20.4158 9.25099 20.4158 9.31874C20.4158 9.38649 20.4419 9.45157 20.4887 9.50046L22.4995 11.5113C22.5484 11.5581 22.6135 11.5842 22.6813 11.5842C22.749 11.5842 22.8141 11.5581 22.8629 11.5113L27.619 6.75528C27.8511 6.52315 28.1824 6.41974 28.5054 6.47858C28.8283 6.53742 29.1018 6.75103 29.2372 7.05011C29.956 8.63855 30.1736 10.4083 29.8611 12.1236C29.5485 13.8389 28.7207 15.4182 27.4879 16.651C26.255 17.8838 24.6757 18.7117 22.9605 19.0242C21.4765 19.2946 19.9518 19.1682 18.539 18.6637L10.2802 26.9225C9.59029 27.6124 8.65456 28 7.67886 28C6.70317 28 5.76743 27.6124 5.07751 26.9225C4.38759 26.2326 4 25.2968 4 24.3211C4 23.3454 4.38759 22.4097 5.07751 21.7198L13.3363 13.461C12.8318 12.0482 12.7054 10.5235 12.9758 9.03954C13.2883 7.32428 14.1162 5.74499 15.349 4.51214C16.5818 3.2793 18.1611 2.45145 19.8764 2.13892Z" fill="#15172B"/>
</g>
</svg>
