<svg width="32" height="32" viewBox="0 0 32 32" fill="none" xmlns="http://www.w3.org/2000/svg" role="img" aria-label="Trade In" data-icon="tradein" data-category="general">
  <title>Trade In</title>
  <desc>general icon from Comcast Business Design System</desc>
<g id="Trade In">
<g id="shape">
<path fill-rule="evenodd" clip-rule="evenodd" d="M18.0542 1.25732C18.4644 1.62714 18.4971 2.25946 18.1273 2.66964L16.7266 4.22322C23.5612 4.59705 29 10.2126 29 17.1017C29 24.2332 23.1717 30 16 30C8.82834 30 3 24.2332 3 17.1017C3 12.5013 5.42761 8.46753 9.07114 6.18633C9.53925 5.89325 10.1563 6.03513 10.4494 6.50324C10.7425 6.97134 10.6006 7.58841 10.1325 7.88149C7.04386 9.81527 5 13.224 5 17.1017C5 23.1127 9.91683 28 16 28C22.0832 28 27 23.1127 27 17.1017C27 11.1389 22.1616 6.28173 16.1459 6.20434L17.7699 8.79019C18.0636 9.25789 17.9226 9.87515 17.4549 10.1689C16.9872 10.4626 16.37 10.3216 16.0762 9.85389L13.5552 5.83981C13.3174 5.46109 13.3599 4.97048 13.6594 4.63833L16.6419 1.33038C17.0118 0.920198 17.6441 0.887488 18.0542 1.25732Z" fill="#15172B"/>
<path d="M19.952 20.13C19.952 20.8954 19.672 21.5534 19.112 22.104C18.552 22.6454 17.7447 22.9814 16.69 23.112V23.98C16.69 24.3666 16.3766 24.68 15.99 24.68L-nan -nanL15.99 24.68C15.6034 24.68 15.29 24.3666 15.29 23.98V23.154C14.5993 23.1167 13.9413 22.9954 13.316 22.79C12.9823 22.6804 12.6831 22.5576 12.4185 22.4214C12.0388 22.226 11.9275 21.7601 12.103 21.3709L-nan -nanL12.103 21.3709C12.3454 20.8332 13.0282 20.6554 13.5714 20.8853C13.6523 20.9195 13.7352 20.9524 13.82 20.984C14.296 21.1614 14.786 21.2734 15.29 21.32V18.982C14.6273 18.8234 14.0673 18.646 13.61 18.45C13.1527 18.254 12.77 17.9694 12.462 17.596C12.154 17.2134 12 16.7094 12 16.084C12 15.3094 12.28 14.6467 12.84 14.096C13.4093 13.536 14.226 13.1954 15.29 13.074V12.22C15.29 11.8334 15.6034 11.52 15.99 11.52L-nan -nanL15.99 11.52C16.3766 11.52 16.69 11.8334 16.69 12.22V13.046C17.5083 13.1126 18.2246 13.2763 18.839 13.5372C19.2566 13.7146 19.4079 14.2053 19.2371 14.6256L-nan -nanL19.2371 14.6256C19.0227 15.1528 18.3936 15.3612 17.8578 15.1692C17.4726 15.0311 17.0834 14.9394 16.69 14.894V17.274C17.3433 17.4234 17.894 17.596 18.342 17.792C18.7993 17.9787 19.182 18.2634 19.49 18.646C19.798 19.0194 19.952 19.514 19.952 20.13ZM14.254 15.972C14.254 16.2054 14.3427 16.3967 14.52 16.546C14.6973 16.6954 14.954 16.8214 15.29 16.924V14.936C14.9353 15.02 14.674 15.1554 14.506 15.342C14.338 15.5194 14.254 15.7294 14.254 15.972ZM16.69 21.264C17.026 21.1894 17.278 21.068 17.446 20.9C17.614 20.732 17.698 20.5314 17.698 20.298C17.698 20.0647 17.6093 19.8734 17.432 19.724C17.264 19.5747 17.0167 19.444 16.69 19.332V21.264Z" fill="#15172B"/>
</g>
</g>
</svg>
