<svg width="32" height="33" viewBox="0 0 32 33" fill="none" xmlns="http://www.w3.org/2000/svg" role="img" aria-label="Truck" data-icon="truck" data-category="general">
  <title>Truck</title>
  <desc>general icon from Comcast Business Design System</desc>
<g id="Truck">
<path id="shape" fill-rule="evenodd" clip-rule="evenodd" d="M3 6C2.44772 6 2 6.44772 2 7V20.9999C2 21.5522 2.44772 21.9999 3 21.9999H4.33687C4.12086 22.4545 4 22.9632 4 23.5C4 25.433 5.567 27 7.5 27C9.433 27 11 25.433 11 23.5C11 22.9632 10.8791 22.4545 10.6631 21.9999L19.3369 21.9999C19.1209 22.4545 19 22.9632 19 23.5C19 25.433 20.567 27 22.5 27C24.433 27 26 25.433 26 23.5C26 22.9632 25.8792 22.4546 25.6632 22H29C29.5523 22 30 21.5523 30 21V15.4874C30 15.2251 29.897 14.9733 29.7131 14.7863L26.2845 11.2989C26.0965 11.1077 25.8396 11 25.5714 11H22V7C22 6.44772 21.5523 6 21 6H3ZM28 20V15.8966L25.1522 13H22V20H28ZM22.5 22C21.6716 22 21 22.6716 21 23.5C21 24.3284 21.6716 25 22.5 25C23.3284 25 24 24.3284 24 23.5C24 22.6716 23.3284 22 22.5 22ZM20 8H4V19.9999L20 19.9999V8ZM7.5 22C6.67157 22 6 22.6716 6 23.5C6 24.3284 6.67157 25 7.5 25C8.32843 25 9 24.3284 9 23.5C9 22.6716 8.32843 22 7.5 22Z" fill="#15172B"/>
</g>
</svg>
