<svg width="32" height="32" viewBox="0 0 32 32" fill="none" xmlns="http://www.w3.org/2000/svg" role="img" aria-label="Type=Outline" data-icon="typeoutline" data-category="general">
  <title>Type=Outline</title>
  <desc>general icon from Comcast Business Design System</desc>
<g id="Type=Outline">
<g id="shape">
<path d="M8 8C7.44772 8 7 8.44772 7 9C7 9.55228 7.44772 10 8 10H18C18.5523 10 19 9.55228 19 9C19 8.44772 18.5523 8 18 8H8Z" fill="#15172B"/>
<path d="M7 13C7 12.4477 7.44772 12 8 12H12C12.5523 12 13 12.4477 13 13C13 13.5523 12.5523 14 12 14H8C7.44772 14 7 13.5523 7 13Z" fill="#15172B"/>
<path fill-rule="evenodd" clip-rule="evenodd" d="M5 2C3.34315 2 2 3.34315 2 5V23C2 23.3958 2.23347 23.7544 2.59545 23.9145C2.95743 24.0746 3.37979 24.0062 3.67267 23.7399L8.10089 19.7143H21C22.6569 19.7143 24 18.3711 24 16.7143V5C24 3.34315 22.6569 2 21 2H5ZM4 5C4 4.44772 4.44772 4 5 4H21C21.5523 4 22 4.44772 22 5V16.7143C22 17.2666 21.5523 17.7143 21 17.7143H7.71429C7.46552 17.7143 7.22569 17.807 7.04161 17.9743L4 20.7394V5Z" fill="#15172B"/>
<path d="M28 11C28 10.4477 27.5523 10 27 10H26C25.4477 10 25 9.55228 25 9C25 8.44772 25.4477 8 26 8H27C28.6569 8 30 9.34315 30 11V29C30 29.3896 29.7737 29.7438 29.4201 29.9075C29.0666 30.0712 28.6501 30.0146 28.353 29.7625L23.9186 26H10C8.34315 26 7 24.6569 7 23V22.2857C7 21.7334 7.44772 21.2857 8 21.2857C8.55228 21.2857 9 21.7334 9 22.2857V23C9 23.5523 9.44772 24 10 24H24.2857C24.5227 24 24.752 24.0842 24.9327 24.2375L28 26.8401V11Z" fill="#15172B"/>
</g>
</g>
</svg>
