<svg width="32" height="32" viewBox="0 0 32 32" fill="none" xmlns="http://www.w3.org/2000/svg" role="img" aria-label="Unlink" data-icon="unlink" data-category="general">
  <title>Unlink</title>
  <desc>general icon from Comcast Business Design System</desc>
<g id="Unlink">
<path id="shape" fill-rule="evenodd" clip-rule="evenodd" d="M28.4354 3.56495C25.3112 0.440753 20.2458 0.440753 17.1216 3.56495L14.5255 6.16114C14.1349 6.55167 14.1349 7.18483 14.5255 7.57535C14.916 7.96588 15.5491 7.96588 15.9397 7.57535L18.5359 4.97916C20.879 2.63602 24.678 2.63602 27.0211 4.97916C29.3643 7.32231 29.3643 11.1213 27.0211 13.4644L25.7911 14.6945C24.4771 16.0085 22.0002 16.607 20.0002 16.607C18.5002 16.607 18.5002 18.6075 20.0002 18.6075C23.0002 18.6075 25.5023 17.8117 27.2053 16.1087L28.4354 14.8787C31.5595 11.7545 31.5595 6.68914 28.4354 3.56495ZM6.20973 17.3053C7.5236 15.9915 10.0002 15.3928 12.0002 15.3928C13.5002 15.3928 13.5002 13.3924 12.0002 13.3924C9.00018 13.3924 6.49838 14.1882 4.79551 15.8911L3.56531 17.1213C0.441119 20.2455 0.44112 25.3108 3.56531 28.435C6.68951 31.5592 11.7548 31.5592 14.879 28.435L17.4752 25.8388C17.8658 25.4483 17.8658 24.8151 17.4752 24.4246C17.0847 24.0341 16.4515 24.0341 16.061 24.4246L13.4648 27.0208C11.1217 29.364 7.32267 29.364 4.97953 27.0208C2.63638 24.6777 2.63638 20.8787 4.97953 18.5355L6.20973 17.3053ZM4.29307 4.29287C4.6836 3.90235 5.31676 3.90235 5.70728 4.29287L10.7073 9.29288C11.0978 9.6834 11.0978 10.3166 10.7073 10.7071C10.3168 11.0976 9.6836 11.0976 9.29307 10.7071L4.29307 5.70709C3.90255 5.31656 3.90255 4.6834 4.29307 4.29287ZM25.7073 26.2929L20.7073 21.2929C20.3168 20.9023 19.6836 20.9023 19.2931 21.2929C18.9025 21.6834 18.9025 22.3166 19.2931 22.7071L24.2931 27.7071C24.6836 28.0976 25.3168 28.0976 25.7073 27.7071C26.0978 27.3166 26.0978 26.6834 25.7073 26.2929Z" fill="#15172B"/>
</g>
</svg>
