<svg width="32" height="32" viewBox="0 0 32 32" fill="none" xmlns="http://www.w3.org/2000/svg" role="img" aria-label="Upload" data-icon="upload" data-category="navigation">
  <title>Upload</title>
  <desc>navigation icon from Comcast Business Design System</desc>
<g id="Upload">
<path id="shape" fill-rule="evenodd" clip-rule="evenodd" d="M16.7081 3.29387C16.527 3.11233 16.2766 3 16 3C15.7282 3 15.4818 3.1084 15.3016 3.28431C15.2987 3.28715 15.2958 3.29001 15.2929 3.29289L8.29289 10.2929C7.90237 10.6834 7.90237 11.3166 8.29289 11.7071C8.68342 12.0976 9.31658 12.0976 9.70711 11.7071L15 6.41421V20C15 20.5523 15.4477 21 16 21C16.5523 21 17 20.5523 17 20V6.41421L22.2929 11.7071C22.6834 12.0976 23.3166 12.0976 23.7071 11.7071C24.0976 11.3166 24.0976 10.6834 23.7071 10.2929L16.7081 3.29387ZM4 19C4.55228 19 5 19.4477 5 20V25.3333C5 25.7754 5.17559 26.1993 5.48816 26.5118C5.80072 26.8244 6.22464 27 6.66667 27H25.3333C25.7754 27 26.1993 26.8244 26.5118 26.5118C26.8244 26.1993 27 25.7754 27 25.3333V20C27 19.4477 27.4477 19 28 19C28.5523 19 29 19.4477 29 20V25.3333C29 26.3058 28.6137 27.2384 27.9261 27.9261C27.2384 28.6137 26.3058 29 25.3333 29H6.66667C5.69421 29 4.76157 28.6137 4.07394 27.9261C3.38631 27.2384 3 26.3058 3 25.3333V20C3 19.4477 3.44772 19 4 19Z" fill="#15172B"/>
</g>
</svg>
