<svg width="32" height="32" viewBox="0 0 32 32" fill="none" xmlns="http://www.w3.org/2000/svg" role="img" aria-label="Users" data-icon="users" data-category="interface">
  <title>Users</title>
  <desc>interface icon from Comcast Business Design System</desc>
<g id="Users">
<path id="shape" fill-rule="evenodd" clip-rule="evenodd" d="M16 10.5C16 12.433 14.433 14 12.5 14C10.567 14 9 12.433 9 10.5C9 8.567 10.567 7 12.5 7C14.433 7 16 8.567 16 10.5ZM18 10.5C18 13.5376 15.5376 16 12.5 16C9.46243 16 7 13.5376 7 10.5C7 7.46243 9.46243 5 12.5 5C15.5376 5 18 7.46243 18 10.5ZM5 24C5 21.7909 6.79086 20 9 20H16C18.2091 20 20 21.7909 20 24V27C20 27.5523 20.4477 28 21 28C21.5523 28 22 27.5523 22 27V24C22 20.6863 19.3137 18 16 18H9C5.68629 18 3 20.6863 3 24V27C3 27.5523 3.44772 28 4 28C4.55228 28 5 27.5523 5 27V24ZM26 11C26.5523 11 27 11.4477 27 12V14H29C29.5523 14 30 14.4477 30 15C30 15.5523 29.5523 16 29 16H27V18C27 18.5523 26.5523 19 26 19C25.4477 19 25 18.5523 25 18V16H23C22.4477 16 22 15.5523 22 15C22 14.4477 22.4477 14 23 14H25V12C25 11.4477 25.4477 11 26 11Z" fill="#15172B"/>
</g>
</svg>
