<svg width="32" height="32" viewBox="0 0 32 32" fill="none" xmlns="http://www.w3.org/2000/svg" role="img" aria-label="Variant=Call Forwarding, Type=Filled" data-icon="variantcallforwardingtypefilled" data-category="navigation">
  <title>Variant=Call Forwarding, Type=Filled</title>
  <desc>navigation icon from Comcast Business Design System</desc>
<g id="Variant=Call Forwarding, Type=Filled">
<path id="shape" fill-rule="evenodd" clip-rule="evenodd" d="M6.41784 2C4.01598 2 1.70435 3.81193 1.97128 6.5054C2.38334 10.6634 4.29558 16.7099 9.79275 22.2071C15.2899 27.7043 21.3365 29.6165 25.4945 30.0286C28.1879 30.2955 29.9999 27.9839 29.9999 25.5821L29.9999 22.0366C29.9999 20.6774 29.0862 19.4881 27.7729 19.1378L22.8717 17.8309C21.8374 17.555 20.7344 17.8513 19.9775 18.6082L18.7438 19.8418C18.5828 19.7716 18.3869 19.6784 18.1615 19.557C17.4309 19.1636 16.3852 18.4711 15.207 17.2929C14.0266 16.1124 13.1998 14.9312 12.6699 14.048C12.4743 13.7219 12.3198 13.4377 12.2035 13.2106L13.3917 12.0225C14.1486 11.2655 14.4449 10.1625 14.1691 9.12817L12.8621 4.22701C12.5119 2.91375 11.3225 2 9.96338 2H6.41784ZM24.7071 2.29289C24.3166 1.90237 23.6834 1.90237 23.2929 2.29289C22.9024 2.68342 22.9024 3.31658 23.2929 3.70711L26.5858 7H18C17.4477 7 17 7.44772 17 8C17 8.55228 17.4477 9 18 9H26.5858L23.2929 12.2929C22.9024 12.6834 22.9024 13.3166 23.2929 13.7071C23.6834 14.0976 24.3166 14.0976 24.7071 13.7071L29.7071 8.70711C30.0976 8.31658 30.0976 7.68342 29.7071 7.29289L24.7071 2.29289Z" fill="#15172B"/>
</g>
</svg>
