<svg width="32" height="32" viewBox="0 0 32 32" fill="none" xmlns="http://www.w3.org/2000/svg" role="img" aria-label="Variant=Missed Call, Type=Filled" data-icon="variantmissedcalltypefilled" data-category="communication">
  <title>Variant=Missed Call, Type=Filled</title>
  <desc>communication icon from Comcast Business Design System</desc>
<g id="Variant=Missed Call, Type=Filled">
<path id="shape" fill-rule="evenodd" clip-rule="evenodd" d="M6.41784 2C4.01598 2 1.70435 3.81193 1.97128 6.5054C2.38334 10.6634 4.29558 16.7099 9.79275 22.2071C15.2899 27.7043 21.3365 29.6165 25.4945 30.0286C28.1879 30.2955 29.9999 27.9839 29.9999 25.5821L29.9999 22.0366C29.9999 20.6774 29.0862 19.4881 27.7729 19.1378L22.8717 17.8309C21.8374 17.555 20.7344 17.8513 19.9775 18.6082L18.7438 19.8418C18.5828 19.7716 18.3869 19.6784 18.1615 19.557C17.4309 19.1636 16.3852 18.4711 15.207 17.2929C14.0266 16.1124 13.1998 14.9312 12.6699 14.048C12.4743 13.7219 12.3198 13.4377 12.2035 13.2106L13.3917 12.0225C14.1486 11.2655 14.4449 10.1625 14.1691 9.12817L12.8621 4.22701C12.5119 2.91375 11.3225 2 9.96338 2H6.41784ZM20.7071 2.29289C20.3166 1.90237 19.6834 1.90237 19.2929 2.29289C18.9024 2.68342 18.9024 3.31658 19.2929 3.70711L23.0858 7.5L19.2929 11.2929C18.9024 11.6834 18.9024 12.3166 19.2929 12.7071C19.6834 13.0976 20.3166 13.0976 20.7071 12.7071L24.5 8.91421L28.2929 12.7071C28.6834 13.0976 29.3166 13.0976 29.7071 12.7071C30.0976 12.3166 30.0976 11.6834 29.7071 11.2929L25.9142 7.5L29.7071 3.70711C30.0976 3.31658 30.0976 2.68342 29.7071 2.29289C29.3166 1.90237 28.6834 1.90237 28.2929 2.29289L24.5 6.08579L20.7071 2.29289Z" fill="#15172B"/>
</g>
</svg>
