<svg width="32" height="32" viewBox="0 0 32 32" fill="none" xmlns="http://www.w3.org/2000/svg" role="img" aria-label="Variant=Bluetooth" data-icon="variantbluetooth" data-category="general">
  <title>Variant=Bluetooth</title>
  <desc>general icon from Comcast Business Design System</desc>
<g id="Variant=Bluetooth">
<path id="shape" fill-rule="evenodd" clip-rule="evenodd" d="M25.7071 5.29289C25.4211 5.00689 24.991 4.92134 24.6173 5.07612C24.2436 5.2309 24 5.59554 24 6V13.5858L20.7071 10.2929C20.3166 9.90237 19.6834 9.90237 19.2929 10.2929C18.9024 10.6834 18.9024 11.3166 19.2929 11.7071L23.5858 16L19.2929 20.2929C18.9024 20.6834 18.9024 21.3166 19.2929 21.7071C19.6834 22.0976 20.3166 22.0976 20.7071 21.7071L24 18.4142V26C24 26.4045 24.2436 26.7691 24.6173 26.9239C24.991 27.0787 25.4211 26.9931 25.7071 26.7071L30.7071 21.7071C31.0976 21.3166 31.0976 20.6834 30.7071 20.2929L26.4142 16L30.7071 11.7071C31.0976 11.3166 31.0976 10.6834 30.7071 10.2929L25.7071 5.29289ZM28.5858 21L26 18.4142V23.5858L28.5858 21ZM26 8.41421V13.5858L28.5858 11L26 8.41421ZM15.4472 6.10557C15.786 6.27496 16 6.62123 16 7V25C16 25.3788 15.786 25.725 15.4472 25.8944C15.1084 26.0638 14.703 26.0273 14.4 25.8L8 21H3C2.44772 21 2 20.5523 2 20V12C2 11.4477 2.44772 11 3 11H8L14.4 6.2C14.703 5.97274 15.1084 5.93618 15.4472 6.10557Z" fill="#15172B"/>
</g>
</svg>
