<svg width="32" height="32" viewBox="0 0 32 32" fill="none" xmlns="http://www.w3.org/2000/svg" role="img" aria-label="Variant=Call Hold, Type=Filled" data-icon="variantcallholdtypefilled" data-category="communication">
  <title>Variant=Call Hold, Type=Filled</title>
  <desc>communication icon from Comcast Business Design System</desc>
<g id="Variant=Call Hold, Type=Filled">
<path id="shape" fill-rule="evenodd" clip-rule="evenodd" d="M20 7.5C20 5.01472 22.0147 3 24.5 3C26.9853 3 29 5.01472 29 7.5C29 9.98528 26.9853 12 24.5 12C22.0147 12 20 9.98528 20 7.5ZM24.5 1C20.9101 1 18 3.91015 18 7.5C18 11.0899 20.9101 14 24.5 14C28.0899 14 31 11.0899 31 7.5C31 3.91015 28.0899 1 24.5 1ZM6.41784 2C4.01598 2 1.70435 3.81193 1.97128 6.5054C2.38334 10.6634 4.29558 16.7099 9.79275 22.2071C15.2899 27.7043 21.3365 29.6165 25.4945 30.0286C28.1879 30.2955 29.9999 27.9839 29.9999 25.5821L29.9999 22.0366C29.9999 20.6774 29.0862 19.4881 27.7729 19.1378L22.8717 17.8309C21.8374 17.555 20.7344 17.8513 19.9775 18.6082L18.7438 19.8418C18.5828 19.7716 18.3869 19.6784 18.1615 19.557C17.4309 19.1636 16.3852 18.4711 15.207 17.2929C14.0266 16.1124 13.1998 14.9312 12.6699 14.048C12.4743 13.7219 12.3198 13.4377 12.2035 13.2106L13.3917 12.0225C14.1486 11.2655 14.4449 10.1625 14.1691 9.12817L12.8621 4.22701C12.5119 2.91375 11.3225 2 9.96338 2H6.41784ZM23 5C23.5523 5 24 5.44772 24 6V9C24 9.55228 23.5523 10 23 10C22.4477 10 22 9.55228 22 9V6C22 5.44772 22.4477 5 23 5ZM27 6C27 5.44772 26.5523 5 26 5C25.4477 5 25 5.44772 25 6V9C25 9.55228 25.4477 10 26 10C26.5523 10 27 9.55228 27 9V6Z" fill="#15172B"/>
</g>
</svg>
