<svg width="32" height="32" viewBox="0 0 32 32" fill="none" xmlns="http://www.w3.org/2000/svg" role="img" aria-label="Variant=Thumb Up, Type=Filled" data-icon="variantthumbuptypefilled" data-category="navigation">
  <title>Variant=Thumb Up, Type=Filled</title>
  <desc>navigation icon from Comcast Business Design System</desc>
<g id="Variant=Thumb Up, Type=Filled">
<g id="shape">
<path fill-rule="evenodd" clip-rule="evenodd" d="M9.99994 30C9.99994 30.5523 10.4477 31 10.9999 31L25.3322 31C27.3606 31 29.0679 29.4818 29.3048 27.4674L30.599 16.4674C30.8787 14.0894 29.0207 12 26.6264 12H20L20 7C20 4.79086 18.2091 3 16 3H15C14.6212 3 14.275 3.214 14.1056 3.55279L10.1055 11.5529C10.0361 11.6918 9.99994 11.8449 9.99994 12.0001L9.99994 30ZM7.99994 16C7.99994 15.4477 7.55222 15 6.99994 15H6C3.79086 15 2 16.7909 2 19V27C2 29.2091 3.79086 31 6 31H6.99994C7.55222 31 7.99994 30.5523 7.99994 30L7.99994 16Z" fill="#15172B"/>
</g>
</g>
</svg>
