<svg width="32" height="32" viewBox="0 0 32 32" fill="none" xmlns="http://www.w3.org/2000/svg" role="img" aria-label="Variant=Phone, Type=Filled" data-icon="variantphonetypefilled" data-category="communication">
  <title>Variant=Phone, Type=Filled</title>
  <desc>communication icon from Comcast Business Design System</desc>
<g id="Variant=Phone, Type=Filled">
<path id="shape" fill-rule="evenodd" clip-rule="evenodd" d="M1.97128 6.5054C1.70435 3.81193 4.01598 2 6.41784 2H9.96338C11.3225 2 12.5119 2.91375 12.8621 4.22701L14.1691 9.12817C14.4449 10.1625 14.1486 11.2655 13.3917 12.0225L12.2035 13.2106C12.3198 13.4377 12.4743 13.7219 12.6699 14.048C13.1998 14.9312 14.0266 16.1124 15.207 17.2929C16.3852 18.4711 17.4309 19.1636 18.1615 19.557C18.3869 19.6784 18.5828 19.7716 18.7438 19.8418L19.9775 18.6082C20.7344 17.8513 21.8374 17.555 22.8717 17.8309L27.7729 19.1378C29.0862 19.4881 29.9999 20.6774 29.9999 22.0366L29.9999 25.5821C29.9999 27.9839 28.1879 30.2955 25.4945 30.0286C21.3365 29.6165 15.2899 27.7043 9.79275 22.2071C4.29558 16.7099 2.38334 10.6634 1.97128 6.5054Z" fill="#15172B"/>
</g>
</svg>
