<svg width="32" height="32" viewBox="0 0 32 32" fill="none" xmlns="http://www.w3.org/2000/svg" role="img" aria-label="WiFi" data-icon="wifi" data-category="general">
  <title>WiFi</title>
  <desc>general icon from Comcast Business Design System</desc>
<g id="WiFi">
<path id="shape" fill-rule="evenodd" clip-rule="evenodd" d="M16 8C11.4619 8 7.07687 9.68532 3.66787 12.7443C3.25682 13.1131 2.62458 13.0789 2.25572 12.6679C1.88687 12.2568 1.92109 11.6246 2.33215 11.2557C6.10491 7.87033 10.9645 6 16 6C21.0355 6 25.8951 7.87033 29.6679 11.2557C30.0789 11.6246 30.1131 12.2568 29.7443 12.6679C29.3754 13.0789 28.7432 13.1131 28.3321 12.7443C24.9232 9.68532 20.5381 8 16 8ZM16 14C12.9238 14 9.95488 14.9935 7.60868 16.7934C7.17049 17.1296 6.54275 17.0469 6.20659 16.6087C5.87043 16.1705 5.95314 15.5427 6.39134 15.2066C9.09885 13.1295 12.4991 12 16 12C19.501 12 22.9012 13.1295 25.6087 15.2066C26.0469 15.5427 26.1296 16.1705 25.7934 16.6087C25.4573 17.0469 24.8295 17.1296 24.3913 16.7934C22.0451 14.9935 19.0762 14 16 14ZM16 20.0017C14.7242 20.0017 13.4956 20.3136 12.4864 20.8754C12.0038 21.144 11.3949 20.9706 11.1263 20.4881C10.8576 20.0055 11.0311 19.3966 11.5136 19.1279C12.8416 18.3887 14.4089 18.0017 16 18.0017C17.5911 18.0017 19.1584 18.3887 20.4864 19.1279C20.969 19.3966 21.1424 20.0055 20.8738 20.4881C20.6051 20.9706 19.9962 21.144 19.5136 20.8754C18.5044 20.3136 17.2759 20.0017 16 20.0017ZM15 25C15 24.4477 15.4477 24 16 24H16.01C16.5623 24 17.01 24.4477 17.01 25C17.01 25.5523 16.5623 26 16.01 26H16C15.4477 26 15 25.5523 15 25Z" fill="#15172B"/>
</g>
</svg>
