<svg width="80" height="80" viewBox="0 0 80 80" fill="none" xmlns="http://www.w3.org/2000/svg" role="img" aria-label="color=black, size=XXXL - 80x80" data-icon="colorblacksizexxxl80x80" data-category="general"><title>color=black, size=XXXL - 80x80</title><desc>general icon from Comcast Business Design System</desc><g id="color=black, size=XXXL - 80x80"><path id="Background" fill-rule="evenodd" clip-rule="evenodd" d="M40 76C59.8823 76 76 59.8823 76 40C76 20.1177 59.8823 4 40 4C20.1177 4 4 20.1177 4 40C4 59.8823 20.1177 76 40 76ZM40 68C55.464 68 68 55.464 68 40C68 24.536 55.464 12 40 12C24.536 12 12 24.536 12 40C12 55.464 24.536 68 40 68Z" fill="#B4B5BB"/><path id="Stroke" fill-rule="evenodd" clip-rule="evenodd" d="M40 8C40 5.79086 38.2022 3.97667 36.0064 4.21901C19.3148 6.06115 6.06118 19.3148 4.21904 36.0064C3.9767 38.2022 5.79089 40 8.00003 40C10.2092 40 11.97 38.1989 12.2819 36.0119C14.0319 23.7395 23.7396 14.0319 36.0119 12.2819C38.1989 11.97 40 10.2091 40 8Z" fill="#15172B"/></g></svg>