<svg width="20" height="20" viewBox="0 0 20 20" fill="none" xmlns="http://www.w3.org/2000/svg" role="img" aria-label="color=black, size=S - 20x20" data-icon="colorblacksizes20x20" data-category="general"><title>color=black, size=S - 20x20</title><desc>general icon from Comcast Business Design System</desc><g id="color=black, size=S - 20x20"><path id="Background" fill-rule="evenodd" clip-rule="evenodd" d="M10 19C14.9706 19 19 14.9706 19 10C19 5.02944 14.9706 1 10 1C5.02944 1 1 5.02944 1 10C1 14.9706 5.02944 19 10 19ZM10 17C13.866 17 17 13.866 17 10C17 6.13401 13.866 3 10 3C6.13401 3 3 6.13401 3 10C3 13.866 6.13401 17 10 17Z" fill="#B4B5BB"/><path id="Stroke" fill-rule="evenodd" clip-rule="evenodd" d="M10 2.00001C10 1.44772 9.55056 0.994175 9.00161 1.05476C4.8287 1.5153 1.5153 4.8287 1.05476 9.00161C0.994175 9.55056 1.44772 10 2.00001 10C2.55229 10 2.9925 9.54973 3.07047 9.00298C3.50798 5.93489 5.93489 3.50798 9.00297 3.07047C9.54973 2.9925 10 2.55229 10 2.00001Z" fill="#15172B"/></g></svg>