<svg width="16" height="16" viewBox="0 0 16 16" fill="none" xmlns="http://www.w3.org/2000/svg" role="img" aria-label="color=black, size=XS - 16x16" data-icon="colorblacksizexs16x16" data-category="general"><title>color=black, size=XS - 16x16</title><desc>general icon from Comcast Business Design System</desc><g id="color=black, size=XS - 16x16"><path id="Background" fill-rule="evenodd" clip-rule="evenodd" d="M8 15C11.866 15 15 11.866 15 8C15 4.13401 11.866 1 8 1C4.13401 1 1 4.13401 1 8C1 11.866 4.13401 15 8 15ZM8 13C10.7614 13 13 10.7614 13 8C13 5.23858 10.7614 3 8 3C5.23858 3 3 5.23858 3 8C3 10.7614 5.23858 13 8 13Z" fill="#B4B5BB"/><path id="Stroke" fill-rule="evenodd" clip-rule="evenodd" d="M8.00003 2.00003C8.00003 1.44775 7.54975 0.992529 7.003 1.0705C3.93492 1.50801 1.50801 3.93492 1.0705 7.003C0.992529 7.54975 1.44775 8.00003 2.00003 8.00003C2.55232 8.00003 2.9896 7.54781 3.09876 7.00642C3.49481 5.04213 5.04213 3.49481 7.00642 3.09876C7.54781 2.9896 8.00003 2.55232 8.00003 2.00003Z" fill="#15172B"/></g></svg>