<svg width="32" height="32" viewBox="0 0 32 32" fill="none" xmlns="http://www.w3.org/2000/svg" role="img" aria-label="color=black, size=L - 32x32" data-icon="colorblacksizel32x32" data-category="general"><title>color=black, size=L - 32x32</title><desc>general icon from Comcast Business Design System</desc><g id="color=black, size=L - 32x32"><path id="Background" fill-rule="evenodd" clip-rule="evenodd" d="M16 30C23.732 30 30 23.732 30 16C30 8.26801 23.732 2 16 2C8.26801 2 2 8.26801 2 16C2 23.732 8.26801 30 16 30ZM16 26C21.5228 26 26 21.5228 26 16C26 10.4772 21.5228 6 16 6C10.4772 6 6 10.4772 6 16C6 21.5228 10.4772 26 16 26Z" fill="#B4B5BB"/><path id="Stroke" fill-rule="evenodd" clip-rule="evenodd" d="M15.9999 3.99994C15.9999 2.89537 15.0994 1.98494 14.0059 2.14087C7.86971 3.0159 3.0159 7.86971 2.14087 14.0059C1.98494 15.0994 2.89537 15.9999 3.99994 15.9999C5.10451 15.9999 5.97908 15.0955 6.1974 14.0127C6.9895 10.0841 10.0841 6.9895 14.0127 6.1974C15.0955 5.97908 15.9999 5.10451 15.9999 3.99994Z" fill="#15172B"/></g></svg>