<svg width="12" height="12" viewBox="0 0 12 12" fill="none" xmlns="http://www.w3.org/2000/svg" role="img" aria-label="color=black, size=XXS - 12x12" data-icon="colorblacksizexxs12x12" data-category="general"><title>color=black, size=XXS - 12x12</title><desc>general icon from Comcast Business Design System</desc><g id="color=black, size=XXS - 12x12"><path id="Background" fill-rule="evenodd" clip-rule="evenodd" d="M6 11C8.76142 11 11 8.76142 11 6C11 3.23858 8.76142 1 6 1C3.23858 1 1 3.23858 1 6C1 8.76142 3.23858 11 6 11ZM6 9C7.65685 9 9 7.65685 9 6C9 4.34315 7.65685 3 6 3C4.34315 3 3 4.34315 3 6C3 7.65685 4.34315 9 6 9Z" fill="#B4B5BB"/><path id="Stroke" fill-rule="evenodd" clip-rule="evenodd" d="M5.99999 1.99999C5.99999 1.44771 5.54777 0.989563 5.00638 1.09872C3.04209 1.49477 1.49477 3.04209 1.09872 5.00638C0.989563 5.54777 1.44771 5.99999 1.99999 5.99999C2.55228 5.99999 2.98368 5.53999 3.16437 5.0181C3.46453 4.15111 4.15111 3.46453 5.0181 3.16437C5.53999 2.98368 5.99999 2.55228 5.99999 1.99999Z" fill="#15172B"/></g></svg>