<svg width="32" height="32" viewBox="0 0 32 32" fill="none" xmlns="http://www.w3.org/2000/svg" role="img" aria-label="Direction=Right" data-icon="directionright" data-category="navigation"><title>Direction=Right</title><desc>navigation icon from Comcast Business Design System</desc><g id="Direction=Right"><path id="shape" d="M16.2925 8.29242C16.6585 7.9264 17.2376 7.90388 17.6303 8.22406L17.7065 8.29242L24.7075 15.2934C24.8948 15.4809 25.0005 15.7354 25.0005 16.0004C25.0003 16.2654 24.8949 16.52 24.7075 16.7074L17.7065 23.7074C17.316 24.0977 16.6829 24.0979 16.2925 23.7074C15.9022 23.317 15.9022 22.6838 16.2925 22.2934L22.5854 15.9994L16.2925 9.70648L16.2241 9.63031C15.9039 9.23762 15.9266 8.65851 16.2925 8.29242ZM7.29343 8.2934C7.65955 7.92733 8.23857 7.9047 8.63132 8.22504L8.70749 8.2934L15.7075 15.2934C16.0975 15.6839 16.0978 16.3171 15.7075 16.7074L8.70749 23.7074C8.31713 24.0977 7.68397 24.0974 7.29343 23.7074C6.90294 23.3169 6.90299 22.6839 7.29343 22.2934L13.5864 16.0004L7.29343 9.70746L7.22507 9.63128C6.90472 9.23851 6.92732 8.65951 7.29343 8.2934Z" fill="#15172B"/></g></svg>