<svg width="32" height="32" viewBox="0 0 32 32" fill="none" xmlns="http://www.w3.org/2000/svg" role="img" aria-label="Direction=Left" data-icon="directionleft" data-category="navigation"><title>Direction=Left</title><desc>navigation icon from Comcast Business Design System</desc><g id="Direction=Left"><path id="shape" d="M24.7072 8.29301C24.3411 7.92693 23.762 7.90438 23.3693 8.22465L23.2931 8.29301L16.293 15.2931C15.9271 15.6592 15.9044 16.2383 16.2247 16.631L16.293 16.7071L23.2931 23.7072C23.6836 24.0975 24.3166 24.0975 24.7072 23.7072C25.0976 23.3167 25.0976 22.6836 24.7072 22.2931L18.4142 16.0001L24.7072 9.70708L24.7755 9.63091C25.0957 9.2382 25.0731 8.65911 24.7072 8.29301ZM15.7071 8.29301C15.341 7.92689 14.762 7.9043 14.3692 8.22465L14.293 8.29301L7.293 15.2931C6.90265 15.6836 6.90253 16.3167 7.293 16.7071L14.293 23.7072C14.6835 24.0974 15.3167 24.0974 15.7071 23.7072C16.0975 23.3167 16.0974 22.6836 15.7071 22.2931L9.41411 16.0001L15.7071 9.70708L15.7755 9.63091C16.0958 9.2382 16.0731 8.65914 15.7071 8.29301Z" fill="#15172B"/></g></svg>