<svg width="32" height="31" viewBox="0 0 32 31" fill="none" xmlns="http://www.w3.org/2000/svg" role="img" aria-label="Property 1=Filled" data-icon="property1filled" data-category="general"><title>Property 1=Filled</title><desc>general icon from Comcast Business Design System</desc><g id="Property 1=Filled"><g id="Vector"><path d="M8.45 0C7.9 0 7.45 0.45 7.45 1V30.12H11.62V25.16C11.62 24.77 11.94 24.45 12.33 24.45H19.69C20.08 24.45 20.4 24.77 20.4 25.16V30.12H24.57V1C24.57 0.45 24.12 0 23.57 0H8.45ZM20.66 20.74H11.35C10.93 20.74 10.59 20.41 10.59 20C10.59 19.59 10.93 19.26 11.35 19.26H20.66C21.08 19.26 21.42 19.59 21.42 20C21.42 20.41 21.08 20.74 20.66 20.74ZM20.66 13.2H11.35C10.93 13.2 10.59 12.87 10.59 12.46C10.59 12.05 10.93 11.72 11.35 11.72H20.66C21.08 11.72 21.42 12.05 21.42 12.46C21.42 12.87 21.08 13.2 20.66 13.2ZM20.66 5.66H11.35C10.93 5.66 10.59 5.33 10.59 4.92C10.59 4.51 10.93 4.18 11.35 4.18H20.66C21.08 4.18 21.42 4.51 21.42 4.92C21.42 5.33 21.08 5.66 20.66 5.66Z" fill="#15172B"/><path d="M1 5.93C0.45 5.93 0 6.38 0 6.93V29.13C0 29.68 0.45 30.13 1 30.13H5.55V5.93H1ZM4.54 22.78C4.54 23.2 4.2 23.54 3.78 23.54H1.71C1.29 23.54 0.95 23.2 0.95 22.78C0.95 22.36 1.29 22.02 1.71 22.02H3.77C4.19 22.02 4.53 22.36 4.53 22.78H4.54ZM3.84 15.94H1.71C1.31 15.94 0.99 15.62 0.99 15.22C0.99 14.82 1.31 14.5 1.71 14.5H3.84C4.24 14.5 4.56 14.82 4.56 15.22C4.56 15.62 4.24 15.94 3.84 15.94Z" fill="#15172B"/><path d="M26.45 5.93V30.13H31C31.55 30.13 32 29.68 32 29.13V6.93C32 6.38 31.55 5.93 31 5.93H26.45ZM27.46 22.78C27.46 22.36 27.8 22.02 28.22 22.02H30.28C30.7 22.02 31.04 22.36 31.04 22.78C31.04 23.2 30.7 23.54 30.28 23.54H28.22C27.8 23.54 27.46 23.2 27.46 22.78ZM27.44 15.22C27.44 14.82 27.76 14.5 28.16 14.5H30.29C30.69 14.5 31.01 14.82 31.01 15.22C31.01 15.62 30.69 15.94 30.29 15.94H28.16C27.76 15.94 27.44 15.62 27.44 15.22Z" fill="#15172B"/></g></g></svg>