<svg width="20" height="20" viewBox="0 0 20 20" fill="none" xmlns="http://www.w3.org/2000/svg" role="img" aria-label="Size=S - 20" data-icon="sizes20" data-category="general"><title>Size=S - 20</title><desc>general icon from Comcast Business Design System</desc><g id="Size=S - 20"><g id="Icon"><path id="shape" fill-rule="evenodd" clip-rule="evenodd" d="M15.4419 2.83471C15.6563 2.6204 15.9469 2.5 16.25 2.5C16.5531 2.5 16.8437 2.6204 17.0581 2.83471C17.2724 3.04902 17.3928 3.33969 17.3928 3.64277C17.3928 3.94585 17.2724 4.23651 17.0581 4.45083L9.2638 12.2451L7.10898 12.7838L7.64769 10.629L15.4419 2.83471ZM16.25 1.25C15.6154 1.25 15.0068 1.50209 14.5581 1.95083L6.64139 9.86749C6.56129 9.94759 6.50447 10.048 6.47699 10.1578L5.64366 13.4912C5.59042 13.7042 5.65282 13.9295 5.80806 14.0847C5.9633 14.2399 6.1886 14.3024 6.40158 14.2491L9.73492 13.4158C9.84481 13.3883 9.94518 13.3315 10.0253 13.2514L17.9419 5.33471C18.3907 4.88598 18.6428 4.27737 18.6428 3.64277C18.6428 3.00817 18.3907 2.39956 17.9419 1.95083C17.4932 1.50209 16.8846 1.25 16.25 1.25ZM3.54167 2.5C2.93388 2.5 2.35098 2.74144 1.92121 3.17121C1.49144 3.60098 1.25 4.18388 1.25 4.79167V4.79168L1.25028 16.4583C1.25028 17.0661 1.49172 17.649 1.92149 18.0787C2.35126 18.5085 2.93416 18.75 3.54194 18.75H15.2086C15.8164 18.75 16.3993 18.5085 16.8291 18.0787C17.2588 17.649 17.5003 17.0661 17.5003 16.4583V10.8333C17.5003 10.4881 17.2205 10.2083 16.8753 10.2083C16.5301 10.2083 16.2503 10.4881 16.2503 10.8333V16.4583C16.2503 16.7346 16.1405 16.9995 15.9452 17.1949C15.7498 17.3902 15.4849 17.5 15.2086 17.5H3.54194C3.26568 17.5 3.00072 17.3902 2.80537 17.1949C2.61002 16.9995 2.50028 16.7346 2.50028 16.4583L2.5 4.79167V4.79165C2.5 4.51539 2.60975 4.25044 2.8051 4.0551C3.00045 3.85975 3.2654 3.75 3.54167 3.75H9.16654C9.51172 3.75 9.79154 3.47018 9.79154 3.125C9.79154 2.77982 9.51172 2.5 9.16654 2.5H3.54167Z" fill="#15172B"/></g></g></svg>