<svg width="80" height="80" viewBox="0 0 80 80" fill="none" xmlns="http://www.w3.org/2000/svg" role="img" aria-label="Size=XXL - 80" data-icon="sizexxl80" data-category="general"><title>Size=XXL - 80</title><desc>general icon from Comcast Business Design System</desc><g id="Size=XXL - 80"><g id="Icon"><path id="shape" fill-rule="evenodd" clip-rule="evenodd" d="M61.7678 11.3388C62.625 10.4816 63.7877 10 65 10C66.2123 10 67.375 10.4816 68.2322 11.3388C69.0895 12.1961 69.5711 13.3587 69.5711 14.5711C69.5711 15.7834 69.0895 16.9461 68.2322 17.8033L37.0552 48.9803L28.4359 51.1351L30.5907 42.5159L61.7678 11.3388ZM65 5C62.4616 5 60.0272 6.00838 58.2322 7.8033L26.5656 39.47C26.2452 39.7904 26.0179 40.1918 25.908 40.6314L22.5746 53.9647C22.3617 54.8167 22.6113 55.7179 23.2322 56.3388C23.8532 56.9598 24.7544 57.2094 25.6063 56.9964L38.9397 53.6631C39.3793 53.5532 39.7807 53.3259 40.1011 53.0055L71.7678 21.3388C73.5627 19.5439 74.5711 17.1095 74.5711 14.5711C74.5711 12.0327 73.5627 9.59822 71.7678 7.8033C69.9728 6.00838 67.5384 5 65 5ZM14.1667 10C11.7355 10 9.40394 10.9658 7.68485 12.6849C5.96577 14.4039 5 16.7355 5 19.1667V19.1667L5.00111 65.8332C5.00111 68.2643 5.96688 70.5959 7.68597 72.315C9.40505 74.034 11.7366 74.9998 14.1678 74.9998H60.8344C63.2656 74.9998 65.5972 74.034 67.3163 72.315C69.0353 70.5959 70.0011 68.2643 70.0011 65.8331V43.3332C70.0011 41.9525 68.8818 40.8332 67.5011 40.8332C66.1204 40.8332 65.0011 41.9525 65.0011 43.3332V65.8331C65.0011 66.9382 64.5621 67.998 63.7807 68.7794C62.9993 69.5608 61.9395 69.9998 60.8344 69.9998H14.1678C13.0627 69.9998 12.0029 69.5608 11.2215 68.7794C10.4401 67.998 10.0011 66.9382 10.0011 65.8331L10 19.1667V19.1666C10 18.0616 10.439 17.0018 11.2204 16.2204C12.0018 15.439 13.0616 15 14.1667 15H36.6661C38.0469 15 39.1661 13.8807 39.1661 12.5C39.1661 11.1193 38.0469 10 36.6661 10H14.1667Z" fill="#15172B"/></g></g></svg>