<svg width="32" height="32" viewBox="0 0 32 32" fill="none" xmlns="http://www.w3.org/2000/svg" role="img" aria-label="Variant=Phone, Type=Outline" data-icon="variantphonetypeoutline" data-category="communication"><title>Variant=Phone, Type=Outline</title><desc>communication icon from Comcast Business Design System</desc><g id="Variant=Phone, Type=Outline"><path id="shape" fill-rule="evenodd" clip-rule="evenodd" d="M1.97128 6.5054C1.70435 3.81193 4.01598 2 6.41784 2H9.96338C11.3225 2 12.5119 2.91375 12.8621 4.22701L14.1691 9.12817C14.4449 10.1625 14.1486 11.2655 13.3917 12.0225L12.2035 13.2106C12.3198 13.4377 12.4743 13.7219 12.6699 14.048C13.1998 14.9312 14.0266 16.1124 15.207 17.2929C16.3852 18.4711 17.4309 19.1636 18.1615 19.557C18.3869 19.6784 18.5828 19.7716 18.7438 19.8418L19.9775 18.6082C20.7344 17.8513 21.8374 17.555 22.8717 17.8309L27.7729 19.1378C29.0862 19.4881 29.9999 20.6774 29.9999 22.0366L29.9999 25.5821C29.9999 27.9839 28.1879 30.2955 25.4945 30.0286C21.3365 29.6165 15.2899 27.7043 9.79275 22.2071C4.29558 16.7099 2.38334 10.6634 1.97128 6.5054ZM18.9999 21C18.7573 21.9701 18.7565 21.9699 18.7565 21.9699L18.7536 21.9692L18.7491 21.9681L18.738 21.9652L18.7072 21.9567C18.6828 21.9499 18.6508 21.9406 18.6117 21.9284C18.5334 21.904 18.4264 21.8681 18.2936 21.8178C18.0282 21.7171 17.66 21.5585 17.2133 21.318C16.3189 20.8364 15.1146 20.0289 13.7928 18.7071C12.4733 17.3876 11.55 16.0688 10.9549 15.077C10.657 14.5804 10.44 14.1636 10.2957 13.8666C10.2236 13.718 10.1695 13.5992 10.1325 13.515C10.114 13.473 10.0997 13.4396 10.0896 13.4154L10.0775 13.3862L10.0737 13.377L10.0724 13.3737L10.0719 13.3724C10.0719 13.3724 10.0715 13.3714 10.9999 13L10.0715 13.3714C9.92289 13 10.01 12.5758 10.2928 12.2929L11.9775 10.6083C12.2298 10.3559 12.3285 9.98828 12.2366 9.64349L10.9296 4.74234C10.8129 4.30458 10.4164 4 9.96338 4H6.41784C4.8831 4 3.84024 5.08423 3.96153 6.30816C4.3341 10.0677 6.07792 15.6638 11.207 20.7929C16.336 25.9219 21.9322 27.6658 25.6917 28.0383C26.9157 28.1596 27.9999 27.1168 27.9999 25.582L27.9999 22.0366C27.9999 21.5835 27.6953 21.1871 27.2576 21.0703L22.3564 19.7633C22.0116 19.6714 21.644 19.7701 21.3917 20.0225L19.707 21.7071C19.4586 21.9555 19.0972 22.0551 18.7565 21.9699L18.9999 21Z" fill="#15172B"/></g></svg>