<svg width="32" height="32" viewBox="0 0 32 32" fill="none" xmlns="http://www.w3.org/2000/svg" role="img" aria-label="Variant=Thumb Down, Type=Outline" data-icon="variantthumbdowntypeoutline" data-category="navigation"><title>Variant=Thumb Down, Type=Outline</title><desc>navigation icon from Comcast Business Design System</desc><g id="Variant=Thumb Down, Type=Outline"><g id="shape"><path fill-rule="evenodd" clip-rule="evenodd" d="M7.66775 5C6.65358 5 5.79995 5.75909 5.68145 6.76632L4.38733 17.7663C4.24745 18.9553 5.17645 20 6.37364 20H14C14.5523 20 15 20.4477 15 21V27C15 28.1046 15.8954 29 17 29H17.382L23 17.7639V5H7.66775ZM25 5V17H27C28.1046 17 29 16.1046 29 15V7C29 5.89543 28.1046 5 27 5H25ZM24.618 19H27C29.2091 19 31 17.2091 31 15V7C31 4.79086 29.2091 3 27 3H7.66775C5.63941 3 3.93214 4.51818 3.69515 6.53263L2.40103 17.5326C2.12127 19.9106 3.97926 22 6.37364 22H13V27C13 29.2091 14.7909 31 17 31H18C18.3788 31 18.725 30.786 18.8944 30.4472L24.618 19Z" fill="#15172B"/></g></g></svg>