<svg width="32" height="32" viewBox="0 0 32 32" fill="none" xmlns="http://www.w3.org/2000/svg" role="img" aria-label="Variant=Thumb Up, Type=Outline" data-icon="variantthumbuptypeoutline" data-category="navigation"><title>Variant=Thumb Up, Type=Outline</title><desc>navigation icon from Comcast Business Design System</desc><g id="Variant=Thumb Up, Type=Outline"><g id="shape"><path fill-rule="evenodd" clip-rule="evenodd" d="M25.7054 29C26.7195 29 27.5732 28.2409 27.6917 27.2337L28.9858 16.2337C29.1257 15.0447 28.1967 14 26.9995 14L19.3731 14C18.8208 14 18.3731 13.5523 18.3731 13V7C18.3731 5.89543 17.4777 5 16.3731 5H15.9911L10.3731 16.2361L10.3731 29H25.7054ZM8.37311 29L8.37311 17H6.37311C5.26854 17 4.37311 17.8954 4.37311 19L4.37311 27C4.37311 28.1046 5.26854 29 6.37311 29H8.37311ZM8.75508 15H6.37311C4.16397 15 2.37311 16.7909 2.37311 19L2.37311 27C2.37311 29.2091 4.16397 31 6.37311 31H25.7054C27.7337 31 29.441 29.4818 29.678 27.4674L30.9721 16.4674C31.2518 14.0894 29.3939 12 26.9995 12L20.3731 12V7C20.3731 4.79086 18.5822 3 16.3731 3L15.3731 3C14.9943 3 14.6481 3.214 14.4787 3.55279L8.75508 15Z" fill="#15172B"/></g></g></svg>