<svg width="32" height="32" viewBox="0 0 32 32" fill="none" xmlns="http://www.w3.org/2000/svg" role="img" aria-label="Analytics" data-icon="analytics" data-category="data">
  <title>Analytics</title>
  <desc>data icon from Comcast Business Design System</desc>
<g id="Analytics">
<path id="shape" fill-rule="evenodd" clip-rule="evenodd" d="M10 2C10.5523 2 11 2.44772 11 3L11 29C11 29.5523 10.5523 30 10 30C9.44772 30 9 29.5523 9 29L9 3C9 2.44772 9.44772 2 10 2ZM22 6C22.5523 6 23 6.44772 23 7V29C23 29.5523 22.5523 30 22 30C21.4477 30 21 29.5523 21 29V7C21 6.44772 21.4477 6 22 6ZM4 11C4.55229 11 5 11.4477 5 12L5 29C5 29.5523 4.55228 30 4 30C3.44772 30 3 29.5523 3 29L3 12C3 11.4477 3.44772 11 4 11ZM16 11C16.5523 11 17 11.4477 17 12L17 29C17 29.5523 16.5523 30 16 30C15.4477 30 15 29.5523 15 29L15 12C15 11.4477 15.4477 11 16 11ZM28 16C28.5523 16 29 16.4477 29 17V29C29 29.5523 28.5523 30 28 30C27.4477 30 27 29.5523 27 29V17C27 16.4477 27.4477 16 28 16Z" fill="#15172B"/>
</g>
</svg>
