<svg width="32" height="32" viewBox="0 0 32 32" fill="none" xmlns="http://www.w3.org/2000/svg" role="img" aria-label="Article" data-icon="article" data-category="general">
  <title>Article</title>
  <desc>general icon from Comcast Business Design System</desc>
<g id="Article">
<path id="shape" fill-rule="evenodd" clip-rule="evenodd" d="M2 3C2 2.44772 2.44772 2 3 2H29C29.5523 2 30 2.44772 30 3V15C30 15.5523 29.5523 16 29 16H3C2.44772 16 2 15.5523 2 15V3ZM4 4V14H28V4H4ZM2 19C2 18.4477 2.44772 18 3 18H14.5C15.0523 18 15.5 18.4477 15.5 19V29C15.5 29.5523 15.0523 30 14.5 30H3C2.44772 30 2 29.5523 2 29V19ZM4 20V28H13.5V20H4ZM19 19C18.4477 19 18 19.4477 18 20C18 20.5523 18.4477 21 19 21H29C29.5523 21 30 20.5523 30 20C30 19.4477 29.5523 19 29 19H19ZM18 24C18 23.4477 18.4477 23 19 23H29C29.5523 23 30 23.4477 30 24C30 24.5523 29.5523 25 29 25H19C18.4477 25 18 24.5523 18 24ZM19 27C18.4477 27 18 27.4477 18 28C18 28.5523 18.4477 29 19 29H29C29.5523 29 30 28.5523 30 28C30 27.4477 29.5523 27 29 27H19Z" fill="#15172B"/>
</g>
</svg>
