<svg width="32" height="32" viewBox="0 0 32 32" fill="none" xmlns="http://www.w3.org/2000/svg" role="img" aria-label="Autopay" data-icon="autopay" data-category="general">
  <title>Autopay</title>
  <desc>general icon from Comcast Business Design System</desc>
<g id="Autopay">
<path id="shape" fill-rule="evenodd" clip-rule="evenodd" d="M11.5089 1.9167H13.5001C14.0524 1.9167 14.5001 2.36442 14.5001 2.9167C14.5001 3.46899 14.0524 3.9167 13.5001 3.9167H11.5L11.481 3.91652C10.5528 3.89895 9.46835 4.3711 8.7394 5.17281C8.00597 5.97943 7.66485 6.81686 7.63062 8.01388L7.6304 24.0443L9.69135 21.2166C10.0166 20.7703 10.6422 20.6722 11.0885 20.9975C11.5348 21.3228 11.6329 21.9483 11.3076 22.3946L7.4385 27.7032C7.24715 27.9658 6.9402 28.119 6.61538 28.1141C6.29055 28.1093 5.98833 27.9469 5.80494 27.6788L2.17419 22.37C1.86241 21.9142 1.97922 21.2919 2.43509 20.9801C2.89095 20.6683 3.51325 20.7851 3.82503 21.241L5.6304 23.8807L5.63062 8.00006C5.63062 7.99116 5.63074 7.98227 5.63098 7.97338C5.67527 6.31454 6.18536 5.00883 7.25964 3.82733C8.3387 2.64058 9.95642 1.89067 11.5089 1.9167ZM25 2C25.2856 2 25.5576 2.12215 25.7474 2.33564L29.7474 6.83564C30.1143 7.24842 30.0771 7.88049 29.6643 8.24741C29.2516 8.61433 28.6195 8.57715 28.2526 8.16437L26 5.6302L26 22L25.9999 22.0048C25.9916 23.7488 25.2235 25.0561 24.2505 26.1609C23.6794 26.8094 22.8714 27.3113 22.0734 27.6504C21.2734 27.9902 20.3847 28.2083 19.5984 28.2107L19.5954 28.2107H18C17.4477 28.2107 17 27.763 17 27.2107C17 26.6584 17.4477 26.2107 18 26.2107H19.5936C20.0492 26.2091 20.6708 26.0732 21.2913 25.8096C21.9143 25.5449 22.4376 25.1933 22.7496 24.8391C23.5422 23.9391 23.9941 23.081 24 21.9975L24 21.9952V5.6302L21.7474 8.16437C21.3805 8.57715 20.7484 8.61433 20.3356 8.24741C19.9228 7.88049 19.8856 7.24842 20.2526 6.83564L24.2526 2.33564C24.4423 2.12215 24.7143 2 25 2ZM16 8C16.5523 8 17 8.44772 17 9V10.4287H18.5C19.0523 10.4287 19.5 10.8764 19.5 11.4287C19.5 11.981 19.0523 12.4287 18.5 12.4287H14.75C14.5577 12.4287 14.369 12.5065 14.2267 12.6517C14.0838 12.7975 14 12.9996 14 13.2144C14 13.4293 14.0838 13.6313 14.2267 13.7772C14.369 13.9224 14.5577 14.0001 14.75 14.0001H17.25C17.9859 14.0001 18.6875 14.2986 19.2016 14.8232C19.715 15.3471 20 16.0535 20 16.7859C20 17.5182 19.715 18.2246 19.2016 18.7485C18.6875 19.2731 17.9859 19.5716 17.25 19.5716H17V21C17 21.5523 16.5523 22 16 22C15.4477 22 15 21.5523 15 21V19.5716H13C12.4477 19.5716 12 19.1239 12 18.5716C12 18.0193 12.4477 17.5716 13 17.5716H17.25C17.4423 17.5716 17.6309 17.4938 17.7732 17.3486C17.9161 17.2027 18 17.0007 18 16.7859C18 16.571 17.9161 16.369 17.7732 16.2231C17.6309 16.0779 17.4423 16.0001 17.25 16.0001H14.75C14.014 16.0001 13.3124 15.7016 12.7983 15.177C12.2849 14.6531 12 13.9468 12 13.2144C12 12.4821 12.2849 11.7757 12.7983 11.2518C13.3124 10.7272 14.014 10.4287 14.75 10.4287H15V9C15 8.44772 15.4477 8 16 8Z" fill="#15172B"/>
</g>
</svg>
