<svg width="32" height="32" viewBox="0 0 32 32" fill="none" xmlns="http://www.w3.org/2000/svg" role="img" aria-label="Cloud Upload" data-icon="cloudupload" data-category="navigation">
  <title>Cloud Upload</title>
  <desc>navigation icon from Comcast Business Design System</desc>
<g id="Cloud Upload">
<g id="shape">
<path d="M3 14C3 9.02944 7.02944 5 12 5C15.7648 5 18.9919 7.31113 20.3347 10.5963L20.6643 11.4027L21.5083 11.1867C21.9844 11.0648 22.4833 11 23 11C26.3138 11 29 13.6863 29 17C29 19.0381 27.9848 20.8392 26.428 21.9251C25.975 22.2411 25.8639 22.8644 26.1799 23.3174C26.4958 23.7704 27.1192 23.8815 27.5721 23.5655C29.6423 22.1215 31 19.7194 31 17C31 12.5817 27.4183 9 23 9C22.6073 9 22.221 9.02829 21.8428 9.08315C20.0383 5.47729 16.3095 3 12 3C5.92487 3 1 7.92487 1 14C1 17.5994 2.7299 20.7951 5.39942 22.8003C5.84101 23.132 6.46788 23.0429 6.79957 22.6013C7.13126 22.1597 7.04217 21.5329 6.60058 21.2012C4.41232 19.5575 3 16.9438 3 14Z" fill="#15172B"/>
<path d="M16.7071 15.2929C16.3166 14.9024 15.6834 14.9024 15.2929 15.2929L10.2929 20.2929C9.90237 20.6834 9.90237 21.3166 10.2929 21.7071C10.6834 22.0976 11.3166 22.0976 11.7071 21.7071L15 18.4142V28C15 28.5523 15.4477 29 16 29C16.5523 29 17 28.5523 17 28V18.4142L20.2929 21.7071C20.6834 22.0976 21.3166 22.0976 21.7071 21.7071C22.0976 21.3166 22.0976 20.6834 21.7071 20.2929L16.7071 15.2929Z" fill="#15172B"/>
</g>
</g>
</svg>
