<svg width="32" height="32" viewBox="0 0 32 32" fill="none" xmlns="http://www.w3.org/2000/svg" role="img" aria-label="Configure" data-icon="configure" data-category="general">
  <title>Configure</title>
  <desc>general icon from Comcast Business Design System</desc>
<g id="Configure">
<g id="shape">
<path d="M6 3C6.55228 3 7 3.44772 7 4V13C7 13.5523 6.55228 14 6 14C5.44772 14 5 13.5523 5 13V4C5 3.44772 5.44772 3 6 3Z" fill="#15172B"/>
<path d="M5 19H2C1.44772 19 1 18.5523 1 18C1 17.4477 1.44772 17 2 17H10C10.5523 17 11 17.4477 11 18C11 18.5523 10.5523 19 10 19H7V28C7 28.5523 6.55228 29 6 29C5.44772 29 5 28.5523 5 28V19Z" fill="#15172B"/>
<path d="M17 16C17 15.4477 16.5523 15 16 15C15.4477 15 15 15.4477 15 16V28C15 28.5523 15.4477 29 16 29C16.5523 29 17 28.5523 17 28V16Z" fill="#15172B"/>
<path d="M16 3C16.5523 3 17 3.44772 17 4V10H20C20.5523 10 21 10.4477 21 11C21 11.5523 20.5523 12 20 12H12C11.4477 12 11 11.5523 11 11C11 10.4477 11.4477 10 12 10H15V4C15 3.44772 15.4477 3 16 3Z" fill="#15172B"/>
<path d="M30 20C30.5523 20 31 20.4477 31 21C31 21.5523 30.5523 22 30 22H27V27.6667C27 28.219 26.5523 28.6667 26 28.6667C25.4477 28.6667 25 28.219 25 27.6667V22H22C21.4477 22 21 21.5523 21 21C21 20.4477 21.4477 20 22 20H30Z" fill="#15172B"/>
<path d="M26 3C26.5523 3 27 3.44772 27 4V16C27 16.5523 26.5523 17 26 17C25.4477 17 25 16.5523 25 16V4C25 3.44772 25.4477 3 26 3Z" fill="#15172B"/>
</g>
</g>
</svg>
