<svg width="32" height="32" viewBox="0 0 32 32" fill="none" xmlns="http://www.w3.org/2000/svg" role="img" aria-label="Deployment" data-icon="deployment" data-category="general">
  <title>Deployment</title>
  <desc>general icon from Comcast Business Design System</desc>
<g id="Deployment">
<path id="shape" fill-rule="evenodd" clip-rule="evenodd" d="M18.0373 19.9696C20.3613 17.7638 23.1939 15.0486 25.2663 12.9762C26.8787 11.3638 27.6338 8.81872 27.9233 6.38948C28.0319 5.47746 28.0689 4.63349 28.0733 3.94239C27.3909 3.95256 26.5595 3.99609 25.6609 4.11016C23.2515 4.41603 20.7141 5.18494 19.0944 6.80461C17.0255 8.87357 14.3234 11.7136 12.1283 14.0477C11.1351 15.1038 10.2491 16.0528 9.57719 16.7747L15.3302 22.5277C16.0477 21.8527 16.9893 20.9643 18.0373 19.9696ZM14.5326 24.5585L7.55276 17.5787C7.53403 17.5622 7.51578 17.5448 7.49804 17.5267L7.3877 17.4136L6.80068 16.8266L6.80745 16.8193L2.78457 12.6986C2.50355 12.4107 2.42238 11.9825 2.57855 11.6118C2.73473 11.2411 3.09784 11 3.50012 11H12.2547C14.0851 9.06811 16.0689 7.00177 17.6802 5.39039C21.8645 1.20613 29.9997 1.99998 29.9997 1.99998C29.9997 1.99998 30.8648 10.2062 26.6806 14.3904C25.0367 16.0343 22.9257 18.0722 20.9684 19.9408C20.9695 19.9593 20.9701 19.9778 20.9702 19.9965L21 28.4965C21.0014 28.8993 20.761 29.2637 20.39 29.4208C20.019 29.5779 19.59 29.4971 19.3017 29.2157L15.2934 25.3049L15.286 25.3119L14.702 24.7279L14.5859 24.6147C14.5673 24.5965 14.5495 24.5778 14.5326 24.5585ZM10.3684 13C9.52226 13.9009 8.76582 14.711 8.16958 15.3515L5.87391 13H10.3684ZM16.7532 23.935L18.9916 26.119L18.9766 21.8352C18.1266 22.6408 17.3626 23.3615 16.7532 23.935ZM22.0919 10.0208C21.7014 9.63029 21.0682 9.63029 20.6777 10.0208C20.2871 10.4113 20.2871 11.0445 20.6777 11.435C21.0682 11.8256 21.7014 11.8256 22.0919 11.435C22.4824 11.0445 22.4824 10.4113 22.0919 10.0208ZM19.2635 8.6066C20.435 7.43503 22.3345 7.43503 23.5061 8.6066C24.6777 9.77818 24.6777 11.6777 23.5061 12.8492C22.3345 14.0208 20.435 14.0208 19.2635 12.8492C18.0919 11.6777 18.0919 9.77818 19.2635 8.6066ZM7.70714 21.7071C8.09767 21.3166 8.09768 20.6834 7.70716 20.2929C7.31664 19.9024 6.68348 19.9024 6.29294 20.2929L4.29288 22.2929C3.90235 22.6834 3.90234 23.3166 4.29286 23.7071C4.68338 24.0976 5.31655 24.0976 5.70708 23.7071L7.70714 21.7071ZM11.7071 25.7071C12.0976 25.3166 12.0976 24.6834 11.7071 24.2929C11.3166 23.9024 10.6834 23.9024 10.2929 24.2929L8.2929 26.2929C7.90238 26.6834 7.90238 27.3166 8.2929 27.7071C8.68343 28.0976 9.31659 28.0976 9.70712 27.7071L11.7071 25.7071ZM9.70709 23.7071C10.0976 23.3166 10.0976 22.6834 9.70708 22.2929C9.31656 21.9024 8.68339 21.9024 8.29287 22.2929L4.2929 26.2929C3.90238 26.6834 3.90238 27.3166 4.29291 27.7071C4.68343 28.0976 5.3166 28.0976 5.70712 27.7071L9.70709 23.7071Z" fill="#15172B"/>
</g>
</svg>
