<svg width="32" height="32" viewBox="0 0 32 32" fill="none" xmlns="http://www.w3.org/2000/svg" role="img" aria-label="Document" data-icon="document" data-category="file">
  <title>Document</title>
  <desc>file icon from Comcast Business Design System</desc>
<g id="Document">
<path id="shape" fill-rule="evenodd" clip-rule="evenodd" d="M9.25 3C8.36646 3 7.53325 3.37498 6.92947 4.019C6.32775 4.66084 6 5.51834 6 6.4V25.6C6 26.4817 6.32775 27.3392 6.92947 27.981C7.53325 28.625 8.36646 29 9.25 29H22.75C23.6335 29 24.4668 28.625 25.0705 27.981C25.6723 27.3392 26 26.4817 26 25.6V12.4C26 12.1459 25.9033 11.9014 25.7295 11.7161L17.8545 3.31606C17.6655 3.11441 17.4014 3 17.125 3H9.25ZM16 5H9.25C8.94007 5 8.62869 5.13074 8.38855 5.38688C8.14636 5.64522 8 6.00862 8 6.4V25.6C8 25.9914 8.14636 26.3548 8.38855 26.6131C8.62869 26.8693 8.94007 27 9.25 27H22.75C23.0599 27 23.3713 26.8693 23.6115 26.6131C23.8536 26.3548 24 25.9914 24 25.6V13.5H17C16.4477 13.5 16 13.0523 16 12.5V5ZM22.7855 11.5H18V6.39545L22.7855 11.5Z" fill="#15172B"/>
</g>
</svg>
