<svg width="32" height="32" viewBox="0 0 32 32" fill="none" xmlns="http://www.w3.org/2000/svg" role="img" aria-label="Expanded Textbox" data-icon="expandedtextbox" data-category="general">
  <title>Expanded Textbox</title>
  <desc>general icon from Comcast Business Design System</desc>
<g id="Expanded Textbox">
<g id="Union">
<path d="M17.9159 15.2244C18.3085 14.904 18.8876 14.9269 19.2538 15.2927C19.6197 15.6587 19.6431 16.2379 19.3231 16.6306L19.2538 16.7068L16.2567 19.7058C15.8663 20.0964 15.2323 20.0962 14.8417 19.7058C14.4517 19.3155 14.4519 18.6832 14.8417 18.2927L17.8397 15.2927L17.9159 15.2244Z" fill="#15172B"/>
<path d="M17.37 10.2244C17.7628 9.90402 18.3418 9.92662 18.7079 10.2927C19.0739 10.6589 19.0966 11.2379 18.7763 11.6306L18.7079 11.7068L11.7069 18.7078C11.3164 19.0977 10.6832 19.0979 10.2929 18.7078C9.90236 18.3173 9.9024 17.6833 10.2929 17.2927L17.2938 10.2927L17.37 10.2244Z" fill="#15172B"/>
</g>
</g>
</svg>
