<svg width="32" height="32" viewBox="0 0 32 32" fill="none" xmlns="http://www.w3.org/2000/svg" role="img" aria-label="External Link 1" data-icon="externallink1" data-category="general">
  <title>External Link 1</title>
  <desc>general icon from Comcast Business Design System</desc>
<g id="External Link 1">
<path id="shape" d="M14.7686 7.00488C15.273 7.05592 15.667 7.4821 15.667 8C15.667 8.5179 15.273 8.94408 14.7686 8.99512L14.667 9H6.66699C6.22496 9 5.80084 9.17572 5.48828 9.48828C5.17572 9.80084 5 10.225 5 10.667V25.333C5 25.775 5.17572 26.1992 5.48828 26.5117C5.80084 26.8243 6.22497 27 6.66699 27H21.333C21.775 27 22.1992 26.8243 22.5117 26.5117C22.8243 26.1992 23 25.775 23 25.333V17.333C23.0002 16.7809 23.4478 16.333 24 16.333C24.5522 16.333 24.9998 16.7809 25 17.333V25.333C25 26.3055 24.6134 27.2381 23.9258 27.9258C23.2381 28.6134 22.3055 29 21.333 29H6.66699C5.69453 29 4.76185 28.6134 4.07422 27.9258C3.38659 27.2381 3 26.3055 3 25.333V10.667C3 9.69453 3.38659 8.76185 4.07422 8.07422C4.76185 7.38659 5.69453 7 6.66699 7H14.667L14.7686 7.00488ZM28.0205 3.00098C28.0381 3.00133 28.0557 3.00165 28.0732 3.00293L28.1025 3.00488C28.2327 3.01814 28.3553 3.05687 28.4658 3.11523C28.471 3.11794 28.4763 3.12024 28.4814 3.12305L28.5342 3.1543C28.5395 3.15768 28.5445 3.16156 28.5498 3.16504C28.5582 3.17055 28.566 3.17683 28.5742 3.18262C28.5927 3.19565 28.6114 3.20843 28.6289 3.22266C28.6343 3.22701 28.6392 3.23185 28.6445 3.23633C28.6623 3.25138 28.6796 3.26696 28.6963 3.2832C28.6998 3.28657 28.7036 3.28954 28.707 3.29297C28.7101 3.29607 28.7128 3.29961 28.7158 3.30273C28.7533 3.34121 28.7874 3.38267 28.8184 3.42676C28.8243 3.43521 28.8303 3.44356 28.8359 3.45215C28.8452 3.4662 28.8538 3.48059 28.8623 3.49512C28.8679 3.50458 28.8737 3.51383 28.8789 3.52344C28.8901 3.54413 28.9004 3.56537 28.9102 3.58691C28.9137 3.59464 28.9166 3.60256 28.9199 3.61035C28.9279 3.6292 28.9346 3.64855 28.9414 3.66797C28.9452 3.67868 28.9488 3.68938 28.9521 3.7002C28.958 3.71893 28.9639 3.73764 28.9688 3.75684C28.9707 3.76466 28.9728 3.77241 28.9746 3.78027C28.9795 3.80187 28.9839 3.82361 28.9873 3.8457C28.9892 3.85805 28.9907 3.87042 28.9922 3.88281C28.9936 3.89511 28.9941 3.90749 28.9951 3.91992C28.9967 3.94011 28.9986 3.96023 28.999 3.98047C28.9991 3.98697 29 3.99347 29 4V12C29 12.5523 28.5523 13 28 13C27.4477 13 27 12.5523 27 12V6.41406L14.707 18.707C14.3165 19.0976 13.6835 19.0976 13.293 18.707C12.9025 18.3165 12.9025 17.6835 13.293 17.293L25.5859 5H20C19.4477 5 19 4.55228 19 4C19 3.44772 19.4477 3 20 3H28L28.0205 3.00098Z" fill="#15172B"/>
</g>
</svg>
