<svg width="32" height="32" viewBox="0 0 32 32" fill="none" xmlns="http://www.w3.org/2000/svg" role="img" aria-label="Get Help" data-icon="gethelp" data-category="general">
  <title>Get Help</title>
  <desc>general icon from Comcast Business Design System</desc>
<g id="Get Help">
<path id="shape" fill-rule="evenodd" clip-rule="evenodd" d="M8.16119 7.16117C6.17862 9.14374 5.00002 12.003 5.00002 15.5C5.00002 17.7052 5.46944 19.655 6.30807 21.2873C6.431 21.5266 6.45235 21.8053 6.36728 22.0605L4.55792 27.4886L10.2724 25.7743C10.5104 25.7028 10.7666 25.7226 10.9908 25.8298C12.5646 26.5817 14.4185 27 16.5 27C19.997 27 22.8563 25.8214 24.8389 23.8388C26.8214 21.8563 28 18.997 28 15.5C28 12.003 26.8214 9.14374 24.8389 7.16117C22.8563 5.17859 19.997 4 16.5 4C13.0031 4 10.1438 5.17859 8.16119 7.16117ZM6.74698 5.74695C9.15044 3.34349 12.5411 2 16.5 2C20.4589 2 23.8496 3.34349 26.2531 5.74695C28.6565 8.15042 30 11.5411 30 15.5C30 19.4589 28.6565 22.8496 26.2531 25.253C23.8496 27.6565 20.4589 29 16.5 29C14.2975 29 12.2691 28.5847 10.4857 27.7983L3.28737 29.9578C2.9298 30.0651 2.54224 29.9643 2.28229 29.6963C2.02234 29.4284 1.93329 29.0379 2.05134 28.6838L4.34007 21.8176C3.46421 19.9624 3.00002 17.8286 3.00002 15.5C3.00002 11.5411 4.34351 8.15042 6.74698 5.74695Z" fill="#15172B"/>
</g>
</svg>
