<svg width="32" height="32" viewBox="0 0 32 32" fill="none" xmlns="http://www.w3.org/2000/svg" role="img" aria-label="Internet" data-icon="internet" data-category="general">
  <title>Internet</title>
  <desc>general icon from Comcast Business Design System</desc>
<g id="Internet">
<path id="shape" fill-rule="evenodd" clip-rule="evenodd" d="M4.0411 15H10.042C10.2967 11.1018 11.5995 7.36182 13.7923 4.20265C8.53895 5.1796 4.48833 9.57893 4.0411 15ZM16 4.57199C13.7028 7.54712 12.3216 11.1831 12.0467 15H19.9533C19.6784 11.1831 18.2972 7.54711 16 4.57199ZM19.9533 17C19.6784 20.8169 18.2972 24.4529 16 27.428C13.7028 24.4529 12.3216 20.8169 12.0467 17H19.9533ZM10.042 17H4.0411C4.48833 22.4211 8.53894 26.8204 13.7923 27.7973C11.5995 24.6382 10.2967 20.8982 10.042 17ZM18.2078 27.7973C20.4006 24.6382 21.7032 20.8982 21.958 17H27.959C27.5117 22.4211 23.4611 26.8204 18.2078 27.7973ZM27.959 15H21.958C21.7032 11.1018 20.4006 7.36183 18.2078 4.20265C23.4611 5.1796 27.5117 9.57893 27.959 15ZM2.00003 16C2.00003 8.26801 8.26804 2 16 2C23.732 2 30 8.26801 30 16C30 23.732 23.732 30 16 30C8.26804 30 2.00003 23.732 2.00003 16Z" fill="#15172B"/>
</g>
</svg>
