<svg width="32" height="32" viewBox="0 0 32 32" fill="none" xmlns="http://www.w3.org/2000/svg" role="img" aria-label="Log Out" data-icon="logout" data-category="general">
  <title>Log Out</title>
  <desc>general icon from Comcast Business Design System</desc>
<g id="Log Out">
<path id="shape" fill-rule="evenodd" clip-rule="evenodd" d="M12 3C12 2.44772 11.5523 2 11 2H5.66667C4.69421 2 3.76158 2.38631 3.07394 3.07394C2.38631 3.76157 2 4.6942 2 5.66667L2 26.3333C2 27.3058 2.38631 28.2384 3.07394 28.9261C3.76158 29.6137 4.69421 30 5.66667 30H11C11.5523 30 12 29.5523 12 29C12 28.4477 11.5523 28 11 28H5.66667C5.22464 28 4.80072 27.8244 4.48816 27.5118C4.1756 27.1993 4 26.7754 4 26.3333L4 5.66667C4 5.22464 4.1756 4.80072 4.48816 4.48816C4.80072 4.17559 5.22464 4 5.66667 4H11C11.5523 4 12 3.55228 12 3ZM20.2929 8.29265C20.6834 7.90212 21.3166 7.90212 21.7071 8.29265L28.7073 15.2928C29.0978 15.6833 29.0978 16.3165 28.7073 16.707L21.7071 23.7072C21.3166 24.0977 20.6834 24.0977 20.2929 23.7072C19.9024 23.3167 19.9024 22.6835 20.2929 22.293L25.5859 17H12C11.4477 17 11 16.5523 11 16C11 15.4477 11.4477 15 12 15H25.586L20.2929 9.70686C19.9024 9.31634 19.9024 8.68317 20.2929 8.29265Z" fill="#15172B"/>
</g>
</svg>
