<svg width="32" height="32" viewBox="0 0 32 32" fill="none" xmlns="http://www.w3.org/2000/svg" role="img" aria-label="Money" data-icon="money" data-category="commerce">
  <title>Money</title>
  <desc>commerce icon from Comcast Business Design System</desc>
<g id="Money">
<path id="shape" fill-rule="evenodd" clip-rule="evenodd" d="M16 2C16.5523 2 17 2.44772 17 3V6H22C22.5523 6 23 6.44772 23 7C23 7.55228 22.5523 8 22 8H17V15H18.5C21.5376 15 24 17.4624 24 20.5C24 23.5376 21.5376 26 18.5 26H17V29C17 29.5523 16.5523 30 16 30C15.4477 30 15 29.5523 15 29V26H10C9.44772 26 9 25.5523 9 25C9 24.4477 9.44772 24 10 24H15V17H13.5C10.4624 17 8 14.5376 8 11.5C8 8.46243 10.4624 6 13.5 6H15V3C15 2.44772 15.4477 2 16 2ZM15 8H13.5C11.567 8 10 9.567 10 11.5C10 13.433 11.567 15 13.5 15H15V8ZM17 17V24H18.5C20.433 24 22 22.433 22 20.5C22 18.567 20.433 17 18.5 17H17Z" fill="#15172B"/>
</g>
</svg>
