<svg width="32" height="32" viewBox="0 0 32 32" fill="none" xmlns="http://www.w3.org/2000/svg" role="img" aria-label="Numbers" data-icon="numbers" data-category="general">
  <title>Numbers</title>
  <desc>general icon from Comcast Business Design System</desc>
<g id="Numbers">
<g id="shape">
<path fill-rule="evenodd" clip-rule="evenodd" d="M13.0832 3.00345C13.6336 3.04931 14.0426 3.53266 13.9967 4.08304L13.4203 11H19.4134L20.0036 3.91695C20.0495 3.36657 20.5328 2.95758 21.0832 3.00345C21.6336 3.04931 22.0426 3.53266 21.9967 4.08304L21.4203 11H26.6668C27.2191 11 27.6668 11.4477 27.6668 12C27.6668 12.5523 27.2191 13 26.6668 13H21.2536L20.7536 19H26.6668C27.2191 19 27.6668 19.4477 27.6668 20C27.6668 20.5523 27.2191 21 26.6668 21H20.587L19.9967 28.083C19.9509 28.6334 19.4675 29.0424 18.9171 28.9965C18.3668 28.9507 17.9578 28.4673 18.0036 27.917L18.58 21H12.587L11.9967 28.083C11.9509 28.6334 11.4675 29.0424 10.9171 28.9965C10.3668 28.9507 9.95777 28.4673 10.0036 27.917L10.58 21H5.3335C4.78121 21 4.3335 20.5523 4.3335 20C4.3335 19.4477 4.78121 19 5.3335 19H10.7467L11.2467 13H5.3335C4.78121 13 4.3335 12.5523 4.3335 12C4.3335 11.4477 4.78121 11 5.3335 11H11.4134L12.0036 3.91695C12.0495 3.36657 12.5328 2.95758 13.0832 3.00345ZM18.7467 19L19.2467 13H13.2536L12.7536 19H18.7467Z" fill="#15172B"/>
</g>
</g>
</svg>
