<svg width="32" height="32" viewBox="0 0 32 32" fill="none" xmlns="http://www.w3.org/2000/svg" role="img" aria-label="Payment Card" data-icon="paymentcard" data-category="commerce">
  <title>Payment Card</title>
  <desc>commerce icon from Comcast Business Design System</desc>
<g id="Payment Card">
<path id="shape" fill-rule="evenodd" clip-rule="evenodd" d="M4 6C2.89543 6 2 6.89543 2 8V24C2 25.1046 2.89543 26 4 26H28C29.1046 26 30 25.1046 30 24V8C30 6.89543 29.1046 6 28 6H4ZM4 8H28V24H4V8ZM6 21C5.44772 21 5 21.4477 5 22C5 22.5523 5.44772 23 6 23H11C11.5523 23 12 22.5523 12 22C12 21.4477 11.5523 21 11 21H6ZM5 18C5 17.4477 5.44772 17 6 17H15C15.5523 17 16 17.4477 16 18C16 18.5523 15.5523 19 15 19H6C5.44772 19 5 18.5523 5 18ZM24.5 13C25.3284 13 26 12.3284 26 11.5C26 10.6716 25.3284 10 24.5 10C23.6716 10 23 10.6716 23 11.5C23 12.3284 23.6716 13 24.5 13Z" fill="#15172B"/>
</g>
</svg>
