<svg width="32" height="32" viewBox="0 0 32 32" fill="none" xmlns="http://www.w3.org/2000/svg" role="img" aria-label="PIN" data-icon="pin" data-category="location">
  <title>PIN</title>
  <desc>location icon from Comcast Business Design System</desc>
<g id="PIN">
<path id="shape" fill-rule="evenodd" clip-rule="evenodd" d="M2 9C2 8.44772 2.44772 8 3 8H29C29.5523 8 30 8.44772 30 9V23C30 23.5523 29.5523 24 29 24H3C2.44772 24 2 23.5523 2 23V9ZM4 10V22H28V10H4ZM5.96967 13.4697C6.26256 13.1768 6.73744 13.1768 7.03033 13.4697L8.5 14.9393L9.96967 13.4697C10.2626 13.1768 10.7374 13.1768 11.0303 13.4697C11.3232 13.7626 11.3232 14.2374 11.0303 14.5303L9.56066 16L11.0303 17.4697C11.3232 17.7626 11.3232 18.2374 11.0303 18.5303C10.7374 18.8232 10.2626 18.8232 9.96967 18.5303L8.5 17.0607L7.03033 18.5303C6.73744 18.8232 6.26256 18.8232 5.96967 18.5303C5.67678 18.2374 5.67678 17.7626 5.96967 17.4697L7.43934 16L5.96967 14.5303C5.67678 14.2374 5.67678 13.7626 5.96967 13.4697ZM14.5303 13.4697C14.2374 13.1768 13.7626 13.1768 13.4697 13.4697C13.1768 13.7626 13.1768 14.2374 13.4697 14.5303L14.9393 16L13.4697 17.4697C13.1768 17.7626 13.1768 18.2374 13.4697 18.5303C13.7626 18.8232 14.2374 18.8232 14.5303 18.5303L16 17.0607L17.4697 18.5303C17.7626 18.8232 18.2374 18.8232 18.5303 18.5303C18.8232 18.2374 18.8232 17.7626 18.5303 17.4697L17.0607 16L18.5303 14.5303C18.8232 14.2374 18.8232 13.7626 18.5303 13.4697C18.2374 13.1768 17.7626 13.1768 17.4697 13.4697L16 14.9393L14.5303 13.4697ZM20.9697 13.4697C21.2626 13.1768 21.7374 13.1768 22.0303 13.4697L23.5 14.9393L24.9697 13.4697C25.2626 13.1768 25.7374 13.1768 26.0303 13.4697C26.3232 13.7626 26.3232 14.2374 26.0303 14.5303L24.5607 16L26.0303 17.4697C26.3232 17.7626 26.3232 18.2374 26.0303 18.5303C25.7374 18.8232 25.2626 18.8232 24.9697 18.5303L23.5 17.0607L22.0303 18.5303C21.7374 18.8232 21.2626 18.8232 20.9697 18.5303C20.6768 18.2374 20.6768 17.7626 20.9697 17.4697L22.4393 16L20.9697 14.5303C20.6768 14.2374 20.6768 13.7626 20.9697 13.4697Z" fill="#15172B"/>
</g>
</svg>
