<svg width="32" height="32" viewBox="0 0 32 32" fill="none" xmlns="http://www.w3.org/2000/svg" role="img" aria-label="Plus" data-icon="plus" data-category="general">
  <title>Plus</title>
  <desc>general icon from Comcast Business Design System</desc>
<g id="Plus">
<path id="shape" d="M16.0005 5.66675C16.5525 5.66701 17.0005 6.11463 17.0005 6.66675V14.9998H25.3335L25.4351 15.0046C25.9394 15.0557 26.3334 15.482 26.3335 15.9998C26.3335 16.5176 25.9395 16.9438 25.4351 16.9949L25.3335 16.9998H17.0005V25.3337C17.0003 25.8857 16.5524 26.3335 16.0005 26.3337C15.4483 26.3337 15.0007 25.8859 15.0005 25.3337V16.9998H6.6665C6.11422 16.9998 5.6665 16.552 5.6665 15.9998C5.66664 15.4476 6.1143 14.9998 6.6665 14.9998H15.0005V6.66675C15.0005 6.11446 15.4482 5.66675 16.0005 5.66675Z" fill="#15172B"/>
</g>
</svg>
