<svg width="20" height="20" viewBox="0 0 20 20" fill="none" xmlns="http://www.w3.org/2000/svg" role="img" aria-label="Property 1=Variant2" data-icon="property1variant2" data-category="general">
  <title>Property 1=Variant2</title>
  <desc>general icon from Comcast Business Design System</desc>
<g id="Property 1=Variant2" clip-path="url(#clip0_5135_51185)">
<path id="Vector" d="M18.9862 15.7803L14.5536 11.7668C15.0419 10.9008 15.3776 9.93411 15.5115 8.89592C15.5645 8.48365 15.2771 8.10527 14.8698 8.05254C14.4605 7.99701 14.0885 8.28974 14.0364 8.70201C13.63 11.8721 10.9357 14.262 7.76883 14.262C4.28121 14.262 1.44454 11.3912 1.44454 7.86153C1.44454 4.33189 4.28121 1.46105 7.76883 1.46105C8.97233 1.46105 10.1442 1.80556 11.1562 2.45785C11.5031 2.68187 11.9635 2.57739 12.183 2.22629C12.4034 1.87521 12.3011 1.41022 11.9542 1.18714C10.7023 0.381403 9.25515 -0.0449829 7.76801 -0.0449829C3.45991 -0.0449829 -0.0443726 3.50176 -0.0443726 7.86152C-0.0443726 12.2213 3.46015 15.768 7.76801 15.768C9.1631 15.768 10.4802 15.3868 11.6249 14.7261L15.5935 19.214C16.0315 19.7101 16.6603 20.0056 17.3178 20.0235C17.3401 20.0244 17.3615 20.0244 17.3839 20.0244C18.0182 20.0244 18.6348 19.7665 19.084 19.3119C19.549 18.8413 19.8048 18.1899 19.7871 17.5244C19.7694 16.859 19.4774 16.2236 18.9873 15.7793L18.9862 15.7803ZM18.0301 18.2472C17.8506 18.4289 17.6116 18.5174 17.3577 18.5183C17.1038 18.5108 16.8703 18.4016 16.701 18.2096L12.8506 13.8544C13.151 13.5937 13.4291 13.3076 13.6876 13.0035L17.9938 16.9023C18.1835 17.0736 18.2914 17.3099 18.2979 17.5669C18.3054 17.8238 18.2096 18.0656 18.0301 18.2472Z" fill="white"/>
<path id="Vector_2" d="M8.77146 3.99372C8.68217 3.6671 8.38919 3.44119 8.05438 3.44119C7.71957 3.44119 7.4266 3.6671 7.33731 3.99372C6.70581 6.30736 6.3375 6.68095 4.05041 7.32023C3.72767 7.41059 3.50446 7.7071 3.50446 8.04594C3.50446 8.38478 3.72767 8.68129 4.05041 8.77165C6.3365 9.41076 6.70565 9.78351 7.33731 12.0982C7.4266 12.4248 7.71957 12.6507 8.05438 12.6507C8.38919 12.6507 8.68217 12.4248 8.77146 12.0982C9.40296 9.78452 9.77126 9.41093 12.0584 8.77165C12.3811 8.68129 12.6043 8.38478 12.6043 8.04594C12.6043 7.7071 12.3811 7.41059 12.0584 7.32023C9.77226 6.68112 9.40312 6.30837 8.77146 3.99372ZM8.05438 9.71107C7.6591 8.94958 7.16153 8.44507 6.4091 8.04596C7.16153 7.64592 7.6591 7.14235 8.05438 6.37992C8.44967 7.14141 8.94724 7.64592 9.69967 8.04596C8.94724 8.44505 8.44967 8.94958 8.05438 9.71107Z" fill="white"/>
</g>
<defs>
<clipPath id="clip0_5135_51185">
<rect width="20" height="20" fill="white"/>
</clipPath>
</defs>
</svg>
