<svg width="32" height="32" viewBox="0 0 32 32" fill="none" xmlns="http://www.w3.org/2000/svg" role="img" aria-label="Security Question" data-icon="securityquestion" data-category="security">
  <title>Security Question</title>
  <desc>security icon from Comcast Business Design System</desc>
<g id="Security Question">
<path id="shape" fill-rule="evenodd" clip-rule="evenodd" d="M16.3417 2.06021C16.121 1.97993 15.879 1.97993 15.6583 2.06021L4.65826 6.06021C4.26307 6.20391 4 6.57949 4 7V13.4096C4 20.8603 8.35485 27.6234 15.1377 30.7065L15.5862 30.9104C15.8491 31.0299 16.1509 31.0299 16.4138 30.9104L16.8623 30.7065C23.6451 27.6234 28 20.8603 28 13.4096V7C28 6.57949 27.7369 6.20391 27.3417 6.06021L16.3417 2.06021ZM6 13.4096V7.70043L16 4.06406L26 7.70043V13.4096C26 20.076 22.1036 26.1272 16.0347 28.8858L16 28.9015L15.9654 28.8858C9.89645 26.1272 6 20.076 6 13.4096ZM14.3737 10.741C14.9845 10.382 15.7026 10.2508 16.4009 10.3706C17.0992 10.4904 17.7325 10.8534 18.1888 11.3954C18.6451 11.9374 18.8948 12.6234 18.8937 13.3319V13.3334C18.8937 14.1358 18.2786 14.8749 17.339 15.5013C16.8997 15.7942 16.4532 16.0182 16.1126 16.1696C15.9437 16.2446 15.8044 16.3003 15.7096 16.3364C15.6623 16.3544 15.6263 16.3674 15.6036 16.3755L15.5798 16.3839L15.577 16.3848L15.5759 16.3852C15.053 16.5605 14.7706 17.1262 14.945 17.6496C15.1197 18.1735 15.686 18.4567 16.21 18.282L15.8937 17.3334C16.21 18.282 16.2112 18.2816 16.2112 18.2816L16.2129 18.2811L16.2174 18.2796L16.2306 18.275L16.2737 18.26C16.3095 18.2472 16.3595 18.229 16.4216 18.2054C16.5456 18.1581 16.7187 18.0888 16.9249 17.9972C17.3343 17.8152 17.8878 17.5392 18.4484 17.1654C19.5087 16.4586 20.8933 15.198 20.8937 13.3343C20.8953 12.1537 20.4792 11.0106 19.7189 10.1074C18.9584 9.20406 17.9028 8.599 16.739 8.39937C15.5752 8.19975 14.3783 8.41845 13.3603 9.01674C12.3423 9.61503 11.5689 10.5543 11.1771 11.6682C10.9938 12.1892 11.2676 12.7601 11.7885 12.9434C12.3095 13.1266 12.8805 12.8529 13.0637 12.3319C13.2988 11.6635 13.7629 11.1 14.3737 10.741ZM17.0003 23C17.0003 23.5523 16.5526 24 16.0003 24C15.448 24 15.0003 23.5523 15.0003 23C15.0003 22.4477 15.448 22 16.0003 22C16.5526 22 17.0003 22.4477 17.0003 23Z" fill="#15172B"/>
</g>
</svg>
