<svg width="32" height="32" viewBox="0 0 32 32" fill="none" xmlns="http://www.w3.org/2000/svg" role="img" aria-label="SIM Card" data-icon="simcard" data-category="general">
  <title>SIM Card</title>
  <desc>general icon from Comcast Business Design System</desc>
<g id="SIM Card">
<g id="shape">
<path fill-rule="evenodd" clip-rule="evenodd" d="M11.75 14C10.7835 14 10 14.7835 10 15.75V23.25C10 24.2165 10.7835 25 11.75 25H20.25C21.2165 25 22 24.2165 22 23.25V15.75C22 14.7835 21.2165 14 20.25 14H11.75ZM11.5 15.75C11.5 15.6119 11.6119 15.5 11.75 15.5H13.75V17H11.5V15.75ZM15.25 17V15.5H17V17H15.25ZM18.5 17V15.5H20.25C20.3881 15.5 20.5 15.6119 20.5 15.75V17H18.5ZM11.5 18.5H20.5V20.5H11.5V18.5ZM18.5 22H20.5V23.25C20.5 23.3881 20.3881 23.5 20.25 23.5H18.5V22ZM17 22V23.5H15.25V22H17ZM13.75 22V23.5H11.75C11.6119 23.5 11.5 23.3881 11.5 23.25V22H13.75Z" fill="#15172B"/>
<path fill-rule="evenodd" clip-rule="evenodd" d="M8 3C6.89543 3 6 3.89543 6 5V27C6 28.1046 6.89543 29 8 29H24C25.1046 29 26 28.1046 26 27V11.4142C26 10.8838 25.7893 10.3751 25.4142 10L19 3.58579C18.6249 3.21071 18.1162 3 17.5858 3H8ZM8 5L17.5858 5L24 11.4142V27H8V5Z" fill="#15172B"/>
</g>
</g>
</svg>
