<svg width="12" height="12" viewBox="0 0 12 12" fill="none" xmlns="http://www.w3.org/2000/svg" role="img" aria-label="Size=XXS - 12" data-icon="sizexxs12" data-category="general">
  <title>Size=XXS - 12</title>
  <desc>general icon from Comcast Business Design System</desc>
<g id="Size=XXS - 12">
<g id="Icon">
<path id="shape" fill-rule="evenodd" clip-rule="evenodd" d="M9.26517 1.70083C9.39375 1.57224 9.56815 1.5 9.75 1.5C9.93185 1.5 10.1062 1.57224 10.2348 1.70083C10.3634 1.82941 10.4357 2.00381 10.4357 2.18566C10.4357 2.36751 10.3634 2.54191 10.2348 2.6705L5.55828 7.34705L4.26539 7.67027L4.58861 6.37738L9.26517 1.70083ZM9.75 0.75C9.36924 0.75 9.00407 0.901257 8.73483 1.1705L3.98483 5.9205C3.93678 5.96855 3.90268 6.02877 3.8862 6.09471L3.3862 8.09471C3.35425 8.2225 3.39169 8.35768 3.48484 8.45083C3.57798 8.54397 3.71316 8.58141 3.84095 8.54946L5.84095 8.04946C5.90689 8.03298 5.96711 7.99889 6.01516 7.95083L10.7652 3.20083C11.0344 2.93159 11.1857 2.56642 11.1857 2.18566C11.1857 1.8049 11.0344 1.43973 10.7652 1.1705C10.4959 0.901257 10.1308 0.75 9.75 0.75ZM2.125 1.5C1.76033 1.5 1.41059 1.64487 1.15273 1.90273C0.894866 2.16059 0.75 2.51033 0.75 2.875V2.87501L0.750167 9.87498C0.750167 10.2396 0.895032 10.5894 1.15289 10.8472C1.41076 11.1051 1.76049 11.25 2.12517 11.25H9.12517C9.48984 11.25 9.83958 11.1051 10.0974 10.8472C10.3553 10.5894 10.5002 10.2396 10.5002 9.87497V6.49999C10.5002 6.29288 10.3323 6.12499 10.1252 6.12499C9.91806 6.12499 9.75017 6.29288 9.75017 6.49999V9.87497C9.75017 10.0407 9.68432 10.1997 9.56711 10.3169C9.4499 10.4341 9.29093 10.5 9.12517 10.5H2.12517C1.95941 10.5 1.80043 10.4341 1.68322 10.3169C1.56601 10.1997 1.50017 10.0407 1.50017 9.87497L1.5 2.875V2.87499C1.5 2.70923 1.56585 2.55027 1.68306 2.43306C1.80027 2.31585 1.95924 2.25 2.125 2.25H5.49992C5.70703 2.25 5.87492 2.08211 5.87492 1.875C5.87492 1.66789 5.70703 1.5 5.49992 1.5H2.125Z" fill="#15172B"/>
</g>
</g>
</svg>
