<svg width="32" height="32" viewBox="0 0 32 32" fill="none" xmlns="http://www.w3.org/2000/svg" role="img" aria-label="Speed" data-icon="speed" data-category="general">
  <title>Speed</title>
  <desc>general icon from Comcast Business Design System</desc>
<g id="Speed">
<path id="shape" fill-rule="evenodd" clip-rule="evenodd" d="M17 5.04107V6.5C17 7.05228 16.5523 7.5 16 7.5C15.4477 7.5 15 7.05228 15 6.5V5.04107C13.5385 5.16165 12.1512 5.54413 10.8853 6.14147L11.6158 7.40682C11.892 7.88511 11.7281 8.4967 11.2498 8.77285C10.7715 9.04899 10.1599 8.88511 9.88379 8.40682L9.15414 7.14303C7.98046 7.95971 6.95955 8.98064 6.1429 10.1543L7.40658 10.8839C7.88487 11.1601 8.04875 11.7716 7.7726 12.2499C7.49646 12.7282 6.88487 12.8921 6.40658 12.616L5.14137 11.8855C4.54408 13.1514 4.16164 14.5386 4.04107 16H5.5C6.05228 16 6.5 16.4477 6.5 17C6.5 17.5523 6.05228 18 5.5 18H4.04105C4.16155 19.4614 4.54382 20.8486 5.14113 22.1145L6.40658 21.3839C6.88487 21.1078 7.49646 21.2716 7.7726 21.7499C8.04875 22.2282 7.88487 22.8398 7.40658 23.116L6.1427 23.8457C6.76229 24.736 7.49958 25.5387 8.33226 26.2311C8.7569 26.5843 8.81485 27.2148 8.46172 27.6394C8.10858 28.064 7.47807 28.122 7.05344 27.7689C3.96739 25.2024 2 21.3305 2 17C2 9.26801 8.26801 3 16 3C23.732 3 30 9.26801 30 17C30 21.3305 28.0326 25.2024 24.9466 27.7689C24.5219 28.122 23.8914 28.064 23.5383 27.6394C23.1851 27.2148 23.2431 26.5843 23.6677 26.2311C24.5004 25.5387 25.2377 24.7361 25.8572 23.8457L24.5934 23.1161C24.1151 22.8399 23.9513 22.2284 24.2274 21.7501C24.5035 21.2718 25.1151 21.1079 25.5934 21.384L26.8588 22.1146C27.4562 20.8486 27.8384 19.4615 27.959 18H26.5C25.9477 18 25.5 17.5523 25.5 17C25.5 16.4477 25.9477 16 26.5 16H27.9589C27.8384 14.5386 27.4559 13.1515 26.8587 11.8856L25.5934 12.6161C25.1151 12.8922 24.5035 12.7284 24.2274 12.2501C23.9513 11.7718 24.1151 11.1602 24.5934 10.884L25.8572 10.1544C25.0404 8.9806 24.0194 7.95957 22.8456 7.14285L22.1158 8.40682C21.8397 8.88511 21.2281 9.04899 20.7498 8.77285C20.2715 8.4967 20.1076 7.88511 20.3838 7.40682L21.1144 6.14133C19.8486 5.54407 18.4614 5.16164 17 5.04107ZM16 21C16.5523 21 17 20.5523 17 20C17 19.4477 16.5523 19 16 19C15.4477 19 15 19.4477 15 20C15 20.5523 15.4477 21 16 21ZM16 23C17.6569 23 19 21.6569 19 20C19 19.7456 18.9683 19.4987 18.9088 19.2629L23.3048 16.3322C23.7643 16.0258 23.8885 15.4049 23.5822 14.9454C23.2758 14.4859 22.6549 14.3617 22.1954 14.6681L17.799 17.599C17.2978 17.2229 16.6749 17 16 17C14.3431 17 13 18.3431 13 20C13 21.6569 14.3431 23 16 23Z" fill="#15172B"/>
</g>
</svg>
