<svg width="32" height="32" viewBox="0 0 32 32" fill="none" xmlns="http://www.w3.org/2000/svg" role="img" aria-label="Stream" data-icon="stream" data-category="general">
  <title>Stream</title>
  <desc>general icon from Comcast Business Design System</desc>
<g id="Stream">
<path id="shape" fill-rule="evenodd" clip-rule="evenodd" d="M27 6H5C4.44772 6 4 6.44772 4 7V20C4 20.5523 4.44772 21 5 21H16H27C27.5523 21 28 20.5523 28 20V7C28 6.44772 27.5523 6 27 6ZM27 23H17V26H21C21.5523 26 22 26.4477 22 27C22 27.5523 21.5523 28 21 28H16H11C10.4477 28 10 27.5523 10 27C10 26.4477 10.4477 26 11 26H15V23H5C3.34315 23 2 21.6569 2 20V7C2 5.34315 3.34315 4 5 4H27C28.6569 4 30 5.34315 30 7V20C30 21.6569 28.6569 23 27 23ZM13.5145 8.14251C13.2056 7.95715 12.8208 7.95229 12.5073 8.1298C12.1938 8.30731 12 8.63973 12 9V18C12 18.3603 12.1938 18.6927 12.5073 18.8702C12.8208 19.0477 13.2056 19.0429 13.5145 18.8575L21.0145 14.3575C21.3157 14.1768 21.5 13.8513 21.5 13.5C21.5 13.1487 21.3157 12.8232 21.0145 12.6425L13.5145 8.14251ZM18.5563 13.5L14 16.2338V10.7662L18.5563 13.5Z" fill="#15172B"/>
</g>
</svg>
