<svg width="32" height="32" viewBox="0 0 32 32" fill="none" xmlns="http://www.w3.org/2000/svg" role="img" aria-label="Type=Type4, Color=On" data-icon="typetype4coloron" data-category="general">
  <title>Type=Type4, Color=On</title>
  <desc>general icon from Comcast Business Design System</desc>
<g id="Type=Type4, Color=On">
<path id="shape" fill-rule="evenodd" clip-rule="evenodd" d="M14.2012 3.33462C14.7503 3.02546 15.3698 2.86304 16 2.86304C16.6302 2.86304 17.2498 3.02546 17.7989 3.33462C18.348 3.64379 18.8082 4.08926 19.135 4.62807L19.1379 4.63282L30.4312 23.4862L30.4394 23.5C30.7595 24.0544 30.9289 24.683 30.9307 25.3233C30.9325 25.9635 30.7666 26.593 30.4496 27.1493C30.1325 27.7055 29.6754 28.169 29.1236 28.4937C28.5718 28.8184 27.9446 28.9929 27.3044 29L27.2934 29.0001L4.6957 29C4.0555 28.993 3.4283 28.8184 2.8765 28.4937C2.3247 28.169 1.86753 27.7055 1.55049 27.1493C1.23344 26.593 1.06756 25.9635 1.06935 25.3233C1.07114 24.683 1.24055 24.0544 1.5607 23.5L1.56883 23.4862L12.8622 4.63282L12.865 4.62807C13.1919 4.08926 13.652 3.64379 14.2012 3.33462ZM14.5763 5.6632L14.575 5.66532L3.28915 24.5062C3.14591 24.7568 3.07015 25.0402 3.06934 25.3289C3.06853 25.6199 3.14393 25.906 3.28804 26.1589C3.43215 26.4117 3.63996 26.6224 3.89077 26.77C4.14019 26.9167 4.42349 26.996 4.71279 27H27.2873C27.5766 26.996 27.8599 26.9167 28.1093 26.77C28.3601 26.6224 28.5679 26.4117 28.712 26.1589C28.8561 25.906 28.9315 25.6199 28.9307 25.3289C28.9299 25.0402 28.8541 24.7567 28.7109 24.5062L17.425 5.66532L17.4237 5.6632C17.2753 5.41924 17.0666 5.21752 16.8177 5.07739C16.5681 4.93686 16.2865 4.86304 16 4.86304C15.7136 4.86304 15.432 4.93686 15.1824 5.07739C14.9335 5.21752 14.7248 5.41924 14.5763 5.6632ZM16 10.5C16.8284 10.5 17.5 11.1716 17.5 12V17.3333C17.5 18.1618 16.8284 18.8333 16 18.8333C15.1716 18.8333 14.5 18.1618 14.5 17.3333V12C14.5 11.1716 15.1716 10.5 16 10.5ZM16 24.5C16.8284 24.5 17.5 23.8284 17.5 23C17.5 22.1716 16.8284 21.5 16 21.5C15.1716 21.5 14.5 22.1716 14.5 23C14.5 23.8284 15.1716 24.5 16 24.5Z" fill="#FFA701"/>
</g>
</svg>
