<svg width="32" height="32" viewBox="0 0 32 32" fill="none" xmlns="http://www.w3.org/2000/svg" role="img" aria-label="Type=outline, Color=On" data-icon="typeoutlinecoloron" data-category="general">
  <title>Type=outline, Color=On</title>
  <desc>general icon from Comcast Business Design System</desc>
<g id="Type=outline, Color=On">
<g id="shape">
<path fill-rule="evenodd" clip-rule="evenodd" d="M16 4C9.37258 4 4 9.37258 4 16C4 22.6274 9.37258 28 16 28C22.6274 28 28 22.6274 28 16C28 9.37258 22.6274 4 16 4ZM2 16C2 8.26801 8.26801 2 16 2C23.732 2 30 8.26801 30 16C30 23.732 23.732 30 16 30C8.26801 30 2 23.732 2 16Z" fill="#AD1217"/>
<path d="M16 8.5C16.8284 8.5 17.5 9.17157 17.5 10V16.5C17.5 17.3284 16.8284 18 16 18C15.1716 18 14.5 17.3284 14.5 16.5V10C14.5 9.17157 15.1716 8.5 16 8.5Z" fill="#AD1217"/>
<path d="M16 23.5C16.8284 23.5 17.5 22.8284 17.5 22C17.5 21.1716 16.8284 20.5 16 20.5C15.1716 20.5 14.5 21.1716 14.5 22C14.5 22.8284 15.1716 23.5 16 23.5Z" fill="#AD1217"/>
</g>
</g>
</svg>
