<svg width="32" height="32" viewBox="0 0 32 32" fill="none" xmlns="http://www.w3.org/2000/svg" role="img" aria-label="Variant=LinkedIn" data-icon="variantlinkedin" data-category="general">
  <title>Variant=LinkedIn</title>
  <desc>general icon from Comcast Business Design System</desc>
<g id="Variant=LinkedIn">
<path id="shape" fill-rule="evenodd" clip-rule="evenodd" d="M25 4C26.6558 4 28 5.34423 28 7V25C28 26.6558 26.6558 28 25 28H7C5.34423 28 4 26.6558 4 25V7C4 5.34423 5.34423 4 7 4H25ZM6.8623 12.3747H10.8823V24.4667H6.8623V12.3747ZM8.899 6.54419C7.52364 6.54419 6.625 7.4484 6.625 8.63354C6.625 9.79379 7.49631 10.723 8.8458 10.723H8.87177C10.2735 10.723 11.146 9.79379 11.146 8.63354C11.1199 7.4484 10.2736 6.54419 8.899 6.54419ZM17.1245 14.0867C17.6594 13.263 18.6145 12.0904 20.7468 12.0904C23.3913 12.0904 25.3743 13.8182 25.3743 17.5324V24.4666H21.3552V17.9969C21.3552 16.3721 20.7729 15.2629 19.3192 15.2629C18.2088 15.2629 17.5471 16.0106 17.257 16.7325C17.1505 16.9908 17.1245 17.3522 17.1245 17.7136V24.4666H13.1056C13.1056 24.4666 13.1589 13.5089 13.1056 12.3747H17.1245V14.0867Z" fill="#15172B"/>
</g>
</svg>
