<svg width="32" height="32" viewBox="0 0 32 32" fill="none" xmlns="http://www.w3.org/2000/svg" role="img" aria-label="Variant=Thumb Down, Type=Filled" data-icon="variantthumbdowntypefilled" data-category="navigation">
  <title>Variant=Thumb Down, Type=Filled</title>
  <desc>navigation icon from Comcast Business Design System</desc>
<g id="Variant=Thumb Down, Type=Filled">
<g id="shape">
<path fill-rule="evenodd" clip-rule="evenodd" d="M23 4C23 3.44772 22.5523 3 22 3H7.66769C5.63935 3 3.93208 4.51818 3.69509 6.53263L2.40097 17.5326C2.12121 19.9106 3.9792 22 6.37357 22H12.9999V27C12.9999 29.2091 14.7908 31 16.9999 31H17.9999C18.3787 31 18.725 30.786 18.8944 30.4472L22.8944 22.4471C22.9639 22.3082 23 22.1551 23 21.9999V4ZM25 18C25 18.5523 25.4477 19 26 19H26.9999C29.2091 19 30.9999 17.2091 30.9999 15V7C30.9999 4.79086 29.2091 3 26.9999 3H26C25.4477 3 25 3.44772 25 4V18Z" fill="#15172B"/>
</g>
</g>
</svg>
