<svg width="32" height="32" viewBox="0 0 32 32" fill="none" xmlns="http://www.w3.org/2000/svg" role="img" aria-label="Building WIP" data-icon="buildingwip" data-category="general">
  <title>Building WIP</title>
  <desc>general icon from Comcast Business Design System</desc>
<g id="Building WIP">
<path id="Vector" d="M25.5857 0.5H6.41429C5.62857 0.5 5 1.13265 5 1.92347V30.0765C5 30.8673 5.62857 31.5 6.41429 31.5H13.0143V23.9609C13.0143 23.381 13.4857 22.9065 14.0619 22.9065H17.9381C18.5143 22.9065 18.9857 23.381 18.9857 23.9609V31.5H25.5857C26.3714 31.5 27 30.8673 27 30.0765V1.92347C27 1.13265 26.3714 0.5 25.5857 0.5ZM14.2714 17.4235C14.2714 18.0034 13.8 18.4779 13.2238 18.4779H10.2381C9.6619 18.4779 9.19048 18.0034 9.19048 17.4235V14.4184C9.19048 13.8384 9.6619 13.3639 10.2381 13.3639H13.2238C13.8 13.3639 14.2714 13.8384 14.2714 14.4184V17.4235ZM14.2714 9.35714C14.2714 9.93707 13.8 10.4116 13.2238 10.4116H10.2381C9.6619 10.4116 9.19048 9.93707 9.19048 9.35714V6.35204C9.19048 5.77211 9.6619 5.29762 10.2381 5.29762H13.2238C13.8 5.29762 14.2714 5.77211 14.2714 6.35204V9.35714ZM22.7571 17.4235C22.7571 18.0034 22.2857 18.4779 21.7095 18.4779H18.7238C18.1476 18.4779 17.6762 18.0034 17.6762 17.4235V14.4184C17.6762 13.8384 18.1476 13.3639 18.7238 13.3639H21.7095C22.2857 13.3639 22.7571 13.8384 22.7571 14.4184V17.4235ZM22.7571 9.35714C22.7571 9.93707 22.2857 10.4116 21.7095 10.4116H18.7238C18.1476 10.4116 17.6762 9.93707 17.6762 9.35714V6.35204C17.6762 5.77211 18.1476 5.29762 18.7238 5.29762H21.7095C22.2857 5.29762 22.7571 5.77211 22.7571 6.35204V9.35714Z" fill="#15172B"/>
</g>
</svg>
