<svg width="32" height="32" viewBox="0 0 32 32" fill="none" xmlns="http://www.w3.org/2000/svg" role="img" aria-label="Complete" data-icon="complete" data-category="general">
  <title>Complete</title>
  <desc>general icon from Comcast Business Design System</desc>
<g id="Complete">
<path id="shape" fill-rule="evenodd" clip-rule="evenodd" d="M16 4C9.37258 4 4 9.37258 4 16C4 22.6274 9.37258 28 16 28C22.6274 28 28 22.6274 28 16C28 15.2094 27.9237 14.4376 27.7783 13.6912C27.6727 13.1491 28.0265 12.624 28.5686 12.5184C29.1107 12.4129 29.6358 12.7667 29.7414 13.3088C29.9112 14.1805 30 15.0804 30 16C30 23.732 23.732 30 16 30C8.26801 30 2 23.732 2 16C2 8.26801 8.26801 2 16 2C17.5012 2 18.9492 2.23665 20.3074 2.67542C20.8329 2.84519 21.1214 3.40886 20.9516 3.9344C20.7818 4.45994 20.2181 4.74835 19.6926 4.57858C18.5306 4.20319 17.29 4 16 4ZM30.2071 4.79289C30.5976 5.18342 30.5976 5.81658 30.2071 6.20711L16.7071 19.7071C16.3166 20.0976 15.6834 20.0976 15.2929 19.7071L10.2929 14.7071C9.90237 14.3166 9.90237 13.6834 10.2929 13.2929C10.6834 12.9024 11.3166 12.9024 11.7071 13.2929L16 17.5858L28.7929 4.79289C29.1834 4.40237 29.8166 4.40237 30.2071 4.79289Z" fill="#15172B"/>
</g>
</svg>
