<svg width="32" height="32" viewBox="0 0 32 32" fill="none" xmlns="http://www.w3.org/2000/svg" role="img" aria-label="Grabber" data-icon="grabber" data-category="general">
  <title>Grabber</title>
  <desc>general icon from Comcast Business Design System</desc>
<g id="Grabber">
<g id="shape">
<path d="M23.5 6.5C23.5 7.88071 22.3807 9 21 9C19.6193 9 18.5 7.88071 18.5 6.5C18.5 5.11929 19.6193 4 21 4C22.3807 4 23.5 5.11929 23.5 6.5Z" fill="#15172B"/>
<path d="M23.5 16C23.5 17.3807 22.3807 18.5 21 18.5C19.6193 18.5 18.5 17.3807 18.5 16C18.5 14.6193 19.6193 13.5 21 13.5C22.3807 13.5 23.5 14.6193 23.5 16Z" fill="#15172B"/>
<path d="M21 28C22.3807 28 23.5 26.8807 23.5 25.5C23.5 24.1193 22.3807 23 21 23C19.6193 23 18.5 24.1193 18.5 25.5C18.5 26.8807 19.6193 28 21 28Z" fill="#15172B"/>
<path d="M14 6.5C14 7.88071 12.8807 9 11.5 9C10.1193 9 9 7.88071 9 6.5C9 5.11929 10.1193 4 11.5 4C12.8807 4 14 5.11929 14 6.5Z" fill="#15172B"/>
<path d="M14 16C14 17.3807 12.8807 18.5 11.5 18.5C10.1193 18.5 9 17.3807 9 16C9 14.6193 10.1193 13.5 11.5 13.5C12.8807 13.5 14 14.6193 14 16Z" fill="#15172B"/>
<path d="M11.5 28C12.8807 28 14 26.8807 14 25.5C14 24.1193 12.8807 23 11.5 23C10.1193 23 9 24.1193 9 25.5C9 26.8807 10.1193 28 11.5 28Z" fill="#15172B"/>
</g>
</g>
</svg>
