<svg width="32" height="32" viewBox="0 0 32 32" fill="none" xmlns="http://www.w3.org/2000/svg" role="img" aria-label="Hotspot" data-icon="hotspot" data-category="general">
  <title>Hotspot</title>
  <desc>general icon from Comcast Business Design System</desc>
<g id="Hotspot">
<path id="shape" fill-rule="evenodd" clip-rule="evenodd" d="M6.36268 2.05321C6.79202 2.40062 6.85844 3.03029 6.51104 3.45962C4.93422 5.40835 4 7.85008 4 10.4999C4 13.1497 4.93422 15.5915 6.51104 17.5402C6.85844 17.9695 6.79202 18.5992 6.36268 18.9466C5.93334 19.294 5.30367 19.2276 4.95627 18.7982C3.10651 16.5122 2 13.6312 2 10.4999C2 7.36865 3.10651 4.48761 4.95627 2.20157C5.30367 1.77224 5.93334 1.70581 6.36268 2.05321ZM25.6373 2.05321C26.0667 1.70581 26.6963 1.77224 27.0437 2.20157C28.8935 4.48761 30 7.36865 30 10.4999C30 13.6312 28.8935 16.5122 27.0437 18.7982C26.6963 19.2276 26.0667 19.294 25.6373 18.9466C25.208 18.5992 25.1416 17.9695 25.489 17.5402C27.0658 15.5915 28 13.1497 28 10.4999C28 7.85008 27.0658 5.40835 25.489 3.45962C25.1416 3.03029 25.208 2.40062 25.6373 2.05321ZM11.9458 5.70931C12.3375 5.32 12.3395 4.68684 11.9502 4.2951C11.5609 3.90336 10.9277 3.90139 10.536 4.29069C8.96889 5.84804 8 8.06049 8 10.5C8 12.9395 8.96889 15.152 10.536 16.7093C10.9277 17.0986 11.5609 17.0966 11.9502 16.7049C12.3395 16.3132 12.3375 15.68 11.9458 15.2907C10.7562 14.1086 10 12.4066 10 10.5C10 8.5934 10.7562 6.89145 11.9458 5.70931ZM21.464 4.29069C21.0723 3.90139 20.4391 3.90336 20.0498 4.2951C19.6605 4.68684 19.6625 5.32 20.0542 5.70931C21.2438 6.89145 22 8.5934 22 10.5C22 12.4066 21.2438 14.1086 20.0542 15.2907C19.6625 15.68 19.6605 16.3132 20.0498 16.7049C20.4391 17.0966 21.0723 17.0986 21.464 16.7093C23.0311 15.152 24 12.9395 24 10.5C24 8.06049 23.0311 5.84804 21.464 4.29069ZM17 12.7324C17.5978 12.3866 18 11.7403 18 11C18 9.89543 17.1046 9 16 9C14.8954 9 14 9.89543 14 11C14 11.7403 14.4022 12.3866 15 12.7324V29C15 29.5523 15.4477 30 16 30C16.5523 30 17 29.5523 17 29V12.7324Z" fill="#15172B"/>
</g>
</svg>
