<svg width="16" height="16" viewBox="0 0 16 16" fill="none" xmlns="http://www.w3.org/2000/svg" role="img" aria-label="Icon Wrapper" data-icon="iconwrapper" data-category="general">
  <title>Icon Wrapper</title>
  <desc>general icon from Comcast Business Design System</desc>
<g id="Icon Wrapper">
<g id="Icon">
<path id="shape" fill-rule="evenodd" clip-rule="evenodd" d="M2.5 7.33333C2.5 4.66396 4.66396 2.5 7.33333 2.5C10.0027 2.5 12.1667 4.66396 12.1667 7.33333C12.1667 8.64049 11.6478 9.82645 10.8047 10.6965C10.7844 10.7114 10.7649 10.728 10.7465 10.7464C10.7282 10.7648 10.7115 10.7843 10.6966 10.8046C9.82656 11.6477 8.64055 12.1667 7.33333 12.1667C4.66396 12.1667 2.5 10.0027 2.5 7.33333ZM11.0895 11.7965C10.0747 12.6515 8.76418 13.1667 7.33333 13.1667C4.11167 13.1667 1.5 10.555 1.5 7.33333C1.5 4.11167 4.11167 1.5 7.33333 1.5C10.555 1.5 13.1667 4.11167 13.1667 7.33333C13.1667 8.76412 12.6515 10.0746 11.7966 11.0894L14.3537 13.6464C14.5489 13.8417 14.5489 14.1583 14.3537 14.3535C14.1584 14.5488 13.8418 14.5488 13.6465 14.3535L11.0895 11.7965Z" fill="#15172B"/>
</g>
</g>
</svg>
