<svg width="32" height="32" viewBox="0 0 32 32" fill="none" xmlns="http://www.w3.org/2000/svg" role="img" aria-label="Kit" data-icon="kit" data-category="general">
  <title>Kit</title>
  <desc>general icon from Comcast Business Design System</desc>
<g id="Kit">
<path id="shape" fill-rule="evenodd" clip-rule="evenodd" d="M12 7C12 6.44772 12.4477 6 13 6H19C19.5523 6 20 6.44772 20 7V8H12V7ZM22 7V8H27C28.6569 8 30 9.34315 30 11V25C30 26.6569 28.6569 28 27 28H5C3.34315 28 2 26.6569 2 25V11C2 9.34315 3.34315 8 5 8H10V7C10 5.34315 11.3431 4 13 4H19C20.6569 4 22 5.34315 22 7ZM4 11C4 10.4477 4.44772 10 5 10H27C27.5523 10 28 10.4477 28 11V15H17.5V14C17.5 13.4477 17.0523 13 16.5 13H15.5C14.9477 13 14.5 13.4477 14.5 14V15H4V11ZM14.5 17H4V25C4 25.5523 4.44772 26 5 26H27C27.5523 26 28 25.5523 28 25V17H17.5V18C17.5 18.5523 17.0523 19 16.5 19H15.5C14.9477 19 14.5 18.5523 14.5 18V17Z" fill="#15172B"/>
</g>
</svg>
