<svg width="32" height="32" viewBox="0 0 32 32" fill="none" xmlns="http://www.w3.org/2000/svg" role="img" aria-label="Layout" data-icon="layout" data-category="general">
  <title>Layout</title>
  <desc>general icon from Comcast Business Design System</desc>
<g id="Layout">
<path id="shape" fill-rule="evenodd" clip-rule="evenodd" d="M4 7C4 5.34315 5.34315 4 7 4H25C26.6569 4 28 5.34315 28 7V25C28 26.6569 26.6569 28 25 28H7C5.34315 28 4 26.6569 4 25V7ZM7 6C6.44772 6 6 6.44772 6 7V11H26V7C26 6.44771 25.5523 6 25 6H7ZM26 13H13V26H25C25.5523 26 26 25.5523 26 25V13ZM11 26V13H6V25C6 25.5523 6.44772 26 7 26H11Z" fill="#15172B"/>
</g>
</svg>
