<svg width="32" height="32" viewBox="0 0 32 32" fill="none" xmlns="http://www.w3.org/2000/svg" role="img" aria-label="Link" data-icon="link" data-category="general">
  <title>Link</title>
  <desc>general icon from Comcast Business Design System</desc>
<g id="Link">
<path id="shape" fill-rule="evenodd" clip-rule="evenodd" d="M28.4352 3.56494C25.311 0.440741 20.2457 0.440741 17.1215 3.56494L13.5253 7.16113C13.1347 7.55165 13.1347 8.18482 13.5253 8.57534C13.9158 8.96587 14.549 8.96587 14.9395 8.57534L18.5357 4.97915C20.8788 2.636 24.6778 2.636 27.021 4.97915C29.3641 7.32229 29.3641 11.1213 27.021 13.4644L23.7909 16.6945C21.3684 19.117 17.4872 19.2579 14.8956 17.0192C14.5028 16.6706 13.9015 16.6844 13.5253 17.0606C13.1348 17.4511 13.1348 18.0843 13.5253 18.4748C13.5442 18.4937 13.5635 18.5116 13.5835 18.5286C16.9681 21.4565 22.04 21.2738 25.2051 18.1087L28.4352 14.8786C31.5594 11.7544 31.5594 6.68913 28.4352 3.56494ZM8.20955 15.3053C10.631 12.8839 14.51 12.7421 17.1015 14.9779C17.4942 15.3294 18.0977 15.3165 18.4749 14.9393C18.8655 14.5488 18.8655 13.9156 18.4749 13.5251C18.458 13.5081 18.4405 13.4919 18.4227 13.4764L18.4227 13.4763C15.0382 10.5431 9.96226 10.7242 6.79534 13.8911L3.56513 17.1213C0.440941 20.2455 0.440941 25.3108 3.56513 28.435C6.68933 31.5592 11.7546 31.5592 14.8788 28.435L18.4751 24.8388C18.8656 24.4483 18.8656 23.8151 18.4751 23.4246C18.0845 23.0341 17.4514 23.0341 17.0608 23.4246L13.4646 27.0208C11.1215 29.3639 7.32249 29.3639 4.97935 27.0208C2.6362 24.6776 2.6362 20.8787 4.97935 18.5355L8.20955 15.3053Z" fill="#15172B"/>
</g>
</svg>
