<svg width="32" height="32" viewBox="0 0 32 32" fill="none" xmlns="http://www.w3.org/2000/svg" role="img" aria-label="Mobility" data-icon="mobility" data-category="general">
  <title>Mobility</title>
  <desc>general icon from Comcast Business Design System</desc>
<g id="Mobility">
<path id="shape" fill-rule="evenodd" clip-rule="evenodd" d="M17 1.5C16.4477 1.5 16 1.94772 16 2.5C16 3.05228 16.4477 3.5 17 3.5C20.9529 3.5 24 6.21708 24 10C24 10.5523 24.4477 11 25 11C25.5523 11 26 10.5523 26 10C26 4.94636 21.8837 1.5 17 1.5ZM16 6C16 5.44772 16.4477 5 17 5C19.7614 5 22 7.23858 22 10C22 10.5523 21.5523 11 21 11C20.4477 11 20 10.5523 20 10C20 8.34315 18.6569 7 17 7C16.4477 7 16 6.55228 16 6ZM6 10.5C6 9.11929 7.11929 8 8.5 8H16.5C17.8807 8 19 9.11929 19 10.5V13V25V27.5C19 28.8807 17.8807 30 16.5 30H8.5C7.11929 30 6 28.8807 6 27.5V25V13V10.5ZM8 14V24H17V14H8ZM17 12H8V10.5C8 10.2239 8.22386 10 8.5 10H16.5C16.7761 10 17 10.2239 17 10.5V12ZM17 26H8V27.5C8 27.7761 8.22386 28 8.5 28H16.5C16.7761 28 17 27.7761 17 27.5V26Z" fill="#15172B"/>
</g>
</svg>
