<svg width="32" height="32" viewBox="0 0 32 32" fill="none" xmlns="http://www.w3.org/2000/svg" role="img" aria-label="Password" data-icon="password" data-category="security">
  <title>Password</title>
  <desc>security icon from Comcast Business Design System</desc>
<g id="Password">
<path id="shape" fill-rule="evenodd" clip-rule="evenodd" d="M30 2V30H28V2H30ZM21.6433 16.6698L25.086 15.5403C25.6108 15.3682 25.8966 14.8032 25.7245 14.2784C25.5523 13.7537 24.9873 13.4678 24.4626 13.64L21.0199 14.7695L21.0095 11.1458C21.008 10.5935 20.559 10.1471 20.0067 10.1487C19.4544 10.1503 19.008 10.5993 19.0095 11.1515L19.0199 14.7752L15.5702 13.6652C15.0445 13.4961 14.4812 13.7851 14.312 14.3109C14.1428 14.8366 14.4319 15.3999 14.9576 15.5691L18.4071 16.679L16.2855 19.6167C15.9622 20.0644 16.063 20.6895 16.5107 21.0129C16.9585 21.3362 17.5836 21.2354 17.9069 20.7876L20.0285 17.8499L22.1669 20.7756C22.4928 21.2214 23.1185 21.3187 23.5643 20.9928C24.0102 20.6669 24.1075 20.0413 23.7816 19.5954L21.6433 16.6698ZM12.086 15.5403L8.64328 16.6698L10.7816 19.5954C11.1075 20.0413 11.0102 20.6669 10.5643 20.9928C10.1185 21.3187 9.49282 21.2214 9.16692 20.7756L7.02851 17.8499L4.90691 20.7876C4.58356 21.2354 3.95848 21.3362 3.51074 21.0129C3.06301 20.6895 2.96217 20.0644 3.28552 19.6167L5.40709 16.679L1.95764 15.5691C1.4319 15.3999 1.14284 14.8366 1.31201 14.3109C1.48117 13.7851 2.0445 13.4961 2.57024 13.6652L6.01989 14.7752L6.00954 11.1515C6.00796 10.5993 6.4544 10.1503 7.00668 10.1487C7.55896 10.1471 8.00795 10.5935 8.00953 11.1458L8.01988 14.7695L11.4626 13.64C11.9873 13.4678 12.5523 13.7537 12.7245 14.2784C12.8966 14.8032 12.6108 15.3682 12.086 15.5403Z" fill="#15172B"/>
</g>
</svg>
