<svg width="32" height="32" viewBox="0 0 32 32" fill="none" xmlns="http://www.w3.org/2000/svg" role="img" aria-label="Performance Threshold" data-icon="performancethreshold" data-category="general">
  <title>Performance Threshold</title>
  <desc>general icon from Comcast Business Design System</desc>
<g id="Performance Threshold">
<g id="shape">
<path d="M15 6.24537V28C15 28.5523 15.4477 29 16 29C16.5523 29 17 28.5523 17 28V6.24535L25.331 13.7433C25.7416 14.1128 26.3738 14.0795 26.7433 13.669C27.1128 13.2585 27.0795 12.6262 26.669 12.2567L16.6706 3.2582C16.4932 3.09773 16.258 3 16 3C15.7409 3 15.5049 3.09852 15.3272 3.26014L5.33104 12.2567C4.92053 12.6262 4.88726 13.2585 5.25671 13.669C5.62617 14.0795 6.25846 14.1128 6.66897 13.7433L15 6.24537Z" fill="#15172B"/>
<path d="M4 20C3.44772 20 3 20.4477 3 21C3 21.5523 3.44772 22 4 22H6C6.55228 22 7 21.5523 7 21C7 20.4477 6.55228 20 6 20H4Z" fill="#15172B"/>
<path d="M10 20C9.44772 20 9 20.4477 9 21C9 21.5523 9.44772 22 10 22H12C12.5523 22 13 21.5523 13 21C13 20.4477 12.5523 20 12 20H10Z" fill="#15172B"/>
<path d="M20 20C19.4477 20 19 20.4477 19 21C19 21.5523 19.4477 22 20 22H22C22.5523 22 23 21.5523 23 21C23 20.4477 22.5523 20 22 20H20Z" fill="#15172B"/>
<path d="M26 20C25.4477 20 25 20.4477 25 21C25 21.5523 25.4477 22 26 22H28C28.5523 22 29 21.5523 29 21C29 20.4477 28.5523 20 28 20H26Z" fill="#15172B"/>
</g>
</g>
</svg>
