<svg width="32" height="32" viewBox="0 0 32 32" fill="none" xmlns="http://www.w3.org/2000/svg" role="img" aria-label="Pie Chart" data-icon="piechart" data-category="data">
  <title>Pie Chart</title>
  <desc>data icon from Comcast Business Design System</desc>
<g id="Pie Chart">
<path id="shape" fill-rule="evenodd" clip-rule="evenodd" d="M15 3C15 2.44772 15.4477 2 16 2C23.732 2 30 8.26801 30 16C30 16.5523 29.5523 17 29 17H16C15.4477 17 15 16.5523 15 16V3ZM17 4.04107V15H27.9589C27.478 9.1702 22.8298 4.52202 17 4.04107ZM12.9516 3.3196C13.1214 3.84514 12.8329 4.4088 12.3074 4.57858C7.4856 6.13624 4 10.6624 4 16C4 22.6274 9.37258 28 16 28C21.3376 28 25.8638 24.5144 27.4214 19.6926C27.5912 19.1671 28.1549 18.8786 28.6804 19.0484C29.2059 19.2182 29.4944 19.7819 29.3246 20.3074C27.508 25.9307 22.2305 30 16 30C8.26801 30 2 23.732 2 16C2 9.76946 6.06935 4.49199 11.6926 2.67542C12.2181 2.50565 12.7818 2.79405 12.9516 3.3196Z" fill="#15172B"/>
</g>
</svg>
