<svg width="32" height="32" viewBox="0 0 32 32" fill="none" xmlns="http://www.w3.org/2000/svg" role="img" aria-label="Powerful Network" data-icon="powerfulnetwork" data-category="general">
  <title>Powerful Network</title>
  <desc>general icon from Comcast Business Design System</desc>
<g id="Powerful Network">
<g id="shape">
<path fill-rule="evenodd" clip-rule="evenodd" d="M15 16.9091H11L18 6.99999L17 15.0909H21L14 25L15 16.9091ZM19.2624 13.0909L19.9849 7.24531C20.0974 6.33528 19.5766 5.46533 18.7213 5.13461C17.8661 4.80388 16.8955 5.0971 16.3665 5.84603L9.36648 15.7551C8.93531 16.3655 8.88038 17.1653 9.22406 17.8289C9.56775 18.4925 10.2527 18.9091 11 18.9091H12.7376L12.0151 24.7547C11.9026 25.6647 12.4234 26.5346 13.2786 26.8654C14.1339 27.1961 15.1044 26.9029 15.6335 26.1539L22.6335 16.2449C23.0647 15.6345 23.1196 14.8347 22.7759 14.1711C22.4323 13.5075 21.7473 13.0909 21 13.0909H19.2624Z" fill="#15172B"/>
<path fill-rule="evenodd" clip-rule="evenodd" d="M8.6601 7.24881C9.07496 7.61337 9.11574 8.24522 8.75118 8.66008C7.0412 10.606 6 13.1766 6 16C6 18.8233 7.0412 21.394 8.75118 23.3399C9.11574 23.7548 9.07496 24.3866 8.6601 24.7512C8.24523 25.1157 7.61338 25.0749 7.24882 24.6601C5.2276 22.36 4 19.3235 4 16C4 12.6765 5.2276 9.64001 7.24882 7.33989C7.61338 6.92502 8.24523 6.88425 8.6601 7.24881Z" fill="#15172B"/>
<path fill-rule="evenodd" clip-rule="evenodd" d="M5.48638 5.25485C5.89791 5.62318 5.93293 6.25537 5.5646 6.6669C3.34716 9.14443 2 12.4137 2 16C2 19.5863 3.34716 22.8555 5.5646 25.3331C5.93293 25.7446 5.89791 26.3768 5.48638 26.7451C5.07485 27.1134 4.44266 27.0784 4.07433 26.6669C1.54138 23.8369 0 20.0972 0 16C0 11.9027 1.54138 8.16311 4.07433 5.33307C4.44266 4.92155 5.07485 4.88653 5.48638 5.25485Z" fill="#15172B"/>
<path fill-rule="evenodd" clip-rule="evenodd" d="M26.5136 5.25485C26.1021 5.62318 26.0671 6.25537 26.4354 6.6669C28.6528 9.14443 30 12.4137 30 16C30 19.5863 28.6528 22.8555 26.4354 25.3331C26.0671 25.7446 26.1021 26.3768 26.5136 26.7451C26.9251 27.1134 27.5573 27.0784 27.9257 26.6669C30.4586 23.8369 32 20.0972 32 16C32 11.9027 30.4586 8.16311 27.9257 5.33307C27.5573 4.92155 26.9251 4.88653 26.5136 5.25485Z" fill="#15172B"/>
<path fill-rule="evenodd" clip-rule="evenodd" d="M23.3399 7.24881C22.925 7.61337 22.8843 8.24522 23.2488 8.66008C24.9588 10.606 26 13.1766 26 16C26 18.8233 24.9588 21.394 23.2488 23.3399C22.8843 23.7548 22.925 24.3866 23.3399 24.7512C23.7548 25.1157 24.3866 25.0749 24.7512 24.6601C26.7724 22.36 28 19.3235 28 16C28 12.6765 26.7724 9.64001 24.7512 7.33989C24.3866 6.92502 23.7548 6.88425 23.3399 7.24881Z" fill="#15172B"/>
</g>
</g>
</svg>
