<svg width="32" height="32" viewBox="0 0 32 32" fill="none" xmlns="http://www.w3.org/2000/svg" role="img" aria-label="Price Tag" data-icon="pricetag" data-category="commerce">
  <title>Price Tag</title>
  <desc>commerce icon from Comcast Business Design System</desc>
<g id="Price Tag">
<path id="shape" fill-rule="evenodd" clip-rule="evenodd" d="M4 3C3.44772 3 3 3.44772 3 4V17C3 17.2652 3.10536 17.5196 3.29289 17.7071L16.2929 30.7071C16.6834 31.0976 17.3166 31.0976 17.7071 30.7071L30.7071 17.7071C31.0976 17.3166 31.0976 16.6834 30.7071 16.2929L17.7071 3.29289C17.5196 3.10536 17.2652 3 17 3H4ZM5 16.5858V5H16.5858L28.5858 17L17 28.5858L5 16.5858ZM10 11C10.5523 11 11 10.5523 11 10C11 9.44771 10.5523 9 10 9C9.44771 9 9 9.44771 9 10C9 10.5523 9.44771 11 10 11Z" fill="#15172B"/>
</g>
</svg>
