<svg width="33" height="33" viewBox="0 0 33 33" fill="none" xmlns="http://www.w3.org/2000/svg" role="img" aria-label="Property 1=Outline" data-icon="property1outline" data-category="general">
  <title>Property 1=Outline</title>
  <desc>general icon from Comcast Business Design System</desc>
<g id="Property 1=Outline">
<g id="Vector">
<path d="M2.19588 31.8866V8.15464H8.29897C8.90722 8.15464 9.40206 7.65979 9.40206 7.05155C9.40206 6.4433 8.90722 5.94845 8.29897 5.94845H1.10309C0.814433 5.94845 0.536082 6.06186 0.329897 6.26804C0.113402 6.48454 0 6.7732 0 7.06186V31.8969C0 32.5052 0.494845 33 1.10309 33C1.71134 33 2.20619 32.5052 2.20619 31.8969L2.19588 31.8866Z" fill="#15172B"/>
<path d="M24.7526 8.10309H30.7938V31.866C30.7938 32.4536 31.2887 32.9381 31.8969 32.9381C32.5052 32.9381 33 32.4536 33 31.866V7.03093C33 6.75258 32.8866 6.47423 32.6804 6.26804C32.4742 6.07217 32.1959 5.95876 31.9072 5.95876H24.7732C24.165 5.95876 23.6701 6.4433 23.6701 7.03093C23.6701 7.61856 24.165 8.10309 24.7732 8.10309H24.7526Z" fill="#15172B"/>
<path d="M9.39175 31.8557V2.14433H23.6495V31.866C23.6495 32.4536 24.1443 32.9381 24.7526 32.9381C25.3608 32.9381 25.8557 32.4536 25.8557 31.866V1.07216C25.8557 0.793814 25.7423 0.515464 25.5361 0.309278C25.3299 0.113402 25.0515 0 24.7629 0H8.30928C8.02062 0 7.74227 0.113402 7.53608 0.309278C7.3299 0.505155 7.2165 0.783505 7.2165 1.07216V31.8557C7.2165 32.4433 7.71134 32.9278 8.31959 32.9278C8.92784 32.9278 9.42268 32.4433 9.42268 31.8557H9.39175Z" fill="#15172B"/>
<path d="M11.5155 7.10309H21.6598C22.1134 7.10309 22.4845 6.74227 22.4845 6.29897C22.4845 5.85567 22.1134 5.49485 21.6598 5.49485H11.5155C11.0619 5.49485 10.6907 5.85567 10.6907 6.29897C10.6907 6.74227 11.0619 7.10309 11.5155 7.10309Z" fill="#15172B"/>
<path d="M11.5155 15.3196H21.6598C22.1134 15.3196 22.4845 14.9588 22.4845 14.5155C22.4845 14.0722 22.1134 13.7113 21.6598 13.7113H11.5155C11.0619 13.7113 10.6907 14.0722 10.6907 14.5155C10.6907 14.9588 11.0619 15.3196 11.5155 15.3196Z" fill="#15172B"/>
<path d="M11.5155 23.5258H21.6598C22.1134 23.5258 22.4845 23.165 22.4845 22.7217C22.4845 22.2784 22.1134 21.9175 21.6598 21.9175H11.5155C11.0619 21.9175 10.6907 22.2784 10.6907 22.7217C10.6907 23.165 11.0619 23.5258 11.5155 23.5258Z" fill="#15172B"/>
<path d="M13.4536 32.134V29.1959H19.7216V32.134C19.7216 32.5773 20.0928 32.9381 20.5464 32.9381C21 32.9381 21.3711 32.5773 21.3711 32.134V28.3918C21.3711 28.1753 21.2784 27.9691 21.134 27.8247C20.9897 27.6804 20.7732 27.5876 20.5567 27.5876H12.6392C12.4227 27.5876 12.2062 27.6701 12.0619 27.8247C11.9072 27.9794 11.8247 28.1856 11.8247 28.3918V32.134C11.8247 32.5773 12.1959 32.9381 12.6495 32.9381C13.1031 32.9381 13.4742 32.5773 13.4742 32.134H13.4536Z" fill="#15172B"/>
<path d="M29.4948 15.8866C29.9218 15.8866 30.268 16.2328 30.268 16.6598C30.268 17.0868 29.9218 17.433 29.4948 17.433H27.2165C26.7895 17.433 26.4433 17.0868 26.4433 16.6598C26.4433 16.2328 26.7895 15.8866 27.2165 15.8866H29.4948Z" fill="#15172B"/>
<path d="M29.4948 24.1031C29.9218 24.1031 30.268 24.4493 30.268 24.8763C30.268 25.3033 29.9218 25.6495 29.4948 25.6495H27.2165C26.7895 25.6495 26.4433 25.3033 26.4433 24.8763C26.4433 24.4493 26.7895 24.1031 27.2165 24.1031H29.4948Z" fill="#15172B"/>
<path d="M5.83501 15.8866C6.26204 15.8866 6.60821 16.2328 6.60821 16.6598C6.60821 17.0868 6.26204 17.433 5.83501 17.433H3.5567C3.12968 17.433 2.78351 17.0868 2.78351 16.6598C2.78351 16.2328 3.12968 15.8866 3.5567 15.8866H5.83501Z" fill="#15172B"/>
<path d="M5.83501 24.1031C6.26204 24.1031 6.60821 24.4493 6.60821 24.8763C6.60821 25.3033 6.26204 25.6495 5.83501 25.6495H3.5567C3.12968 25.6495 2.78351 25.3033 2.78351 24.8763C2.78351 24.4493 3.12968 24.1031 3.5567 24.1031H5.83501Z" fill="#15172B"/>
</g>
</g>
</svg>
