<svg width="16" height="16" viewBox="0 0 16 16" fill="none" xmlns="http://www.w3.org/2000/svg" role="img" aria-label="Property 1=Arrow Down and Left" data-icon="property1arrowdownandleft" data-category="navigation">
  <title>Property 1=Arrow Down and Left</title>
  <desc>navigation icon from Comcast Business Design System</desc>
<g id="Property 1=Arrow Down and Left">
<path id="Union" fill-rule="evenodd" clip-rule="evenodd" d="M13.5 2.78809C13.5 2.37387 13.8358 2.03809 14.25 2.03809C14.6642 2.03809 15 2.37387 15 2.78809V9.99914C15 10.4134 14.6642 10.7491 14.25 10.7491H12.7846C12.7731 10.7497 12.7616 10.7499 12.75 10.7499H3.56065L4.78029 11.9696C5.07318 12.2625 5.07318 12.7374 4.78029 13.0302C4.48739 13.3231 4.01252 13.3231 3.71963 13.0302L1.21967 10.5303C1.07901 10.3896 0.999996 10.1988 0.999997 9.99992C0.999998 9.80101 1.07902 9.61025 1.21967 9.46959L3.71963 6.96967C4.01253 6.67677 4.4874 6.67678 4.78029 6.96967C5.07318 7.26257 5.07318 7.73744 4.78029 8.03033L3.56068 9.24993L9.76515 9.24993C9.77662 9.2494 9.78816 9.24914 9.79975 9.24914H13.5V2.78809Z" fill="#15172B"/>
</g>
</svg>
