<svg width="64" height="64" viewBox="0 0 64 64" fill="none" xmlns="http://www.w3.org/2000/svg" role="img" aria-label="Size=XL - 64" data-icon="sizexl64" data-category="general">
  <title>Size=XL - 64</title>
  <desc>general icon from Comcast Business Design System</desc>
<g id="Size=XL - 64">
<g id="Icon">
<path id="shape" fill-rule="evenodd" clip-rule="evenodd" d="M49.4142 9.07107C50.1 8.38527 51.0301 8 52 8C52.9699 8 53.9 8.38527 54.5858 9.07107C55.2716 9.75686 55.6569 10.687 55.6569 11.6569C55.6569 12.6267 55.2716 13.5568 54.5858 14.2426L29.6442 39.1843L22.7487 40.9081L24.4726 34.0127L49.4142 9.07107ZM52 4C49.9693 4 48.0217 4.8067 46.5858 6.24264L21.2525 31.576C20.9961 31.8323 20.8143 32.1535 20.7264 32.5051L18.0597 43.1718C17.8893 43.8533 18.089 44.5743 18.5858 45.0711C19.0825 45.5678 19.8035 45.7675 20.4851 45.5971L31.1517 42.9305C31.5034 42.8426 31.8246 42.6607 32.0809 42.4044L57.4142 17.0711C58.8502 15.6351 59.6569 13.6876 59.6569 11.6569C59.6569 9.62613 58.8502 7.67858 57.4142 6.24264C55.9783 4.8067 54.0307 4 52 4ZM11.3333 8C9.38841 8 7.52315 8.77262 6.14788 10.1479C4.77262 11.5232 4 13.3884 4 15.3333V15.3334L4.00089 52.6666C4.00089 54.6114 4.77351 56.4767 6.14877 57.852C7.52404 59.2272 9.3893 59.9998 11.3342 59.9998H48.6676C50.6125 59.9998 52.4777 59.2272 53.853 57.852C55.2283 56.4767 56.0009 54.6114 56.0009 52.6665V34.6666C56.0009 33.562 55.1055 32.6666 54.0009 32.6666C52.8963 32.6666 52.0009 33.562 52.0009 34.6666V52.6665C52.0009 53.5506 51.6497 54.3984 51.0246 55.0235C50.3995 55.6487 49.5516 55.9998 48.6676 55.9998H11.3342C10.4502 55.9998 9.60232 55.6487 8.9772 55.0235C8.35208 54.3984 8.00089 53.5506 8.00089 52.6665L8 15.3333V15.3333C8.00001 14.4492 8.3512 13.6014 8.97631 12.9763C9.60143 12.3512 10.4493 12 11.3333 12H29.3329C30.4375 12 31.3329 11.1046 31.3329 10C31.3329 8.89543 30.4375 8 29.3329 8H11.3333Z" fill="#15172B"/>
</g>
</g>
</svg>
