<svg width="32" height="32" viewBox="0 0 32 32" fill="none" xmlns="http://www.w3.org/2000/svg" role="img" aria-label="Variant=Incoming Call, Type=Filled" data-icon="variantincomingcalltypefilled" data-category="communication">
  <title>Variant=Incoming Call, Type=Filled</title>
  <desc>communication icon from Comcast Business Design System</desc>
<g id="Variant=Incoming Call, Type=Filled">
<path id="shape" fill-rule="evenodd" clip-rule="evenodd" d="M6.41784 2C4.01598 2 1.70435 3.81193 1.97128 6.5054C2.38334 10.6634 4.29558 16.7099 9.79275 22.2071C15.2899 27.7043 21.3365 29.6165 25.4945 30.0286C28.1879 30.2955 29.9999 27.9839 29.9999 25.5821L29.9999 22.0366C29.9999 20.6774 29.0862 19.4881 27.7729 19.1378L22.8717 17.8309C21.8374 17.555 20.7344 17.8513 19.9775 18.6082L18.7438 19.8418C18.5828 19.7716 18.3869 19.6784 18.1615 19.557C17.4309 19.1636 16.3852 18.4711 15.207 17.2929C14.0266 16.1124 13.1998 14.9312 12.6699 14.048C12.4743 13.7219 12.3198 13.4377 12.2035 13.2106L13.3917 12.0225C14.1486 11.2655 14.4449 10.1625 14.1691 9.12817L12.8621 4.22701C12.5119 2.91375 11.3225 2 9.96338 2H6.41784ZM27.5355 12.5355C28.0878 12.5355 28.5355 12.0878 28.5355 11.5355C28.5355 10.9832 28.0878 10.5355 27.5355 10.5355L22.8787 10.5355L29.7073 3.70733C30.0978 3.31681 30.0978 2.68365 29.7073 2.29311C29.3168 1.90258 28.6836 1.90256 28.2931 2.29308L21.4644 9.12139V4.46445C21.4644 3.91217 21.0167 3.46445 20.4644 3.46445C19.9121 3.46445 19.4644 3.91217 19.4644 4.46445V11.5355C19.4644 12.0878 19.9121 12.5355 20.4644 12.5355H27.5355Z" fill="#15172B"/>
</g>
</svg>
