<svg width="32" height="32" viewBox="0 0 32 32" fill="none" xmlns="http://www.w3.org/2000/svg" role="img" aria-label="Variant=Mute" data-icon="variantmute" data-category="general">
  <title>Variant=Mute</title>
  <desc>general icon from Comcast Business Design System</desc>
<g id="Variant=Mute">
<path id="shape" fill-rule="evenodd" clip-rule="evenodd" d="M16 7C16 6.62123 15.786 6.27496 15.4472 6.10557C15.1084 5.93618 14.703 5.97274 14.4 6.2L8 11H3C2.44772 11 2 11.4477 2 12V20C2 20.5523 2.44772 21 3 21H8L14.4 25.8C14.703 26.0273 15.1084 26.0638 15.4472 25.8944C15.786 25.725 16 25.3788 16 25V7ZM31.3736 11.2929C31.7641 11.6834 31.7641 12.3166 31.3736 12.7071L28.0807 16L31.3736 19.2929C31.7641 19.6834 31.7641 20.3166 31.3736 20.7071C30.9831 21.0976 30.3499 21.0976 29.9594 20.7071L26.6665 17.4142L23.3736 20.7071C22.9831 21.0976 22.3499 21.0976 21.9594 20.7071C21.5689 20.3166 21.5689 19.6834 21.9594 19.2929L25.2523 16L21.9594 12.7071C21.5689 12.3166 21.5689 11.6834 21.9594 11.2929C22.3499 10.9024 22.9831 10.9024 23.3736 11.2929L26.6665 14.5858L29.9594 11.2929C30.3499 10.9024 30.9831 10.9024 31.3736 11.2929Z" fill="#15172B"/>
</g>
</svg>
