<svg width="81" height="25" viewBox="0 0 81 25" fill="none" xmlns="http://www.w3.org/2000/svg" role="img" aria-label="Variant Labels" data-icon="variantlabels" data-category="general">
  <title>Variant Labels</title>
  <desc>general icon from Comcast Business Design System</desc>
<g id="Variant Labels">
<path id="Label" d="M23.3258 11H21.8498L20.5538 8.894L19.2758 11H17.8538L19.8968 8.003L17.9978 5.06H19.4558L20.6528 7.058L21.8678 5.06H23.2178L21.3098 7.958L23.3258 11ZM29.2826 11H27.8066L26.5106 8.894L25.2326 11H23.8106L25.8536 8.003L23.9546 5.06H25.4126L26.6096 7.058L27.8246 5.06H29.1746L27.2666 7.958L29.2826 11ZM35.2394 11H33.7634L32.4674 8.894L31.1894 11H29.7674L31.8104 8.003L29.9114 5.06H31.3694L32.5664 7.058L33.7814 5.06H35.1314L33.2234 7.958L35.2394 11ZM37.5963 10.001H40.7283V11H36.3543V5.06H37.5963V10.001ZM47.8498 8.084V9.146H44.6728V8.084H47.8498ZM54.5601 4.988C54.9861 4.988 55.3551 5.054 55.6671 5.186C55.9851 5.312 56.2281 5.495 56.3961 5.735C56.5701 5.969 56.6571 6.254 56.6571 6.59C56.6571 6.902 56.5791 7.172 56.4231 7.4C56.2731 7.628 56.0541 7.802 55.7661 7.922V7.931C56.1141 8.057 56.3871 8.24 56.5851 8.48C56.7831 8.72 56.8821 9.023 56.8821 9.389C56.8821 9.737 56.7861 10.037 56.5941 10.289C56.4081 10.541 56.1411 10.739 55.7931 10.883C55.4511 11.021 55.0401 11.09 54.5601 11.09C54.0861 11.09 53.6751 11.021 53.3271 10.883C52.9851 10.739 52.7181 10.541 52.5261 10.289C52.3401 10.037 52.2471 9.737 52.2471 9.389C52.2471 9.029 52.3461 8.729 52.5441 8.489C52.7421 8.243 53.0181 8.057 53.3721 7.931V7.922C53.0841 7.808 52.8621 7.637 52.7061 7.409C52.5501 7.175 52.4721 6.902 52.4721 6.59C52.4721 6.254 52.5561 5.969 52.7241 5.735C52.8981 5.495 53.1441 5.312 53.4621 5.186C53.7801 5.054 54.1461 4.988 54.5601 4.988ZM54.5691 5.942C54.2871 5.942 54.0621 6.011 53.8941 6.149C53.7261 6.287 53.6421 6.479 53.6421 6.725C53.6421 6.971 53.7261 7.163 53.8941 7.301C54.0621 7.439 54.2871 7.508 54.5691 7.508C54.8451 7.508 55.0641 7.439 55.2261 7.301C55.3941 7.163 55.4781 6.971 55.4781 6.725C55.4781 6.479 55.3971 6.287 55.2351 6.149C55.0731 6.011 54.8511 5.942 54.5691 5.942ZM54.5691 10.127C54.7971 10.127 54.9921 10.094 55.1541 10.028C55.3161 9.962 55.4391 9.863 55.5231 9.731C55.6131 9.599 55.6581 9.443 55.6581 9.263C55.6581 9.083 55.6131 8.927 55.5231 8.795C55.4391 8.663 55.3131 8.564 55.1451 8.498C54.9831 8.426 54.7911 8.39 54.5691 8.39C54.3471 8.39 54.1521 8.426 53.9841 8.498C53.8161 8.564 53.6871 8.663 53.5971 8.795C53.5071 8.927 53.4621 9.083 53.4621 9.263C53.4621 9.443 53.5071 9.599 53.5971 9.731C53.6871 9.863 53.8131 9.962 53.9751 10.028C54.1431 10.094 54.3411 10.127 54.5691 10.127ZM60.4306 11.09C59.6686 11.09 59.0806 10.832 58.6666 10.316C58.2586 9.8 58.0546 9.038 58.0546 8.03C58.0546 7.022 58.2586 6.26 58.6666 5.744C59.0806 5.228 59.6686 4.97 60.4306 4.97C61.1926 4.97 61.7776 5.228 62.1856 5.744C62.5996 6.26 62.8066 7.022 62.8066 8.03C62.8066 9.038 62.5996 9.8 62.1856 10.316C61.7776 10.832 61.1926 11.09 60.4306 11.09ZM60.4306 10.091C60.6886 10.091 60.8986 10.019 61.0606 9.875C61.2286 9.725 61.3546 9.5 61.4386 9.2C61.5226 8.894 61.5646 8.504 61.5646 8.03C61.5646 7.556 61.5226 7.169 61.4386 6.869C61.3546 6.563 61.2286 6.338 61.0606 6.194C60.8986 6.044 60.6886 5.969 60.4306 5.969C60.1726 5.969 59.9596 6.044 59.7916 6.194C59.6236 6.338 59.4976 6.563 59.4136 6.869C59.3356 7.169 59.2966 7.556 59.2966 8.03C59.2966 8.504 59.3356 8.894 59.4136 9.2C59.4976 9.5 59.6236 9.725 59.7916 9.875C59.9596 10.019 60.1726 10.091 60.4306 10.091Z" fill="#5435ED"/>
<g id=".Brackets">
<g id="Group 1">
<path id="Vector 4" d="M37.5 19C39.5 19 40.5 17.6 40.5 16" stroke="#7B61FF"/>
<path id="Vector 5" d="M43.5 19C41.5 19 40.5 17.6 40.5 16" stroke="#7B61FF"/>
</g>
<g id="Frame 1">
<path id="Vector 1" d="M0.5 25C0.5 24.6667 0.5 23.6 0.5 22C0.5 20.4 2 19 3.5 19H4.5" stroke="#7B61FF"/>
<g id="Frame 3">
<path id="Vector 3" d="M4.5 19H37.5" stroke="#7B61FF"/>
<path id="Vector 4_2" d="M43.5 19H76.5" stroke="#7B61FF"/>
</g>
<path id="Vector 2" d="M80.5 25C80.5 24.6667 80.5 23.6 80.5 22C80.5 20.4 79 19 77.5 19L76.5 19" stroke="#7B61FF"/>
</g>
</g>
</g>
</svg>
