<svg width="32" height="32" viewBox="0 0 32 32" fill="none" xmlns="http://www.w3.org/2000/svg" role="img" aria-label="Variant=Call Forwarding (ALT), Type=Filled" data-icon="variantcallforwardingalttypefilled" data-category="navigation">
  <title>Variant=Call Forwarding (ALT), Type=Filled</title>
  <desc>navigation icon from Comcast Business Design System</desc>
<g id="Variant=Call Forwarding (ALT), Type=Filled">
<path id="shape" fill-rule="evenodd" clip-rule="evenodd" d="M1.97128 6.5054C1.70435 3.81193 4.01598 2 6.41784 2H9.96338C11.3225 2 12.5119 2.91375 12.8621 4.22701L14.1691 9.12817C14.4449 10.1625 14.1486 11.2655 13.3917 12.0225L12.2035 13.2106C12.3198 13.4377 12.4743 13.7219 12.6699 14.048C13.1998 14.9312 14.0266 16.1124 15.207 17.2929C16.3852 18.4711 17.4309 19.1636 18.1615 19.557C18.3869 19.6784 18.5828 19.7716 18.7438 19.8418L19.9775 18.6082C20.7344 17.8513 21.8374 17.555 22.8717 17.8309L27.7729 19.1378C29.0862 19.4881 29.9999 20.6774 29.9999 22.0366L29.9999 25.5821C29.9999 27.9839 28.1879 30.2955 25.4945 30.0286C21.3365 29.6165 15.2899 27.7043 9.79275 22.2071C4.29558 16.7099 2.38334 10.6634 1.97128 6.5054ZM19.2929 3.29289C19.6834 2.90237 20.3166 2.90237 20.7071 3.29289L23.7071 6.29289C24.0976 6.68342 24.0976 7.31658 23.7071 7.70711L20.7071 10.7071C20.3166 11.0976 19.6834 11.0976 19.2929 10.7071C18.9024 10.3166 18.9024 9.68342 19.2929 9.29289L21.5858 7L19.2929 4.70711C18.9024 4.31658 18.9024 3.68342 19.2929 3.29289ZM25.7071 3.29289C25.3166 2.90237 24.6834 2.90237 24.2929 3.29289C23.9024 3.68342 23.9024 4.31658 24.2929 4.70711L26.5858 7L24.2929 9.29289C23.9024 9.68342 23.9024 10.3166 24.2929 10.7071C24.6834 11.0976 25.3166 11.0976 25.7071 10.7071L28.7071 7.70711C29.0976 7.31658 29.0976 6.68342 28.7071 6.29289L25.7071 3.29289Z" fill="#15172B"/>
</g>
</svg>
