<svg width="32" height="32" viewBox="0 0 32 32" fill="none" xmlns="http://www.w3.org/2000/svg" role="img" aria-label="Variant=Disabled" data-icon="variantdisabled" data-category="general">
  <title>Variant=Disabled</title>
  <desc>general icon from Comcast Business Design System</desc>
<g id="Variant=Disabled">
<path id="shape" fill-rule="evenodd" clip-rule="evenodd" d="M18.9959 2.09059C19.0356 1.65362 18.7859 1.2418 18.38 1.07507C17.9741 0.908338 17.507 1.02565 17.2281 1.36435L13.7281 5.61435C13.377 6.04067 13.438 6.6709 13.8643 7.02199C14.2906 7.37308 14.9208 7.31209 15.2719 6.88576L16.7105 5.1389L16.3678 8.90952C16.3178 9.45954 16.7231 9.94595 17.2731 9.99595C17.8231 10.046 18.3095 9.64061 18.3595 9.09059L18.9959 2.09059ZM10.846 12.2602L6.11899 18.0001H15C15.281 18.0001 15.549 18.1183 15.7384 18.3257C15.9279 18.5332 16.0213 18.8108 15.9959 19.0906L15.291 26.8445L19.8552 21.2694L10.846 12.2602ZM21.2764 22.6907L14.7738 30.6335C14.4955 30.9734 14.0279 31.0919 13.6214 30.9256C13.2148 30.7592 12.9643 30.347 13.0041 29.9095L13.905 20.0001H4.00001C3.61304 20.0001 3.26081 19.7768 3.09566 19.4268C2.93051 19.0769 2.98208 18.6631 3.22808 18.3643L9.42514 10.8394L2.29289 3.70711C1.90237 3.31658 1.90237 2.68342 2.29289 2.29289C2.68342 1.90237 3.31658 1.90237 3.70711 2.29289L29.7071 28.2929C30.0976 28.6834 30.0976 29.3166 29.7071 29.7071C29.3166 30.0976 28.6834 30.0976 28.2929 29.7071L21.2764 22.6907ZM21 12.0001C20.4477 12.0001 20 12.4478 20 13.0001C20 13.5523 20.4477 14.0001 21 14.0001H25.8552L23.8769 16.3572C23.5218 16.7802 23.577 17.411 24 17.766C24.423 18.1211 25.0538 18.066 25.4088 17.6429L28.766 13.6429C29.0158 13.3452 29.0706 12.9297 28.9063 12.5775C28.7421 12.2252 28.3887 12.0001 28 12.0001H21Z" fill="#15172B"/>
</g>
</svg>
