<svg width="32" height="32" viewBox="0 0 32 32" fill="none" xmlns="http://www.w3.org/2000/svg" role="img" aria-label="Variant=Locked, Type=Filled" data-icon="variantlockedtypefilled" data-category="security">
  <title>Variant=Locked, Type=Filled</title>
  <desc>security icon from Comcast Business Design System</desc>
<g id="Variant=Locked, Type=Filled">
<path id="shape" fill-rule="evenodd" clip-rule="evenodd" d="M11.7683 5.81131C12.8961 4.64771 14.419 4 16 4C17.581 4 19.1039 4.64771 20.2317 5.81131C21.3605 6.97598 22 8.56208 22 10.2222V14H10V10.2222C10 8.56208 10.6395 6.97598 11.7683 5.81131ZM8 14V10.2222C8 8.05146 8.8355 5.96356 10.3322 4.41937C11.8299 2.87411 13.868 2 16 2C18.132 2 20.1701 2.87411 21.6678 4.41937C23.1645 5.96356 24 8.05146 24 10.2222V14H25.3333C27.3584 14 29 15.6416 29 17.6667V26.3333C29 28.3584 27.3584 30 25.3333 30H6.66667C4.64162 30 3 28.3584 3 26.3333V17.6667C3 15.6416 4.64162 14 6.66667 14H8Z" fill="#15172B"/>
</g>
</svg>
