<svg width="32" height="32" viewBox="0 0 32 32" fill="none" xmlns="http://www.w3.org/2000/svg" role="img" aria-label="Variant=Hidden" data-icon="varianthidden" data-category="general">
  <title>Variant=Hidden</title>
  <desc>general icon from Comcast Business Design System</desc>
<g id="Variant=Hidden">
<g id="shape">
<path fill-rule="evenodd" clip-rule="evenodd" d="M2.70711 1.29277C2.31658 0.902247 1.68342 0.902247 1.29289 1.29277C0.902369 1.6833 0.902369 2.31646 1.29289 2.70698L6.24945 7.66354C3.74684 9.75727 1.66476 12.3126 0.118652 15.1939C-0.0349814 15.4802 -0.0395632 15.824 0.105748 16.1146L0.106239 16.1156L0.107591 16.1183L0.111773 16.1266L0.126042 16.1545C0.138173 16.1781 0.155541 16.2116 0.178105 16.2542C0.223227 16.3395 0.289173 16.4616 0.375628 16.6153C0.548465 16.9226 0.803721 17.3568 1.13894 17.8759C1.80812 18.9121 2.80248 20.2961 4.1036 21.684C6.68762 24.4403 10.6003 27.3334 15.6665 27.3334L15.6828 27.3332C18.4684 27.2877 21.1747 26.4368 23.4786 24.8927L29.293 30.7071C29.6835 31.0976 30.3167 31.0976 30.7072 30.7071C31.0978 30.3166 31.0978 29.6834 30.7072 29.2929L2.70711 1.29277ZM2.81901 16.7908C2.52174 16.3306 2.29435 15.9453 2.13924 15.671C3.56408 13.1543 5.43895 10.9217 7.66954 9.08397L11.4764 12.8908C11.2911 13.1543 11.1313 13.4358 10.9995 13.7315C10.7263 14.3448 10.5793 15.0069 10.5675 15.6783C10.5556 16.3496 10.6791 17.0165 10.9306 17.6391C11.1821 18.2617 11.5564 18.8272 12.0312 19.302C12.506 19.7768 13.0715 20.1511 13.6941 20.4026C14.3167 20.654 14.9836 20.7775 15.6549 20.7657C16.3263 20.7539 16.9883 20.6069 17.6017 20.3336C17.8974 20.2019 18.1788 20.042 18.4423 19.8568L22.0323 23.4468C20.1245 24.639 17.922 25.2949 15.6583 25.3334C11.395 25.3303 7.97712 22.8915 5.56268 20.3161C4.36381 19.0373 3.44149 17.7547 2.81901 16.7908ZM12.8264 14.5455C12.8573 14.4761 12.8909 14.408 12.9268 14.3413L16.9919 18.4063C16.9252 18.4423 16.8571 18.4758 16.7877 18.5068C16.4197 18.6707 16.0224 18.7589 15.6196 18.766C15.2168 18.7731 14.8167 18.699 14.4431 18.5481C14.0696 18.3973 13.7303 18.1727 13.4454 17.8878C13.1605 17.6029 12.9359 17.2636 12.785 16.89C12.6342 16.5165 12.5601 16.1164 12.5672 15.7136C12.5743 15.3107 12.6624 14.9135 12.8264 14.5455Z" fill="#15172B"/>
<path fill-rule="evenodd" clip-rule="evenodd" d="M13.0944 6.29371C13.9367 6.09655 14.7991 5.998 15.6641 6.00003L15.6665 6.00003C19.9336 6.00003 23.3543 8.44026 25.7703 11.0173C26.9691 12.2961 27.8915 13.5787 28.5139 14.5426C28.8115 15.0034 29.0391 15.389 29.1942 15.6633C28.4729 16.9424 27.634 18.152 26.688 19.2762C26.3324 19.6988 26.3867 20.3296 26.8093 20.6852C27.2319 21.0408 27.8627 20.9865 28.2183 20.5639C29.3685 19.1969 30.3729 17.7136 31.2151 16.1381C31.368 15.8521 31.3723 15.5089 31.2272 15.2188L31.2254 15.2151L31.2212 15.2068L31.2069 15.1789C31.1948 15.1553 31.1774 15.1218 31.1548 15.0792C31.1097 14.9939 31.0438 14.8718 30.9573 14.7181C30.7845 14.4108 30.5292 13.9766 30.194 13.4575C29.5248 12.4213 28.5305 11.0373 27.2293 9.64943C24.6455 6.89335 20.7333 4.00048 15.6677 4.00003C14.6479 3.99773 13.6314 4.11395 12.6386 4.34635C12.1008 4.47222 11.7669 5.0102 11.8928 5.54795C12.0187 6.0857 12.5566 6.41959 13.0944 6.29371ZM29.1942 15.6633C29.1166 15.7999 29.1605 15.7229 29.1942 15.6633V15.6633Z" fill="#15172B"/>
</g>
</g>
</svg>
