<svg width="32" height="32" viewBox="0 0 32 32" fill="none" xmlns="http://www.w3.org/2000/svg" role="img" aria-label="Video" data-icon="video" data-category="media">
  <title>Video</title>
  <desc>media icon from Comcast Business Design System</desc>
<g id="Video">
<path id="shape" fill-rule="evenodd" clip-rule="evenodd" d="M2 10C2 8.34315 3.34315 7 5 7H18C19.6569 7 21 8.34315 21 10V14.2169L28.4785 9.64672C28.7872 9.4581 29.1737 9.45086 29.4892 9.6278C29.8047 9.80475 30 10.1383 30 10.5V21.5C30 21.8617 29.8047 22.1953 29.4892 22.3722C29.1737 22.5491 28.7872 22.5419 28.4785 22.3533L21 17.7831V22C21 23.6569 19.6569 25 18 25H5C3.34315 25 2 23.6569 2 22V10ZM21.9177 16L28 19.7169V12.2831L21.9177 16ZM5 9C4.44772 9 4 9.44772 4 10V22C4 22.5523 4.44772 23 5 23H18C18.5523 23 19 22.5523 19 22V10C19 9.44772 18.5523 9 18 9H5Z" fill="#15172B"/>
</g>
</svg>
