<svg width="32" height="32" viewBox="0 0 32 32" fill="none" xmlns="http://www.w3.org/2000/svg" role="img" aria-label="Voicemail" data-icon="voicemail" data-category="communication">
  <title>Voicemail</title>
  <desc>communication icon from Comcast Business Design System</desc>
<g id="Voicemail">
<path id="shape" fill-rule="evenodd" clip-rule="evenodd" d="M8.5 21C10.9853 21 13 18.9853 13 16.5C13 14.0147 10.9853 12 8.5 12C6.01472 12 4 14.0147 4 16.5C4 18.9853 6.01472 21 8.5 21ZM13.1904 21C14.3112 19.8321 15 18.2465 15 16.5C15 12.9101 12.0899 10 8.5 10C4.91015 10 2 12.9101 2 16.5C2 20.0899 4.91015 23 8.5 23H23.5C27.0899 23 30 20.0899 30 16.5C30 12.9101 27.0899 10 23.5 10C19.9101 10 17 12.9101 17 16.5C17 18.2465 17.6888 19.8321 18.8096 21H13.1904ZM23.5 21C25.9853 21 28 18.9853 28 16.5C28 14.0147 25.9853 12 23.5 12C21.0147 12 19 14.0147 19 16.5C19 18.9853 21.0147 21 23.5 21Z" fill="#15172B"/>
</g>
</svg>
