<svg width="32" height="32" viewBox="0 0 32 32" fill="none" xmlns="http://www.w3.org/2000/svg" role="img" aria-label="VR Headset" data-icon="vrheadset" data-category="general">
  <title>VR Headset</title>
  <desc>general icon from Comcast Business Design System</desc>
<g id="VR Headset">
<g id="shape">
<path fill-rule="evenodd" clip-rule="evenodd" d="M14 15.5C14 17.433 12.433 19 10.5 19C8.567 19 7 17.433 7 15.5C7 13.567 8.567 12 10.5 12C12.433 12 14 13.567 14 15.5ZM10.5 17C11.3284 17 12 16.3284 12 15.5C12 14.6716 11.3284 14 10.5 14C9.67157 14 9 14.6716 9 15.5C9 16.3284 9.67157 17 10.5 17Z" fill="#15172B"/>
<path fill-rule="evenodd" clip-rule="evenodd" d="M21.5 19C23.433 19 25 17.433 25 15.5C25 13.567 23.433 12 21.5 12C19.567 12 18 13.567 18 15.5C18 17.433 19.567 19 21.5 19ZM23 15.5C23 16.3284 22.3284 17 21.5 17C20.6716 17 20 16.3284 20 15.5C20 14.6716 20.6716 14 21.5 14C22.3284 14 23 14.6716 23 15.5Z" fill="#15172B"/>
<path fill-rule="evenodd" clip-rule="evenodd" d="M8.5464 7.77638C10.5375 7.34416 13.1151 7 16.0002 7C18.8854 7 21.463 7.34416 23.4541 7.77638C24.7225 8.05173 25.7639 8.66906 26.5781 9.5H29C30.1046 9.5 31 10.3954 31 11.5V14.5C31 15.5721 30.1565 16.4471 29.097 16.4977L29.3711 18.1426C29.8054 20.7481 28.2148 23.2644 25.6751 23.9901L25.1147 24.1502C23.0311 24.7455 20.7912 24.3958 18.9882 23.1938C17.1788 21.9876 14.8217 21.9876 13.0123 23.1938C11.2093 24.3958 8.96936 24.7455 6.88575 24.1502L6.32537 23.9901C3.78563 23.2644 2.1951 20.7481 2.62934 18.1426L2.90349 16.4977C1.84374 16.4474 1 15.5722 1 14.5V11.5C1 10.3954 1.89543 9.5 3 9.5H5.42238C6.23659 8.66906 7.27795 8.05173 8.5464 7.77638ZM16.0002 9C13.2692 9 10.834 9.32637 8.97067 9.73086C7.00919 10.1566 5.7048 11.8554 5.33321 14.085L4.60213 18.4714C4.33511 20.0735 5.31313 21.6208 6.87481 22.067L7.43519 22.2271C8.95464 22.6612 10.5881 22.4063 11.9029 21.5297C14.3841 19.8756 17.6164 19.8756 20.0976 21.5297C21.4124 22.4063 23.0458 22.6612 24.5653 22.2271L25.1257 22.067C26.6874 21.6208 27.6654 20.0735 27.3984 18.4714L26.6673 14.085C26.2957 11.8554 24.9913 10.1566 23.0298 9.73086C21.1664 9.32637 18.7313 9 16.0002 9ZM28.764 14.5H29V11.5H27.947C28.2787 12.2096 28.5097 12.9743 28.6401 13.7562L28.764 14.5ZM3.36042 13.7562L3.23645 14.5H3V11.5H4.05346C3.72175 12.2096 3.49074 12.9743 3.36042 13.7562Z" fill="#15172B"/>
</g>
</g>
</svg>
